0, 0, Header, 1, 17, 96
1, 0, Start_track
1, 0, Time_signature, 4, 2, 24, 8
1, 0, End_track
2, 0, Start_track
2, 0, Tempo, 379747
2, 0, End_track
3, 0, Start_track
3, 0, Title_t, "phase"
3, 0, Program_c, 0, 0
3, 0, Program_c, 0, 0
3, 0, Note_on_c, 0, 62, 100
3, 0, Note_on_c, 0, 0, 100
3, 0, Program_c, 0, 0
3, 96, Note_off_c, 0, 62, 64
3, 96, Note_off_c, 0, 0, 64
3, 4992, Note_on_c, 0, 60, 100
3, 5088, Note_off_c, 0, 60, 64
3, 14496, Note_on_c, 0, 61, 100
3, 14592, Note_off_c, 0, 61, 64
3, 20544, Note_on_c, 0, 60, 100
3, 20640, Note_off_c, 0, 60, 64
3, 28416, Note_on_c, 0, 59, 100
3, 28512, Note_off_c, 0, 59, 64
3, 29122, Program_c, 0, 0
3, 29125, Program_c, 0, 0
3, 29125, End_track
4, 0, Start_track
4, 0, Title_t, "items"
4, 0, Note_on_c, 1, 0, 100
4, 96, Note_off_c, 1, 0, 64
4, 672, Note_on_c, 1, 72, 100
4, 696, Note_off_c, 1, 72, 64
4, 1056, Note_on_c, 1, 72, 100
4, 1080, Note_off_c, 1, 72, 64
4, 1440, Note_on_c, 1, 72, 100
4, 1464, Note_off_c, 1, 72, 64
4, 1824, Note_on_c, 1, 72, 100
4, 1848, Note_off_c, 1, 72, 64
4, 2076, Note_on_c, 1, 74, 100
4, 2100, Note_off_c, 1, 74, 64
4, 2592, Note_on_c, 1, 72, 100
4, 2616, Note_off_c, 1, 72, 64
4, 2844, Note_on_c, 1, 74, 100
4, 2868, Note_off_c, 1, 74, 64
4, 3324, Note_on_c, 1, 60, 100
4, 3348, Note_off_c, 1, 60, 64
4, 3612, Note_on_c, 1, 74, 100
4, 3636, Note_off_c, 1, 74, 64
4, 4128, Note_on_c, 1, 72, 100
4, 4152, Note_off_c, 1, 72, 64
4, 4380, Note_on_c, 1, 74, 100
4, 4404, Note_off_c, 1, 74, 64
4, 8160, Note_on_c, 1, 76, 100
4, 8184, Note_off_c, 1, 76, 64
4, 13764, Note_on_c, 1, 61, 100
4, 13788, Note_off_c, 1, 61, 64
4, 20736, Note_on_c, 1, 73, 100
4, 20760, Note_off_c, 1, 73, 64
4, 20832, Note_on_c, 1, 76, 100
4, 20856, Note_off_c, 1, 76, 64
4, 20928, Note_on_c, 1, 73, 100
4, 20952, Note_off_c, 1, 73, 64
4, 21024, Note_on_c, 1, 76, 100
4, 21048, Note_off_c, 1, 76, 64
4, 21120, Note_on_c, 1, 73, 100
4, 21144, Note_off_c, 1, 73, 64
4, 21216, Note_on_c, 1, 76, 100
4, 21240, Note_off_c, 1, 76, 64
4, 21240, End_track
5, 0, Start_track
5, 0, Title_t, "small"
5, 0, Program_c, 2, 0
5, 0, Program_c, 2, 0
5, 0, Note_on_c, 2, 0, 100
5, 0, Program_c, 2, 0
5, 96, Note_off_c, 2, 0, 64
5, 5184, Note_on_c, 2, 60, 100
5, 5208, Note_off_c, 2, 60, 64
5, 5280, Note_on_c, 2, 61, 100
5, 5304, Note_off_c, 2, 61, 64
5, 5376, Note_on_c, 2, 60, 100
5, 5400, Note_off_c, 2, 60, 64
5, 5472, Note_on_c, 2, 61, 100
5, 5496, Note_off_c, 2, 61, 64
5, 5568, Note_on_c, 2, 60, 100
5, 5592, Note_off_c, 2, 60, 64
5, 5664, Note_on_c, 2, 61, 100
5, 5688, Note_off_c, 2, 61, 64
5, 5760, Note_on_c, 2, 60, 100
5, 5784, Note_off_c, 2, 60, 64
5, 5856, Note_on_c, 2, 61, 100
5, 5880, Note_off_c, 2, 61, 64
5, 5952, Note_on_c, 2, 60, 100
5, 5976, Note_off_c, 2, 60, 64
5, 6048, Note_on_c, 2, 61, 100
5, 6072, Note_off_c, 2, 61, 64
5, 6144, Note_on_c, 2, 60, 100
5, 6168, Note_off_c, 2, 60, 64
5, 6240, Note_on_c, 2, 61, 100
5, 6264, Note_off_c, 2, 61, 64
5, 6336, Note_on_c, 2, 60, 100
5, 6360, Note_off_c, 2, 60, 64
5, 6432, Note_on_c, 2, 61, 100
5, 6456, Note_off_c, 2, 61, 64
5, 6528, Note_on_c, 2, 60, 100
5, 6552, Note_off_c, 2, 60, 64
5, 6624, Note_on_c, 2, 61, 100
5, 6648, Note_off_c, 2, 61, 64
5, 6720, Note_on_c, 2, 60, 100
5, 6744, Note_off_c, 2, 60, 64
5, 6816, Note_on_c, 2, 61, 100
5, 6840, Note_off_c, 2, 61, 64
5, 6912, Note_on_c, 2, 60, 100
5, 6936, Note_off_c, 2, 60, 64
5, 7008, Note_on_c, 2, 61, 100
5, 7032, Note_off_c, 2, 61, 64
5, 7104, Note_on_c, 2, 60, 100
5, 7128, Note_off_c, 2, 60, 64
5, 7200, Note_on_c, 2, 61, 100
5, 7224, Note_off_c, 2, 61, 64
5, 7296, Note_on_c, 2, 60, 100
5, 7320, Note_off_c, 2, 60, 64
5, 7392, Note_on_c, 2, 61, 100
5, 7416, Note_off_c, 2, 61, 64
5, 7488, Note_on_c, 2, 60, 100
5, 7512, Note_off_c, 2, 60, 64
5, 7584, Note_on_c, 2, 61, 100
5, 7608, Note_off_c, 2, 61, 64
5, 7680, Note_on_c, 2, 60, 100
5, 7704, Note_off_c, 2, 60, 64
5, 7776, Note_on_c, 2, 61, 100
5, 7800, Note_off_c, 2, 61, 64
5, 7872, Note_on_c, 2, 60, 100
5, 7896, Note_off_c, 2, 60, 64
5, 7968, Note_on_c, 2, 61, 100
5, 7992, Note_off_c, 2, 61, 64
5, 8064, Note_on_c, 2, 60, 100
5, 8088, Note_off_c, 2, 60, 64
5, 8256, Note_on_c, 2, 61, 100
5, 8280, Note_off_c, 2, 61, 64
5, 8448, Note_on_c, 2, 61, 100
5, 8472, Note_off_c, 2, 61, 64
5, 8640, Note_on_c, 2, 61, 100
5, 8664, Note_off_c, 2, 61, 64
5, 8832, Note_on_c, 2, 61, 100
5, 8856, Note_off_c, 2, 61, 64
5, 9024, Note_on_c, 2, 60, 100
5, 9048, Note_off_c, 2, 60, 64
5, 9216, Note_on_c, 2, 60, 100
5, 9240, Note_off_c, 2, 60, 64
5, 9408, Note_on_c, 2, 60, 100
5, 9432, Note_off_c, 2, 60, 64
5, 9600, Note_on_c, 2, 60, 100
5, 9624, Note_off_c, 2, 60, 64
5, 9792, Note_on_c, 2, 60, 100
5, 9816, Note_off_c, 2, 60, 64
5, 9984, Note_on_c, 2, 60, 100
5, 10008, Note_off_c, 2, 60, 64
5, 10176, Note_on_c, 2, 60, 100
5, 10200, Note_off_c, 2, 60, 64
5, 10368, Note_on_c, 2, 60, 100
5, 10392, Note_off_c, 2, 60, 64
5, 10560, Note_on_c, 2, 61, 100
5, 10584, Note_off_c, 2, 61, 64
5, 10752, Note_on_c, 2, 61, 100
5, 10776, Note_off_c, 2, 61, 64
5, 10944, Note_on_c, 2, 61, 100
5, 10968, Note_off_c, 2, 61, 64
5, 11136, Note_on_c, 2, 61, 100
5, 11160, Note_off_c, 2, 61, 64
5, 11328, Note_on_c, 2, 61, 100
5, 11352, Note_off_c, 2, 61, 64
5, 11520, Note_on_c, 2, 61, 100
5, 11544, Note_off_c, 2, 61, 64
5, 11712, Note_on_c, 2, 61, 100
5, 11736, Note_off_c, 2, 61, 64
5, 11904, Note_on_c, 2, 61, 100
5, 11928, Note_off_c, 2, 61, 64
5, 12096, Note_on_c, 2, 60, 100
5, 12120, Note_off_c, 2, 60, 64
5, 12288, Note_on_c, 2, 60, 100
5, 12312, Note_off_c, 2, 60, 64
5, 12480, Note_on_c, 2, 60, 100
5, 12504, Note_off_c, 2, 60, 64
5, 12672, Note_on_c, 2, 60, 100
5, 12696, Note_off_c, 2, 60, 64
5, 12864, Note_on_c, 2, 61, 100
5, 12888, Note_off_c, 2, 61, 64
5, 12960, Note_on_c, 2, 61, 100
5, 12984, Note_off_c, 2, 61, 64
5, 13056, Note_on_c, 2, 61, 100
5, 13080, Note_off_c, 2, 61, 64
5, 13152, Note_on_c, 2, 61, 100
5, 13176, Note_off_c, 2, 61, 64
5, 13248, Note_on_c, 2, 61, 100
5, 13272, Note_off_c, 2, 61, 64
5, 13296, Note_on_c, 2, 61, 100
5, 13320, Note_off_c, 2, 61, 64
5, 13344, Note_on_c, 2, 61, 100
5, 13368, Note_off_c, 2, 61, 64
5, 13392, Note_on_c, 2, 61, 100
5, 13416, Note_off_c, 2, 61, 64
5, 13440, Note_on_c, 2, 60, 100
5, 13464, Note_off_c, 2, 60, 64
5, 13488, Note_on_c, 2, 60, 100
5, 13512, Note_off_c, 2, 60, 64
5, 13536, Note_on_c, 2, 60, 100
5, 13560, Note_off_c, 2, 60, 64
5, 13584, Note_on_c, 2, 60, 100
5, 13608, Note_off_c, 2, 60, 64
5, 22080, Note_on_c, 2, 60, 100
5, 22104, Note_off_c, 2, 60, 64
5, 22176, Note_on_c, 2, 61, 100
5, 22200, Note_off_c, 2, 61, 64
5, 22272, Note_on_c, 2, 60, 100
5, 22296, Note_off_c, 2, 60, 64
5, 22368, Note_on_c, 2, 61, 100
5, 22392, Note_off_c, 2, 61, 64
5, 22464, Note_on_c, 2, 60, 100
5, 22488, Note_off_c, 2, 60, 64
5, 22560, Note_on_c, 2, 61, 100
5, 22584, Note_off_c, 2, 61, 64
5, 22656, Note_on_c, 2, 60, 100
5, 22680, Note_off_c, 2, 60, 64
5, 22752, Note_on_c, 2, 61, 100
5, 22776, Note_off_c, 2, 61, 64
5, 23616, Note_on_c, 2, 60, 100
5, 23640, Note_off_c, 2, 60, 64
5, 23712, Note_on_c, 2, 60, 100
5, 23736, Note_off_c, 2, 60, 64
5, 23808, Note_on_c, 2, 60, 100
5, 23832, Note_off_c, 2, 60, 64
5, 23904, Note_on_c, 2, 60, 100
5, 23928, Note_off_c, 2, 60, 64
5, 24000, Note_on_c, 2, 60, 100
5, 24024, Note_off_c, 2, 60, 64
5, 24096, Note_on_c, 2, 60, 100
5, 24120, Note_off_c, 2, 60, 64
5, 24192, Note_on_c, 2, 60, 100
5, 24216, Note_off_c, 2, 60, 64
5, 24288, Note_on_c, 2, 60, 100
5, 24312, Note_off_c, 2, 60, 64
5, 24384, Note_on_c, 2, 60, 100
5, 24408, Note_off_c, 2, 60, 64
5, 24480, Note_on_c, 2, 60, 100
5, 24504, Note_off_c, 2, 60, 64
5, 24576, Note_on_c, 2, 60, 100
5, 24600, Note_off_c, 2, 60, 64
5, 24672, Note_on_c, 2, 60, 100
5, 24696, Note_off_c, 2, 60, 64
5, 24768, Note_on_c, 2, 60, 100
5, 24792, Note_off_c, 2, 60, 64
5, 24864, Note_on_c, 2, 60, 100
5, 24888, Note_off_c, 2, 60, 64
5, 24960, Note_on_c, 2, 60, 100
5, 24984, Note_off_c, 2, 60, 64
5, 25056, Note_on_c, 2, 60, 100
5, 25080, Note_off_c, 2, 60, 64
5, 25152, Note_on_c, 2, 60, 100
5, 25176, Note_off_c, 2, 60, 64
5, 25248, Note_on_c, 2, 60, 100
5, 25272, Note_off_c, 2, 60, 64
5, 25344, Note_on_c, 2, 60, 100
5, 25368, Note_off_c, 2, 60, 64
5, 25440, Note_on_c, 2, 60, 100
5, 25464, Note_off_c, 2, 60, 64
5, 25536, Note_on_c, 2, 60, 100
5, 25560, Note_off_c, 2, 60, 64
5, 25632, Note_on_c, 2, 60, 100
5, 25656, Note_off_c, 2, 60, 64
5, 25728, Note_on_c, 2, 60, 100
5, 25752, Note_off_c, 2, 60, 64
5, 25824, Note_on_c, 2, 60, 100
5, 25848, Note_off_c, 2, 60, 64
5, 25920, Note_on_c, 2, 60, 100
5, 25944, Note_off_c, 2, 60, 64
5, 26016, Note_on_c, 2, 60, 100
5, 26040, Note_off_c, 2, 60, 64
5, 26112, Note_on_c, 2, 60, 100
5, 26136, Note_off_c, 2, 60, 64
5, 26208, Note_on_c, 2, 60, 100
5, 26232, Note_off_c, 2, 60, 64
5, 26304, Note_on_c, 2, 60, 100
5, 26328, Note_off_c, 2, 60, 64
5, 26400, Note_on_c, 2, 60, 100
5, 26424, Note_off_c, 2, 60, 64
5, 26496, Note_on_c, 2, 60, 100
5, 26520, Note_off_c, 2, 60, 64
5, 26592, Note_on_c, 2, 60, 100
5, 26616, Note_off_c, 2, 60, 64
5, 29122, Program_c, 2, 0
5, 29125, Program_c, 2, 0
5, 29125, End_track
6, 0, Start_track
6, 0, Title_t, "large"
6, 0, Program_c, 3, 0
6, 0, Program_c, 3, 0
6, 0, Note_on_c, 3, 0, 100
6, 0, Program_c, 3, 0
6, 96, Note_off_c, 3, 0, 64
6, 6480, Note_on_c, 3, 61, 100
6, 6504, Note_off_c, 3, 61, 64
6, 6576, Note_on_c, 3, 60, 100
6, 6600, Note_off_c, 3, 60, 64
6, 6672, Note_on_c, 3, 61, 100
6, 6696, Note_off_c, 3, 61, 64
6, 7248, Note_on_c, 3, 61, 100
6, 7272, Note_off_c, 3, 61, 64
6, 7344, Note_on_c, 3, 60, 100
6, 7368, Note_off_c, 3, 60, 64
6, 7440, Note_on_c, 3, 61, 100
6, 7464, Note_off_c, 3, 61, 64
6, 8352, Note_on_c, 3, 61, 100
6, 8388, Note_off_c, 3, 61, 64
6, 8544, Note_on_c, 3, 61, 100
6, 8580, Note_off_c, 3, 61, 64
6, 8736, Note_on_c, 3, 61, 100
6, 8772, Note_off_c, 3, 61, 64
6, 8928, Note_on_c, 3, 61, 100
6, 8964, Note_off_c, 3, 61, 64
6, 9120, Note_on_c, 3, 60, 100
6, 9156, Note_off_c, 3, 60, 64
6, 9312, Note_on_c, 3, 60, 100
6, 9348, Note_off_c, 3, 60, 64
6, 9504, Note_on_c, 3, 61, 100
6, 9540, Note_off_c, 3, 61, 64
6, 9696, Note_on_c, 3, 61, 100
6, 9732, Note_off_c, 3, 61, 64
6, 9888, Note_on_c, 3, 60, 100
6, 9924, Note_off_c, 3, 60, 64
6, 10080, Note_on_c, 3, 60, 100
6, 10116, Note_off_c, 3, 60, 64
6, 10272, Note_on_c, 3, 60, 100
6, 10308, Note_off_c, 3, 60, 64
6, 10464, Note_on_c, 3, 61, 100
6, 10500, Note_off_c, 3, 61, 64
6, 10656, Note_on_c, 3, 61, 100
6, 10692, Note_off_c, 3, 61, 64
6, 10848, Note_on_c, 3, 61, 100
6, 10884, Note_off_c, 3, 61, 64
6, 11040, Note_on_c, 3, 61, 100
6, 11076, Note_off_c, 3, 61, 64
6, 11232, Note_on_c, 3, 60, 100
6, 11268, Note_off_c, 3, 60, 64
6, 11424, Note_on_c, 3, 61, 100
6, 11460, Note_off_c, 3, 61, 64
6, 11616, Note_on_c, 3, 61, 100
6, 11652, Note_off_c, 3, 61, 64
6, 11808, Note_on_c, 3, 61, 100
6, 11844, Note_off_c, 3, 61, 64
6, 12000, Note_on_c, 3, 60, 100
6, 12036, Note_off_c, 3, 60, 64
6, 12192, Note_on_c, 3, 60, 100
6, 12228, Note_off_c, 3, 60, 64
6, 12384, Note_on_c, 3, 60, 100
6, 12420, Note_off_c, 3, 60, 64
6, 12576, Note_on_c, 3, 60, 100
6, 12612, Note_off_c, 3, 60, 64
6, 12768, Note_on_c, 3, 60, 100
6, 12804, Note_off_c, 3, 60, 64
6, 22848, Note_on_c, 3, 60, 100
6, 22884, Note_off_c, 3, 60, 64
6, 22944, Note_on_c, 3, 61, 100
6, 22980, Note_off_c, 3, 61, 64
6, 23040, Note_on_c, 3, 60, 100
6, 23076, Note_off_c, 3, 60, 64
6, 23136, Note_on_c, 3, 61, 100
6, 23172, Note_off_c, 3, 61, 64
6, 23232, Note_on_c, 3, 60, 100
6, 23268, Note_off_c, 3, 60, 64
6, 23328, Note_on_c, 3, 61, 100
6, 23364, Note_off_c, 3, 61, 64
6, 23424, Note_on_c, 3, 60, 100
6, 23460, Note_off_c, 3, 60, 64
6, 23520, Note_on_c, 3, 61, 100
6, 23556, Note_off_c, 3, 61, 64
6, 29122, Program_c, 3, 0
6, 29125, Program_c, 3, 0
6, 29125, End_track
7, 0, Start_track
7, 0, Title_t, "long"
7, 0, Note_on_c, 4, 0, 100
7, 96, Note_off_c, 4, 0, 64
7, 8256, Note_on_c, 4, 60, 100
7, 9024, Note_off_c, 4, 60, 64
7, 9024, Note_on_c, 4, 61, 100
7, 9408, Note_off_c, 4, 61, 64
7, 9696, Note_on_c, 4, 60, 100
7, 9792, Note_off_c, 4, 60, 64
7, 9792, Note_on_c, 4, 61, 100
7, 10368, Note_off_c, 4, 61, 64
7, 10560, Note_on_c, 4, 60, 100
7, 11136, Note_off_c, 4, 60, 64
7, 11232, Note_on_c, 4, 61, 100
7, 11328, Note_off_c, 4, 61, 64
7, 11328, Note_on_c, 4, 60, 100
7, 11904, Note_off_c, 4, 60, 64
7, 12096, Note_on_c, 4, 61, 100
7, 12672, Note_off_c, 4, 61, 64
7, 12768, Note_on_c, 4, 61, 100
7, 12864, Note_off_c, 4, 61, 64
7, 12864, Note_on_c, 4, 60, 100
7, 13176, Note_off_c, 4, 60, 64
7, 13176, End_track
8, 0, Start_track
8, 0, Title_t, "boss"
8, 0, Program_c, 5, 0
8, 0, Program_c, 5, 0
8, 0, Note_on_c, 5, 0, 100
8, 0, Program_c, 5, 0
8, 96, Note_off_c, 5, 0, 64
8, 14016, Note_on_c, 5, 60, 100
8, 14040, Note_off_c, 5, 60, 64
8, 14040, Note_on_c, 5, 60, 100
8, 14064, Note_off_c, 5, 60, 64
8, 14064, Note_on_c, 5, 60, 100
8, 14088, Note_off_c, 5, 60, 64
8, 14088, Note_on_c, 5, 60, 100
8, 14112, Note_off_c, 5, 60, 64
8, 14136, Note_on_c, 5, 60, 100
8, 14160, Note_off_c, 5, 60, 64
8, 14160, Note_on_c, 5, 60, 100
8, 14184, Note_off_c, 5, 60, 64
8, 14184, Note_on_c, 5, 60, 100
8, 14208, Note_off_c, 5, 60, 64
8, 14232, Note_on_c, 5, 61, 100
8, 14400, Note_off_c, 5, 61, 64
8, 26688, Note_on_c, 5, 60, 100
8, 26712, Note_off_c, 5, 60, 64
8, 29122, Program_c, 5, 0
8, 29125, Program_c, 5, 0
8, 29125, End_track
9, 0, Start_track
9, 0, Title_t, "fantome"
9, 0, Note_on_c, 6, 0, 100
9, 96, Note_off_c, 6, 0, 64
9, 21312, Note_on_c, 6, 60, 100
9, 21336, Note_off_c, 6, 60, 64
9, 21408, Note_on_c, 6, 61, 100
9, 21432, Note_off_c, 6, 61, 64
9, 21504, Note_on_c, 6, 60, 100
9, 21528, Note_off_c, 6, 60, 64
9, 21600, Note_on_c, 6, 61, 100
9, 21624, Note_off_c, 6, 61, 64
9, 21696, Note_on_c, 6, 60, 100
9, 21720, Note_off_c, 6, 60, 64
9, 21792, Note_on_c, 6, 61, 100
9, 21816, Note_off_c, 6, 61, 64
9, 21888, Note_on_c, 6, 60, 100
9, 21912, Note_off_c, 6, 60, 64
9, 21984, Note_on_c, 6, 61, 100
9, 22008, Note_off_c, 6, 61, 64
9, 23664, Note_on_c, 6, 61, 100
9, 23688, Note_off_c, 6, 61, 64
9, 23760, Note_on_c, 6, 61, 100
9, 23784, Note_off_c, 6, 61, 64
9, 23856, Note_on_c, 6, 61, 100
9, 23880, Note_off_c, 6, 61, 64
9, 23952, Note_on_c, 6, 61, 100
9, 23976, Note_off_c, 6, 61, 64
9, 24048, Note_on_c, 6, 61, 100
9, 24072, Note_off_c, 6, 61, 64
9, 24144, Note_on_c, 6, 61, 100
9, 24168, Note_off_c, 6, 61, 64
9, 24240, Note_on_c, 6, 61, 100
9, 24264, Note_off_c, 6, 61, 64
9, 24336, Note_on_c, 6, 61, 100
9, 24360, Note_off_c, 6, 61, 64
9, 24432, Note_on_c, 6, 61, 100
9, 24456, Note_off_c, 6, 61, 64
9, 24528, Note_on_c, 6, 61, 100
9, 24552, Note_off_c, 6, 61, 64
9, 24624, Note_on_c, 6, 61, 100
9, 24648, Note_off_c, 6, 61, 64
9, 24720, Note_on_c, 6, 61, 100
9, 24744, Note_off_c, 6, 61, 64
9, 24816, Note_on_c, 6, 61, 100
9, 24840, Note_off_c, 6, 61, 64
9, 24912, Note_on_c, 6, 61, 100
9, 24936, Note_off_c, 6, 61, 64
9, 25008, Note_on_c, 6, 61, 100
9, 25032, Note_off_c, 6, 61, 64
9, 25104, Note_on_c, 6, 61, 100
9, 25128, Note_off_c, 6, 61, 64
9, 25200, Note_on_c, 6, 61, 100
9, 25224, Note_off_c, 6, 61, 64
9, 25296, Note_on_c, 6, 61, 100
9, 25320, Note_off_c, 6, 61, 64
9, 25392, Note_on_c, 6, 61, 100
9, 25416, Note_off_c, 6, 61, 64
9, 25488, Note_on_c, 6, 61, 100
9, 25512, Note_off_c, 6, 61, 64
9, 25584, Note_on_c, 6, 61, 100
9, 25608, Note_off_c, 6, 61, 64
9, 25680, Note_on_c, 6, 61, 100
9, 25704, Note_off_c, 6, 61, 64
9, 25776, Note_on_c, 6, 61, 100
9, 25800, Note_off_c, 6, 61, 64
9, 25872, Note_on_c, 6, 61, 100
9, 25896, Note_off_c, 6, 61, 64
9, 25968, Note_on_c, 6, 61, 100
9, 25992, Note_off_c, 6, 61, 64
9, 26064, Note_on_c, 6, 61, 100
9, 26088, Note_off_c, 6, 61, 64
9, 26160, Note_on_c, 6, 61, 100
9, 26184, Note_off_c, 6, 61, 64
9, 26256, Note_on_c, 6, 61, 100
9, 26280, Note_off_c, 6, 61, 64
9, 26352, Note_on_c, 6, 61, 100
9, 26376, Note_off_c, 6, 61, 64
9, 26448, Note_on_c, 6, 61, 100
9, 26472, Note_off_c, 6, 61, 64
9, 26544, Note_on_c, 6, 61, 100
9, 26568, Note_off_c, 6, 61, 64
9, 26568, End_track
10, 0, Start_track
10, 0, Title_t, "normal"
10, 0, Program_c, 7, 0
10, 0, Program_c, 7, 0
10, 0, Note_on_c, 7, 0, 100
10, 0, Program_c, 7, 0
10, 96, Note_off_c, 7, 0, 64
10, 14592, Note_on_c, 7, 59, 100
10, 14592, Note_on_c, 7, 42, 100
10, 14592, Note_on_c, 7, 78, 100
10, 14784, Note_off_c, 7, 59, 64
10, 14784, Note_on_c, 7, 64, 100
10, 14880, Note_off_c, 7, 64, 64
10, 14880, Note_on_c, 7, 55, 100
10, 14976, Note_off_c, 7, 55, 64
10, 14976, Note_on_c, 7, 52, 100
10, 15072, Note_off_c, 7, 52, 64
10, 15072, Note_on_c, 7, 57, 100
10, 15168, Note_off_c, 7, 57, 64
10, 15168, Note_on_c, 7, 67, 100
10, 15360, Note_off_c, 7, 67, 64
10, 15360, Note_on_c, 7, 53, 100
10, 15552, Note_off_c, 7, 53, 64
10, 15552, Note_on_c, 7, 60, 100
10, 15744, Note_off_c, 7, 60, 64
10, 15744, Note_on_c, 7, 74, 100
10, 15936, Note_off_c, 7, 74, 64
10, 15936, Note_on_c, 7, 67, 100
10, 16128, Note_off_c, 7, 67, 64
10, 16128, Note_on_c, 7, 62, 100
10, 16320, Note_off_c, 7, 62, 64
10, 16320, Note_on_c, 7, 71, 100
10, 16416, Note_off_c, 7, 71, 64
10, 16416, Note_on_c, 7, 62, 100
10, 16512, Note_off_c, 7, 62, 64
10, 16512, Note_on_c, 7, 53, 100
10, 16608, Note_off_c, 7, 53, 64
10, 16608, Note_on_c, 7, 59, 100
10, 16704, Note_off_c, 7, 59, 64
10, 16704, Note_on_c, 7, 69, 100
10, 16896, Note_off_c, 7, 69, 64
10, 16896, Note_on_c, 7, 72, 100
10, 17088, Note_off_c, 7, 72, 64
10, 17088, Note_on_c, 7, 59, 100
10, 17280, Note_off_c, 7, 59, 64
10, 17280, Note_on_c, 7, 69, 100
10, 17472, Note_off_c, 7, 69, 64
10, 17472, Note_on_c, 7, 74, 100
10, 17664, Note_off_c, 7, 74, 64
10, 17664, Note_on_c, 7, 67, 100
10, 17856, Note_off_c, 7, 67, 64
10, 17856, Note_on_c, 7, 71, 100
10, 17952, Note_off_c, 7, 71, 64
10, 17952, Note_on_c, 7, 62, 100
10, 18048, Note_off_c, 7, 62, 64
10, 18048, Note_on_c, 7, 53, 100
10, 18144, Note_off_c, 7, 53, 64
10, 18144, Note_on_c, 7, 57, 100
10, 18240, Note_off_c, 7, 57, 64
10, 18240, Note_on_c, 7, 71, 100
10, 18432, Note_off_c, 7, 71, 64
10, 18432, Note_on_c, 7, 60, 100
10, 18624, Note_off_c, 7, 60, 64
10, 18624, Note_on_c, 7, 60, 100
10, 18816, Note_off_c, 7, 60, 64
10, 18816, Note_on_c, 7, 76, 100
10, 19008, Note_off_c, 7, 76, 64
10, 19008, Note_on_c, 7, 67, 100
10, 19200, Note_off_c, 7, 67, 64
10, 19200, Note_on_c, 7, 53, 100
10, 19392, Note_off_c, 7, 53, 64
10, 19392, Note_on_c, 7, 72, 100
10, 19488, Note_off_c, 7, 72, 64
10, 19488, Note_on_c, 7, 60, 100
10, 19584, Note_off_c, 7, 60, 64
10, 19584, Note_on_c, 7, 48, 100
10, 19680, Note_off_c, 7, 48, 64
10, 19680, Note_on_c, 7, 55, 100
10, 19776, Note_off_c, 7, 55, 64
10, 19776, Note_on_c, 7, 65, 100
10, 19968, Note_off_c, 7, 65, 64
10, 19968, Note_on_c, 7, 74, 100
10, 20160, Note_off_c, 7, 74, 64
10, 20160, Note_on_c, 7, 65, 100
10, 20352, Note_off_c, 7, 65, 64
10, 20352, Note_on_c, 7, 50, 100
10, 20544, Note_off_c, 7, 78, 64
10, 20544, Note_off_c, 7, 50, 64
10, 20544, Note_off_c, 7, 42, 64
10, 29122, Program_c, 7, 0
10, 29125, Program_c, 7, 0
10, 29125, End_track
11, 0, Start_track
11, 0, Title_t, "liee"
11, 0, Control_c, 8, 10, 64
11, 0, Control_c, 8, 7, 100
11, 0, Pitch_bend_c, 8, 8192
11, 0, Control_c, 8, 101, 0
11, 0, Control_c, 8, 100, 0
11, 0, Control_c, 8, 6, 12
11, 0, Control_c, 8, 10, 64
11, 0, Control_c, 8, 7, 100
11, 0, Pitch_bend_c, 8, 8192
11, 0, Control_c, 8, 101, 0
11, 0, Control_c, 8, 100, 0
11, 0, Control_c, 8, 6, 12
11, 0, Control_c, 8, 10, 64
11, 0, Control_c, 8, 7, 100
11, 0, Pitch_bend_c, 8, 8192
11, 0, Note_on_c, 8, 0, 100
11, 0, Control_c, 8, 101, 0
11, 0, Control_c, 8, 100, 0
11, 0, Control_c, 8, 6, 12
11, 0, Control_c, 8, 10, 64
11, 0, Control_c, 8, 7, 100
11, 0, Pitch_bend_c, 8, 8192
11, 96, Note_off_c, 8, 0, 64
11, 14772, Note_on_c, 8, 41, 100
11, 14964, Note_off_c, 8, 41, 64
11, 14964, Note_on_c, 8, 41, 100
11, 15156, Note_off_c, 8, 41, 64
11, 16308, Note_on_c, 8, 41, 100
11, 16692, Note_off_c, 8, 41, 64
11, 17844, Note_on_c, 8, 41, 100
11, 18036, Note_off_c, 8, 41, 64
11, 18036, Note_on_c, 8, 41, 100
11, 18228, Note_off_c, 8, 41, 64
11, 19380, Note_on_c, 8, 41, 100
11, 19764, Note_off_c, 8, 41, 64
11, 29122, Control_c, 8, 101, 0
11, 29122, Control_c, 8, 100, 0
11, 29122, Control_c, 8, 6, 12
11, 29122, Control_c, 8, 10, 64
11, 29122, Control_c, 8, 7, 100
11, 29122, Pitch_bend_c, 8, 8192
11, 29125, Control_c, 8, 101, 0
11, 29125, Control_c, 8, 100, 0
11, 29125, Control_c, 8, 6, 12
11, 29125, Control_c, 8, 10, 64
11, 29125, Control_c, 8, 7, 100
11, 29125, Pitch_bend_c, 8, 8192
11, 29125, End_track
12, 0, Start_track
12, 0, Title_t, "silence"
12, 0, Control_c, 9, 0, 1
12, 0, Control_c, 9, 32, 8
12, 0, Control_c, 9, 0, 1
12, 0, Control_c, 9, 32, 8
12, 0, Note_on_c, 9, 0, 100
12, 0, Control_c, 9, 0, 1
12, 0, Control_c, 9, 32, 8
12, 96, Note_off_c, 9, 0, 64
12, 15156, Note_on_c, 9, 61, 100
12, 15180, Note_off_c, 9, 61, 64
12, 16692, Note_on_c, 9, 61, 100
12, 16716, Note_off_c, 9, 61, 64
12, 17268, Note_on_c, 9, 62, 100
12, 17292, Note_off_c, 9, 62, 64
12, 18228, Note_on_c, 9, 61, 100
12, 18252, Note_off_c, 9, 61, 64
12, 20340, Note_on_c, 9, 60, 100
12, 20364, Note_off_c, 9, 60, 64
12, 29122, Control_c, 9, 0, 1
12, 29122, Control_c, 9, 32, 8
12, 29125, Control_c, 9, 0, 1
12, 29125, Control_c, 9, 32, 8
12, 29125, End_track
13, 0, Start_track
13, 0, Title_t, "cube"
13, 0, Note_on_c, 0, 0, 100
13, 96, Note_off_c, 0, 0, 64
13, 384, Note_on_c, 0, 59, 100
13, 384, Note_on_c, 0, 66, 100
13, 384, Note_on_c, 0, 65, 100
13, 384, Note_on_c, 0, 64, 100
13, 408, Note_off_c, 0, 65, 64
13, 408, Note_off_c, 0, 64, 64
13, 408, Note_on_c, 0, 64, 100
13, 408, Note_on_c, 0, 65, 100
13, 432, Note_off_c, 0, 65, 64
13, 432, Note_off_c, 0, 64, 64
13, 432, Note_on_c, 0, 64, 100
13, 432, Note_on_c, 0, 65, 100
13, 456, Note_off_c, 0, 65, 64
13, 456, Note_off_c, 0, 64, 64
13, 456, Note_on_c, 0, 64, 100
13, 456, Note_on_c, 0, 65, 100
13, 480, Note_off_c, 0, 65, 64
13, 480, Note_off_c, 0, 64, 64
13, 480, Note_on_c, 0, 65, 100
13, 480, Note_on_c, 0, 64, 100
13, 504, Note_off_c, 0, 64, 64
13, 504, Note_off_c, 0, 65, 64
13, 504, Note_on_c, 0, 60, 100
13, 504, Note_on_c, 0, 64, 100
13, 504, Note_on_c, 0, 65, 100
13, 528, Note_off_c, 0, 65, 64
13, 528, Note_off_c, 0, 64, 64
13, 528, Note_off_c, 0, 60, 64
13, 528, Note_on_c, 0, 60, 100
13, 528, Note_on_c, 0, 64, 100
13, 528, Note_on_c, 0, 65, 100
13, 552, Note_off_c, 0, 65, 64
13, 552, Note_off_c, 0, 64, 64
13, 552, Note_off_c, 0, 60, 64
13, 552, Note_on_c, 0, 60, 100
13, 552, Note_on_c, 0, 64, 100
13, 552, Note_on_c, 0, 65, 100
13, 576, Note_off_c, 0, 65, 64
13, 576, Note_off_c, 0, 64, 64
13, 576, Note_off_c, 0, 60, 64
13, 576, Note_on_c, 0, 60, 100
13, 576, Note_on_c, 0, 65, 100
13, 576, Note_on_c, 0, 64, 100
13, 600, Note_off_c, 0, 64, 64
13, 600, Note_off_c, 0, 65, 64
13, 600, Note_off_c, 0, 60, 64
13, 600, Note_on_c, 0, 64, 100
13, 600, Note_on_c, 0, 65, 100
13, 624, Note_off_c, 0, 65, 64
13, 624, Note_off_c, 0, 64, 64
13, 624, Note_on_c, 0, 64, 100
13, 624, Note_on_c, 0, 65, 100
13, 648, Note_off_c, 0, 65, 64
13, 648, Note_off_c, 0, 64, 64
13, 648, Note_on_c, 0, 64, 100
13, 648, Note_on_c, 0, 65, 100
13, 672, Note_off_c, 0, 65, 64
13, 672, Note_off_c, 0, 64, 64
13, 672, Note_on_c, 0, 65, 100
13, 672, Note_on_c, 0, 64, 100
13, 696, Note_off_c, 0, 64, 64
13, 696, Note_off_c, 0, 65, 64
13, 696, Note_on_c, 0, 60, 100
13, 696, Note_on_c, 0, 64, 100
13, 696, Note_on_c, 0, 65, 100
13, 720, Note_off_c, 0, 65, 64
13, 720, Note_off_c, 0, 64, 64
13, 720, Note_off_c, 0, 60, 64
13, 720, Note_on_c, 0, 60, 100
13, 720, Note_on_c, 0, 64, 100
13, 720, Note_on_c, 0, 65, 100
13, 744, Note_off_c, 0, 65, 64
13, 744, Note_off_c, 0, 64, 64
13, 744, Note_off_c, 0, 60, 64
13, 744, Note_on_c, 0, 60, 100
13, 744, Note_on_c, 0, 64, 100
13, 744, Note_on_c, 0, 65, 100
13, 768, Note_off_c, 0, 65, 64
13, 768, Note_off_c, 0, 64, 64
13, 768, Note_off_c, 0, 60, 64
13, 768, Note_on_c, 0, 60, 100
13, 768, Note_on_c, 0, 65, 100
13, 768, Note_on_c, 0, 64, 100
13, 792, Note_off_c, 0, 64, 64
13, 792, Note_off_c, 0, 65, 64
13, 792, Note_off_c, 0, 60, 64
13, 792, Note_on_c, 0, 64, 100
13, 792, Note_on_c, 0, 65, 100
13, 816, Note_off_c, 0, 65, 64
13, 816, Note_off_c, 0, 64, 64
13, 816, Note_on_c, 0, 64, 100
13, 816, Note_on_c, 0, 65, 100
13, 840, Note_off_c, 0, 65, 64
13, 840, Note_off_c, 0, 64, 64
13, 840, Note_on_c, 0, 64, 100
13, 840, Note_on_c, 0, 65, 100
13, 864, Note_off_c, 0, 65, 64
13, 864, Note_off_c, 0, 64, 64
13, 864, Note_on_c, 0, 65, 100
13, 864, Note_on_c, 0, 64, 100
13, 888, Note_off_c, 0, 64, 64
13, 888, Note_off_c, 0, 65, 64
13, 888, Note_on_c, 0, 60, 100
13, 888, Note_on_c, 0, 64, 100
13, 888, Note_on_c, 0, 65, 100
13, 912, Note_off_c, 0, 65, 64
13, 912, Note_off_c, 0, 64, 64
13, 912, Note_off_c, 0, 60, 64
13, 912, Note_on_c, 0, 60, 100
13, 912, Note_on_c, 0, 64, 100
13, 912, Note_on_c, 0, 65, 100
13, 936, Note_off_c, 0, 65, 64
13, 936, Note_off_c, 0, 64, 64
13, 936, Note_off_c, 0, 60, 64
13, 936, Note_on_c, 0, 60, 100
13, 936, Note_on_c, 0, 64, 100
13, 936, Note_on_c, 0, 65, 100
13, 960, Note_off_c, 0, 65, 64
13, 960, Note_off_c, 0, 64, 64
13, 960, Note_off_c, 0, 60, 64
13, 960, Note_on_c, 0, 60, 100
13, 960, Note_on_c, 0, 65, 100
13, 960, Note_on_c, 0, 64, 100
13, 984, Note_off_c, 0, 64, 64
13, 984, Note_off_c, 0, 65, 64
13, 984, Note_off_c, 0, 60, 64
13, 984, Note_on_c, 0, 64, 100
13, 984, Note_on_c, 0, 65, 100
13, 1008, Note_off_c, 0, 65, 64
13, 1008, Note_off_c, 0, 64, 64
13, 1008, Note_on_c, 0, 64, 100
13, 1008, Note_on_c, 0, 65, 100
13, 1032, Note_off_c, 0, 65, 64
13, 1032, Note_off_c, 0, 64, 64
13, 1032, Note_on_c, 0, 64, 100
13, 1032, Note_on_c, 0, 65, 100
13, 1056, Note_off_c, 0, 65, 64
13, 1056, Note_off_c, 0, 64, 64
13, 1056, Note_on_c, 0, 65, 100
13, 1056, Note_on_c, 0, 64, 100
13, 1080, Note_off_c, 0, 64, 64
13, 1080, Note_off_c, 0, 65, 64
13, 1080, Note_on_c, 0, 60, 100
13, 1080, Note_on_c, 0, 64, 100
13, 1080, Note_on_c, 0, 65, 100
13, 1104, Note_off_c, 0, 65, 64
13, 1104, Note_off_c, 0, 64, 64
13, 1104, Note_off_c, 0, 60, 64
13, 1104, Note_on_c, 0, 60, 100
13, 1104, Note_on_c, 0, 64, 100
13, 1104, Note_on_c, 0, 65, 100
13, 1128, Note_off_c, 0, 65, 64
13, 1128, Note_off_c, 0, 64, 64
13, 1128, Note_off_c, 0, 60, 64
13, 1128, Note_on_c, 0, 60, 100
13, 1128, Note_on_c, 0, 64, 100
13, 1128, Note_on_c, 0, 65, 100
13, 1152, Note_off_c, 0, 65, 64
13, 1152, Note_off_c, 0, 64, 64
13, 1152, Note_off_c, 0, 60, 64
13, 1152, Note_on_c, 0, 60, 100
13, 1152, Note_on_c, 0, 65, 100
13, 1152, Note_on_c, 0, 64, 100
13, 1176, Note_off_c, 0, 64, 64
13, 1176, Note_off_c, 0, 65, 64
13, 1176, Note_off_c, 0, 60, 64
13, 1176, Note_on_c, 0, 64, 100
13, 1176, Note_on_c, 0, 65, 100
13, 1200, Note_off_c, 0, 65, 64
13, 1200, Note_off_c, 0, 64, 64
13, 1200, Note_on_c, 0, 64, 100
13, 1200, Note_on_c, 0, 65, 100
13, 1224, Note_off_c, 0, 65, 64
13, 1224, Note_off_c, 0, 64, 64
13, 1224, Note_on_c, 0, 64, 100
13, 1224, Note_on_c, 0, 65, 100
13, 1248, Note_off_c, 0, 65, 64
13, 1248, Note_off_c, 0, 64, 64
13, 1248, Note_on_c, 0, 65, 100
13, 1248, Note_on_c, 0, 64, 100
13, 1272, Note_off_c, 0, 64, 64
13, 1272, Note_off_c, 0, 65, 64
13, 1272, Note_on_c, 0, 60, 100
13, 1272, Note_on_c, 0, 64, 100
13, 1272, Note_on_c, 0, 65, 100
13, 1296, Note_off_c, 0, 65, 64
13, 1296, Note_off_c, 0, 64, 64
13, 1296, Note_off_c, 0, 60, 64
13, 1296, Note_on_c, 0, 60, 100
13, 1296, Note_on_c, 0, 64, 100
13, 1296, Note_on_c, 0, 65, 100
13, 1320, Note_off_c, 0, 65, 64
13, 1320, Note_off_c, 0, 64, 64
13, 1320, Note_off_c, 0, 60, 64
13, 1320, Note_on_c, 0, 60, 100
13, 1320, Note_on_c, 0, 64, 100
13, 1320, Note_on_c, 0, 65, 100
13, 1344, Note_off_c, 0, 65, 64
13, 1344, Note_off_c, 0, 64, 64
13, 1344, Note_off_c, 0, 60, 64
13, 1344, Note_on_c, 0, 60, 100
13, 1344, Note_on_c, 0, 65, 100
13, 1344, Note_on_c, 0, 64, 100
13, 1368, Note_off_c, 0, 64, 64
13, 1368, Note_off_c, 0, 65, 64
13, 1368, Note_off_c, 0, 60, 64
13, 1368, Note_on_c, 0, 64, 100
13, 1368, Note_on_c, 0, 65, 100
13, 1392, Note_off_c, 0, 65, 64
13, 1392, Note_off_c, 0, 64, 64
13, 1392, Note_on_c, 0, 64, 100
13, 1392, Note_on_c, 0, 65, 100
13, 1416, Note_off_c, 0, 65, 64
13, 1416, Note_off_c, 0, 64, 64
13, 1416, Note_on_c, 0, 64, 100
13, 1416, Note_on_c, 0, 65, 100
13, 1440, Note_off_c, 0, 65, 64
13, 1440, Note_off_c, 0, 64, 64
13, 1440, Note_on_c, 0, 65, 100
13, 1440, Note_on_c, 0, 64, 100
13, 1464, Note_off_c, 0, 64, 64
13, 1464, Note_off_c, 0, 65, 64
13, 1464, Note_on_c, 0, 60, 100
13, 1464, Note_on_c, 0, 64, 100
13, 1464, Note_on_c, 0, 65, 100
13, 1488, Note_off_c, 0, 65, 64
13, 1488, Note_off_c, 0, 64, 64
13, 1488, Note_off_c, 0, 60, 64
13, 1488, Note_on_c, 0, 60, 100
13, 1488, Note_on_c, 0, 64, 100
13, 1488, Note_on_c, 0, 65, 100
13, 1512, Note_off_c, 0, 65, 64
13, 1512, Note_off_c, 0, 64, 64
13, 1512, Note_off_c, 0, 60, 64
13, 1512, Note_on_c, 0, 60, 100
13, 1512, Note_on_c, 0, 64, 100
13, 1512, Note_on_c, 0, 65, 100
13, 1536, Note_off_c, 0, 65, 64
13, 1536, Note_off_c, 0, 64, 64
13, 1536, Note_off_c, 0, 60, 64
13, 1536, Note_on_c, 0, 60, 100
13, 1536, Note_on_c, 0, 65, 100
13, 1536, Note_on_c, 0, 64, 100
13, 1560, Note_off_c, 0, 64, 64
13, 1560, Note_off_c, 0, 65, 64
13, 1560, Note_off_c, 0, 60, 64
13, 1560, Note_on_c, 0, 64, 100
13, 1560, Note_on_c, 0, 65, 100
13, 1584, Note_off_c, 0, 65, 64
13, 1584, Note_off_c, 0, 64, 64
13, 1584, Note_on_c, 0, 64, 100
13, 1584, Note_on_c, 0, 65, 100
13, 1608, Note_off_c, 0, 65, 64
13, 1608, Note_off_c, 0, 64, 64
13, 1608, Note_on_c, 0, 64, 100
13, 1608, Note_on_c, 0, 65, 100
13, 1632, Note_off_c, 0, 65, 64
13, 1632, Note_off_c, 0, 64, 64
13, 1632, Note_on_c, 0, 65, 100
13, 1632, Note_on_c, 0, 64, 100
13, 1656, Note_off_c, 0, 64, 64
13, 1656, Note_off_c, 0, 65, 64
13, 1656, Note_on_c, 0, 60, 100
13, 1656, Note_on_c, 0, 64, 100
13, 1656, Note_on_c, 0, 65, 100
13, 1680, Note_off_c, 0, 65, 64
13, 1680, Note_off_c, 0, 64, 64
13, 1680, Note_off_c, 0, 60, 64
13, 1680, Note_on_c, 0, 60, 100
13, 1680, Note_on_c, 0, 64, 100
13, 1680, Note_on_c, 0, 65, 100
13, 1704, Note_off_c, 0, 65, 64
13, 1704, Note_off_c, 0, 64, 64
13, 1704, Note_off_c, 0, 60, 64
13, 1704, Note_on_c, 0, 60, 100
13, 1704, Note_on_c, 0, 64, 100
13, 1704, Note_on_c, 0, 65, 100
13, 1728, Note_off_c, 0, 65, 64
13, 1728, Note_off_c, 0, 64, 64
13, 1728, Note_off_c, 0, 60, 64
13, 1728, Note_on_c, 0, 60, 100
13, 1728, Note_on_c, 0, 65, 100
13, 1728, Note_on_c, 0, 64, 100
13, 1752, Note_off_c, 0, 64, 64
13, 1752, Note_off_c, 0, 65, 64
13, 1752, Note_off_c, 0, 60, 64
13, 1752, Note_on_c, 0, 64, 100
13, 1752, Note_on_c, 0, 65, 100
13, 1776, Note_off_c, 0, 65, 64
13, 1776, Note_off_c, 0, 64, 64
13, 1776, Note_on_c, 0, 64, 100
13, 1776, Note_on_c, 0, 65, 100
13, 1800, Note_off_c, 0, 65, 64
13, 1800, Note_off_c, 0, 64, 64
13, 1800, Note_on_c, 0, 64, 100
13, 1800, Note_on_c, 0, 65, 100
13, 1824, Note_off_c, 0, 65, 64
13, 1824, Note_off_c, 0, 64, 64
13, 1824, Note_on_c, 0, 65, 100
13, 1824, Note_on_c, 0, 64, 100
13, 1848, Note_off_c, 0, 64, 64
13, 1848, Note_off_c, 0, 65, 64
13, 1848, Note_on_c, 0, 60, 100
13, 1848, Note_on_c, 0, 64, 100
13, 1848, Note_on_c, 0, 65, 100
13, 1872, Note_off_c, 0, 65, 64
13, 1872, Note_off_c, 0, 64, 64
13, 1872, Note_off_c, 0, 60, 64
13, 1872, Note_on_c, 0, 60, 100
13, 1872, Note_on_c, 0, 64, 100
13, 1872, Note_on_c, 0, 65, 100
13, 1896, Note_off_c, 0, 65, 64
13, 1896, Note_off_c, 0, 64, 64
13, 1896, Note_off_c, 0, 60, 64
13, 1896, Note_on_c, 0, 60, 100
13, 1896, Note_on_c, 0, 64, 100
13, 1896, Note_on_c, 0, 65, 100
13, 1920, Note_off_c, 0, 65, 64
13, 1920, Note_off_c, 0, 64, 64
13, 1920, Note_off_c, 0, 60, 64
13, 1920, Note_on_c, 0, 65, 100
13, 1920, Note_on_c, 0, 64, 100
13, 1920, Note_on_c, 0, 60, 100
13, 1944, Note_off_c, 0, 60, 64
13, 1944, Note_off_c, 0, 64, 64
13, 1944, Note_off_c, 0, 65, 64
13, 1944, Note_on_c, 0, 61, 100
13, 1944, Note_on_c, 0, 64, 100
13, 1944, Note_on_c, 0, 65, 100
13, 1944, Note_on_c, 0, 60, 100
13, 1968, Note_off_c, 0, 60, 64
13, 1968, Note_off_c, 0, 65, 64
13, 1968, Note_off_c, 0, 64, 64
13, 1968, Note_off_c, 0, 61, 64
13, 1968, Note_on_c, 0, 61, 100
13, 1968, Note_on_c, 0, 64, 100
13, 1968, Note_on_c, 0, 65, 100
13, 1968, Note_on_c, 0, 60, 100
13, 1992, Note_off_c, 0, 60, 64
13, 1992, Note_off_c, 0, 65, 64
13, 1992, Note_off_c, 0, 64, 64
13, 1992, Note_off_c, 0, 61, 64
13, 1992, Note_on_c, 0, 61, 100
13, 1992, Note_on_c, 0, 64, 100
13, 1992, Note_on_c, 0, 65, 100
13, 1992, Note_on_c, 0, 60, 100
13, 2016, Note_off_c, 0, 60, 64
13, 2016, Note_off_c, 0, 65, 64
13, 2016, Note_off_c, 0, 64, 64
13, 2016, Note_off_c, 0, 61, 64
13, 2016, Note_on_c, 0, 61, 100
13, 2016, Note_on_c, 0, 65, 100
13, 2016, Note_on_c, 0, 64, 100
13, 2016, Note_on_c, 0, 60, 100
13, 2040, Note_off_c, 0, 60, 64
13, 2040, Note_off_c, 0, 64, 64
13, 2040, Note_off_c, 0, 65, 64
13, 2040, Note_off_c, 0, 61, 64
13, 2040, Note_on_c, 0, 64, 100
13, 2040, Note_on_c, 0, 65, 100
13, 2040, Note_on_c, 0, 60, 100
13, 2064, Note_off_c, 0, 60, 64
13, 2064, Note_off_c, 0, 65, 64
13, 2064, Note_off_c, 0, 64, 64
13, 2064, Note_on_c, 0, 64, 100
13, 2064, Note_on_c, 0, 65, 100
13, 2064, Note_on_c, 0, 60, 100
13, 2088, Note_off_c, 0, 60, 64
13, 2088, Note_off_c, 0, 65, 64
13, 2088, Note_off_c, 0, 64, 64
13, 2088, Note_on_c, 0, 64, 100
13, 2088, Note_on_c, 0, 65, 100
13, 2088, Note_on_c, 0, 60, 100
13, 2112, Note_off_c, 0, 60, 64
13, 2112, Note_off_c, 0, 65, 64
13, 2112, Note_off_c, 0, 64, 64
13, 2112, Note_on_c, 0, 65, 100
13, 2112, Note_on_c, 0, 64, 100
13, 2112, Note_on_c, 0, 60, 100
13, 2136, Note_off_c, 0, 60, 64
13, 2136, Note_off_c, 0, 64, 64
13, 2136, Note_off_c, 0, 65, 64
13, 2136, Note_on_c, 0, 61, 100
13, 2136, Note_on_c, 0, 64, 100
13, 2136, Note_on_c, 0, 65, 100
13, 2136, Note_on_c, 0, 60, 100
13, 2160, Note_off_c, 0, 60, 64
13, 2160, Note_off_c, 0, 65, 64
13, 2160, Note_off_c, 0, 64, 64
13, 2160, Note_off_c, 0, 61, 64
13, 2160, Note_on_c, 0, 61, 100
13, 2160, Note_on_c, 0, 64, 100
13, 2160, Note_on_c, 0, 65, 100
13, 2160, Note_on_c, 0, 60, 100
13, 2184, Note_off_c, 0, 60, 64
13, 2184, Note_off_c, 0, 65, 64
13, 2184, Note_off_c, 0, 64, 64
13, 2184, Note_off_c, 0, 61, 64
13, 2184, Note_on_c, 0, 61, 100
13, 2184, Note_on_c, 0, 64, 100
13, 2184, Note_on_c, 0, 65, 100
13, 2184, Note_on_c, 0, 60, 100
13, 2208, Note_off_c, 0, 60, 64
13, 2208, Note_off_c, 0, 65, 64
13, 2208, Note_off_c, 0, 64, 64
13, 2208, Note_off_c, 0, 61, 64
13, 2208, Note_on_c, 0, 61, 100
13, 2208, Note_on_c, 0, 65, 100
13, 2208, Note_on_c, 0, 64, 100
13, 2208, Note_on_c, 0, 60, 100
13, 2232, Note_off_c, 0, 60, 64
13, 2232, Note_off_c, 0, 64, 64
13, 2232, Note_off_c, 0, 65, 64
13, 2232, Note_off_c, 0, 61, 64
13, 2232, Note_on_c, 0, 64, 100
13, 2232, Note_on_c, 0, 65, 100
13, 2232, Note_on_c, 0, 60, 100
13, 2256, Note_off_c, 0, 60, 64
13, 2256, Note_off_c, 0, 65, 64
13, 2256, Note_off_c, 0, 64, 64
13, 2256, Note_on_c, 0, 64, 100
13, 2256, Note_on_c, 0, 65, 100
13, 2256, Note_on_c, 0, 60, 100
13, 2280, Note_off_c, 0, 60, 64
13, 2280, Note_off_c, 0, 65, 64
13, 2280, Note_off_c, 0, 64, 64
13, 2280, Note_on_c, 0, 64, 100
13, 2280, Note_on_c, 0, 65, 100
13, 2280, Note_on_c, 0, 60, 100
13, 2304, Note_off_c, 0, 60, 64
13, 2304, Note_off_c, 0, 65, 64
13, 2304, Note_off_c, 0, 64, 64
13, 2304, Note_on_c, 0, 60, 100
13, 2304, Note_on_c, 0, 65, 100
13, 2304, Note_on_c, 0, 64, 100
13, 2328, Note_off_c, 0, 64, 64
13, 2328, Note_off_c, 0, 65, 64
13, 2328, Note_off_c, 0, 60, 64
13, 2328, Note_on_c, 0, 64, 100
13, 2328, Note_on_c, 0, 65, 100
13, 2352, Note_off_c, 0, 65, 64
13, 2352, Note_off_c, 0, 64, 64
13, 2352, Note_on_c, 0, 64, 100
13, 2352, Note_on_c, 0, 65, 100
13, 2376, Note_off_c, 0, 65, 64
13, 2376, Note_off_c, 0, 64, 64
13, 2376, Note_on_c, 0, 64, 100
13, 2376, Note_on_c, 0, 65, 100
13, 2400, Note_off_c, 0, 65, 64
13, 2400, Note_off_c, 0, 64, 64
13, 2400, Note_on_c, 0, 65, 100
13, 2400, Note_on_c, 0, 64, 100
13, 2424, Note_off_c, 0, 64, 64
13, 2424, Note_off_c, 0, 65, 64
13, 2424, Note_on_c, 0, 60, 100
13, 2424, Note_on_c, 0, 64, 100
13, 2424, Note_on_c, 0, 65, 100
13, 2448, Note_off_c, 0, 65, 64
13, 2448, Note_off_c, 0, 64, 64
13, 2448, Note_off_c, 0, 60, 64
13, 2448, Note_on_c, 0, 60, 100
13, 2448, Note_on_c, 0, 64, 100
13, 2448, Note_on_c, 0, 65, 100
13, 2472, Note_off_c, 0, 65, 64
13, 2472, Note_off_c, 0, 64, 64
13, 2472, Note_off_c, 0, 60, 64
13, 2472, Note_on_c, 0, 60, 100
13, 2472, Note_on_c, 0, 64, 100
13, 2472, Note_on_c, 0, 65, 100
13, 2496, Note_off_c, 0, 65, 64
13, 2496, Note_off_c, 0, 64, 64
13, 2496, Note_off_c, 0, 60, 64
13, 2496, Note_on_c, 0, 60, 100
13, 2496, Note_on_c, 0, 65, 100
13, 2496, Note_on_c, 0, 64, 100
13, 2520, Note_off_c, 0, 64, 64
13, 2520, Note_off_c, 0, 65, 64
13, 2520, Note_off_c, 0, 60, 64
13, 2520, Note_on_c, 0, 64, 100
13, 2520, Note_on_c, 0, 65, 100
13, 2544, Note_off_c, 0, 65, 64
13, 2544, Note_off_c, 0, 64, 64
13, 2544, Note_on_c, 0, 64, 100
13, 2544, Note_on_c, 0, 65, 100
13, 2568, Note_off_c, 0, 65, 64
13, 2568, Note_off_c, 0, 64, 64
13, 2568, Note_on_c, 0, 64, 100
13, 2568, Note_on_c, 0, 65, 100
13, 2592, Note_off_c, 0, 65, 64
13, 2592, Note_off_c, 0, 64, 64
13, 2592, Note_on_c, 0, 65, 100
13, 2592, Note_on_c, 0, 64, 100
13, 2616, Note_off_c, 0, 64, 64
13, 2616, Note_off_c, 0, 65, 64
13, 2616, Note_on_c, 0, 60, 100
13, 2616, Note_on_c, 0, 64, 100
13, 2616, Note_on_c, 0, 65, 100
13, 2640, Note_off_c, 0, 65, 64
13, 2640, Note_off_c, 0, 64, 64
13, 2640, Note_off_c, 0, 60, 64
13, 2640, Note_on_c, 0, 60, 100
13, 2640, Note_on_c, 0, 64, 100
13, 2640, Note_on_c, 0, 65, 100
13, 2664, Note_off_c, 0, 65, 64
13, 2664, Note_off_c, 0, 64, 64
13, 2664, Note_off_c, 0, 60, 64
13, 2664, Note_on_c, 0, 60, 100
13, 2664, Note_on_c, 0, 64, 100
13, 2664, Note_on_c, 0, 65, 100
13, 2688, Note_off_c, 0, 65, 64
13, 2688, Note_off_c, 0, 64, 64
13, 2688, Note_off_c, 0, 60, 64
13, 2688, Note_on_c, 0, 65, 100
13, 2688, Note_on_c, 0, 64, 100
13, 2688, Note_on_c, 0, 60, 100
13, 2712, Note_off_c, 0, 60, 64
13, 2712, Note_off_c, 0, 64, 64
13, 2712, Note_off_c, 0, 65, 64
13, 2712, Note_on_c, 0, 61, 100
13, 2712, Note_on_c, 0, 64, 100
13, 2712, Note_on_c, 0, 65, 100
13, 2712, Note_on_c, 0, 60, 100
13, 2736, Note_off_c, 0, 60, 64
13, 2736, Note_off_c, 0, 65, 64
13, 2736, Note_off_c, 0, 64, 64
13, 2736, Note_off_c, 0, 61, 64
13, 2736, Note_on_c, 0, 61, 100
13, 2736, Note_on_c, 0, 64, 100
13, 2736, Note_on_c, 0, 65, 100
13, 2736, Note_on_c, 0, 60, 100
13, 2760, Note_off_c, 0, 60, 64
13, 2760, Note_off_c, 0, 65, 64
13, 2760, Note_off_c, 0, 64, 64
13, 2760, Note_off_c, 0, 61, 64
13, 2760, Note_on_c, 0, 61, 100
13, 2760, Note_on_c, 0, 64, 100
13, 2760, Note_on_c, 0, 65, 100
13, 2760, Note_on_c, 0, 60, 100
13, 2784, Note_off_c, 0, 60, 64
13, 2784, Note_off_c, 0, 65, 64
13, 2784, Note_off_c, 0, 64, 64
13, 2784, Note_off_c, 0, 61, 64
13, 2784, Note_on_c, 0, 61, 100
13, 2784, Note_on_c, 0, 65, 100
13, 2784, Note_on_c, 0, 64, 100
13, 2784, Note_on_c, 0, 60, 100
13, 2808, Note_off_c, 0, 60, 64
13, 2808, Note_off_c, 0, 64, 64
13, 2808, Note_off_c, 0, 65, 64
13, 2808, Note_off_c, 0, 61, 64
13, 2808, Note_on_c, 0, 64, 100
13, 2808, Note_on_c, 0, 65, 100
13, 2808, Note_on_c, 0, 60, 100
13, 2832, Note_off_c, 0, 60, 64
13, 2832, Note_off_c, 0, 65, 64
13, 2832, Note_off_c, 0, 64, 64
13, 2832, Note_on_c, 0, 64, 100
13, 2832, Note_on_c, 0, 65, 100
13, 2832, Note_on_c, 0, 60, 100
13, 2856, Note_off_c, 0, 60, 64
13, 2856, Note_off_c, 0, 65, 64
13, 2856, Note_off_c, 0, 64, 64
13, 2856, Note_on_c, 0, 64, 100
13, 2856, Note_on_c, 0, 65, 100
13, 2856, Note_on_c, 0, 60, 100
13, 2880, Note_off_c, 0, 60, 64
13, 2880, Note_off_c, 0, 65, 64
13, 2880, Note_off_c, 0, 64, 64
13, 2880, Note_on_c, 0, 65, 100
13, 2880, Note_on_c, 0, 64, 100
13, 2880, Note_on_c, 0, 60, 100
13, 2904, Note_off_c, 0, 60, 64
13, 2904, Note_off_c, 0, 64, 64
13, 2904, Note_off_c, 0, 65, 64
13, 2904, Note_on_c, 0, 61, 100
13, 2904, Note_on_c, 0, 64, 100
13, 2904, Note_on_c, 0, 65, 100
13, 2904, Note_on_c, 0, 60, 100
13, 2928, Note_off_c, 0, 60, 64
13, 2928, Note_off_c, 0, 65, 64
13, 2928, Note_off_c, 0, 64, 64
13, 2928, Note_off_c, 0, 61, 64
13, 2928, Note_on_c, 0, 61, 100
13, 2928, Note_on_c, 0, 64, 100
13, 2928, Note_on_c, 0, 65, 100
13, 2928, Note_on_c, 0, 60, 100
13, 2952, Note_off_c, 0, 60, 64
13, 2952, Note_off_c, 0, 65, 64
13, 2952, Note_off_c, 0, 64, 64
13, 2952, Note_off_c, 0, 61, 64
13, 2952, Note_on_c, 0, 61, 100
13, 2952, Note_on_c, 0, 64, 100
13, 2952, Note_on_c, 0, 65, 100
13, 2952, Note_on_c, 0, 60, 100
13, 2976, Note_off_c, 0, 60, 64
13, 2976, Note_off_c, 0, 65, 64
13, 2976, Note_off_c, 0, 64, 64
13, 2976, Note_off_c, 0, 61, 64
13, 2976, Note_on_c, 0, 61, 100
13, 2976, Note_on_c, 0, 65, 100
13, 2976, Note_on_c, 0, 64, 100
13, 2976, Note_on_c, 0, 60, 100
13, 3000, Note_off_c, 0, 60, 64
13, 3000, Note_off_c, 0, 64, 64
13, 3000, Note_off_c, 0, 65, 64
13, 3000, Note_off_c, 0, 61, 64
13, 3000, Note_on_c, 0, 64, 100
13, 3000, Note_on_c, 0, 65, 100
13, 3000, Note_on_c, 0, 60, 100
13, 3024, Note_off_c, 0, 60, 64
13, 3024, Note_off_c, 0, 65, 64
13, 3024, Note_off_c, 0, 64, 64
13, 3024, Note_on_c, 0, 64, 100
13, 3024, Note_on_c, 0, 65, 100
13, 3024, Note_on_c, 0, 60, 100
13, 3048, Note_off_c, 0, 60, 64
13, 3048, Note_off_c, 0, 65, 64
13, 3048, Note_off_c, 0, 64, 64
13, 3048, Note_on_c, 0, 64, 100
13, 3048, Note_on_c, 0, 65, 100
13, 3048, Note_on_c, 0, 60, 100
13, 3072, Note_off_c, 0, 60, 64
13, 3072, Note_off_c, 0, 65, 64
13, 3072, Note_off_c, 0, 64, 64
13, 3072, Note_on_c, 0, 60, 100
13, 3072, Note_on_c, 0, 65, 100
13, 3072, Note_on_c, 0, 64, 100
13, 3096, Note_off_c, 0, 64, 64
13, 3096, Note_off_c, 0, 65, 64
13, 3096, Note_off_c, 0, 60, 64
13, 3096, Note_on_c, 0, 64, 100
13, 3096, Note_on_c, 0, 65, 100
13, 3120, Note_off_c, 0, 65, 64
13, 3120, Note_off_c, 0, 64, 64
13, 3120, Note_on_c, 0, 64, 100
13, 3120, Note_on_c, 0, 65, 100
13, 3144, Note_off_c, 0, 65, 64
13, 3144, Note_off_c, 0, 64, 64
13, 3144, Note_on_c, 0, 64, 100
13, 3144, Note_on_c, 0, 65, 100
13, 3168, Note_off_c, 0, 65, 64
13, 3168, Note_off_c, 0, 64, 64
13, 3168, Note_on_c, 0, 65, 100
13, 3168, Note_on_c, 0, 64, 100
13, 3192, Note_off_c, 0, 64, 64
13, 3192, Note_off_c, 0, 65, 64
13, 3192, Note_on_c, 0, 60, 100
13, 3192, Note_on_c, 0, 64, 100
13, 3192, Note_on_c, 0, 65, 100
13, 3216, Note_off_c, 0, 65, 64
13, 3216, Note_off_c, 0, 64, 64
13, 3216, Note_off_c, 0, 60, 64
13, 3216, Note_on_c, 0, 60, 100
13, 3216, Note_on_c, 0, 64, 100
13, 3216, Note_on_c, 0, 65, 100
13, 3240, Note_off_c, 0, 65, 64
13, 3240, Note_off_c, 0, 64, 64
13, 3240, Note_off_c, 0, 60, 64
13, 3240, Note_on_c, 0, 60, 100
13, 3240, Note_on_c, 0, 64, 100
13, 3240, Note_on_c, 0, 65, 100
13, 3264, Note_off_c, 0, 65, 64
13, 3264, Note_off_c, 0, 64, 64
13, 3264, Note_off_c, 0, 60, 64
13, 3264, Note_on_c, 0, 60, 100
13, 3264, Note_on_c, 0, 65, 100
13, 3264, Note_on_c, 0, 64, 100
13, 3288, Note_off_c, 0, 64, 64
13, 3288, Note_off_c, 0, 65, 64
13, 3288, Note_off_c, 0, 60, 64
13, 3288, Note_on_c, 0, 64, 100
13, 3288, Note_on_c, 0, 65, 100
13, 3312, Note_off_c, 0, 65, 64
13, 3312, Note_off_c, 0, 64, 64
13, 3312, Note_on_c, 0, 64, 100
13, 3312, Note_on_c, 0, 65, 100
13, 3336, Note_off_c, 0, 65, 64
13, 3336, Note_off_c, 0, 64, 64
13, 3336, Note_on_c, 0, 64, 100
13, 3336, Note_on_c, 0, 65, 100
13, 3360, Note_off_c, 0, 65, 64
13, 3360, Note_off_c, 0, 64, 64
13, 3360, Note_on_c, 0, 65, 100
13, 3360, Note_on_c, 0, 64, 100
13, 3384, Note_off_c, 0, 64, 64
13, 3384, Note_off_c, 0, 65, 64
13, 3384, Note_on_c, 0, 60, 100
13, 3384, Note_on_c, 0, 64, 100
13, 3384, Note_on_c, 0, 65, 100
13, 3408, Note_off_c, 0, 65, 64
13, 3408, Note_off_c, 0, 64, 64
13, 3408, Note_off_c, 0, 60, 64
13, 3408, Note_on_c, 0, 60, 100
13, 3408, Note_on_c, 0, 64, 100
13, 3408, Note_on_c, 0, 65, 100
13, 3432, Note_off_c, 0, 65, 64
13, 3432, Note_off_c, 0, 64, 64
13, 3432, Note_off_c, 0, 60, 64
13, 3432, Note_on_c, 0, 60, 100
13, 3432, Note_on_c, 0, 64, 100
13, 3432, Note_on_c, 0, 65, 100
13, 3456, Note_off_c, 0, 65, 64
13, 3456, Note_off_c, 0, 64, 64
13, 3456, Note_off_c, 0, 60, 64
13, 3456, Note_on_c, 0, 65, 100
13, 3456, Note_on_c, 0, 64, 100
13, 3456, Note_on_c, 0, 60, 100
13, 3480, Note_off_c, 0, 60, 64
13, 3480, Note_off_c, 0, 64, 64
13, 3480, Note_off_c, 0, 65, 64
13, 3480, Note_on_c, 0, 61, 100
13, 3480, Note_on_c, 0, 64, 100
13, 3480, Note_on_c, 0, 65, 100
13, 3480, Note_on_c, 0, 60, 100
13, 3504, Note_off_c, 0, 60, 64
13, 3504, Note_off_c, 0, 65, 64
13, 3504, Note_off_c, 0, 64, 64
13, 3504, Note_off_c, 0, 61, 64
13, 3504, Note_on_c, 0, 61, 100
13, 3504, Note_on_c, 0, 64, 100
13, 3504, Note_on_c, 0, 65, 100
13, 3504, Note_on_c, 0, 60, 100
13, 3528, Note_off_c, 0, 60, 64
13, 3528, Note_off_c, 0, 65, 64
13, 3528, Note_off_c, 0, 64, 64
13, 3528, Note_off_c, 0, 61, 64
13, 3528, Note_on_c, 0, 61, 100
13, 3528, Note_on_c, 0, 64, 100
13, 3528, Note_on_c, 0, 65, 100
13, 3528, Note_on_c, 0, 60, 100
13, 3552, Note_off_c, 0, 60, 64
13, 3552, Note_off_c, 0, 65, 64
13, 3552, Note_off_c, 0, 64, 64
13, 3552, Note_off_c, 0, 61, 64
13, 3552, Note_on_c, 0, 61, 100
13, 3552, Note_on_c, 0, 65, 100
13, 3552, Note_on_c, 0, 64, 100
13, 3552, Note_on_c, 0, 60, 100
13, 3576, Note_off_c, 0, 60, 64
13, 3576, Note_off_c, 0, 64, 64
13, 3576, Note_off_c, 0, 65, 64
13, 3576, Note_off_c, 0, 61, 64
13, 3576, Note_on_c, 0, 64, 100
13, 3576, Note_on_c, 0, 65, 100
13, 3576, Note_on_c, 0, 60, 100
13, 3600, Note_off_c, 0, 60, 64
13, 3600, Note_off_c, 0, 65, 64
13, 3600, Note_off_c, 0, 64, 64
13, 3600, Note_on_c, 0, 64, 100
13, 3600, Note_on_c, 0, 65, 100
13, 3600, Note_on_c, 0, 60, 100
13, 3624, Note_off_c, 0, 60, 64
13, 3624, Note_off_c, 0, 65, 64
13, 3624, Note_off_c, 0, 64, 64
13, 3624, Note_on_c, 0, 64, 100
13, 3624, Note_on_c, 0, 65, 100
13, 3624, Note_on_c, 0, 60, 100
13, 3648, Note_off_c, 0, 60, 64
13, 3648, Note_off_c, 0, 65, 64
13, 3648, Note_off_c, 0, 64, 64
13, 3648, Note_on_c, 0, 65, 100
13, 3648, Note_on_c, 0, 64, 100
13, 3648, Note_on_c, 0, 60, 100
13, 3672, Note_off_c, 0, 60, 64
13, 3672, Note_off_c, 0, 64, 64
13, 3672, Note_off_c, 0, 65, 64
13, 3672, Note_on_c, 0, 61, 100
13, 3672, Note_on_c, 0, 64, 100
13, 3672, Note_on_c, 0, 65, 100
13, 3672, Note_on_c, 0, 60, 100
13, 3696, Note_off_c, 0, 60, 64
13, 3696, Note_off_c, 0, 65, 64
13, 3696, Note_off_c, 0, 64, 64
13, 3696, Note_off_c, 0, 61, 64
13, 3696, Note_on_c, 0, 61, 100
13, 3696, Note_on_c, 0, 64, 100
13, 3696, Note_on_c, 0, 65, 100
13, 3696, Note_on_c, 0, 60, 100
13, 3720, Note_off_c, 0, 60, 64
13, 3720, Note_off_c, 0, 65, 64
13, 3720, Note_off_c, 0, 64, 64
13, 3720, Note_off_c, 0, 61, 64
13, 3720, Note_on_c, 0, 61, 100
13, 3720, Note_on_c, 0, 64, 100
13, 3720, Note_on_c, 0, 65, 100
13, 3720, Note_on_c, 0, 60, 100
13, 3744, Note_off_c, 0, 60, 64
13, 3744, Note_off_c, 0, 65, 64
13, 3744, Note_off_c, 0, 64, 64
13, 3744, Note_off_c, 0, 61, 64
13, 3744, Note_on_c, 0, 61, 100
13, 3744, Note_on_c, 0, 65, 100
13, 3744, Note_on_c, 0, 64, 100
13, 3744, Note_on_c, 0, 60, 100
13, 3768, Note_off_c, 0, 60, 64
13, 3768, Note_off_c, 0, 64, 64
13, 3768, Note_off_c, 0, 65, 64
13, 3768, Note_off_c, 0, 61, 64
13, 3768, Note_on_c, 0, 64, 100
13, 3768, Note_on_c, 0, 65, 100
13, 3768, Note_on_c, 0, 60, 100
13, 3792, Note_off_c, 0, 60, 64
13, 3792, Note_off_c, 0, 65, 64
13, 3792, Note_off_c, 0, 64, 64
13, 3792, Note_on_c, 0, 64, 100
13, 3792, Note_on_c, 0, 65, 100
13, 3792, Note_on_c, 0, 60, 100
13, 3816, Note_off_c, 0, 60, 64
13, 3816, Note_off_c, 0, 65, 64
13, 3816, Note_off_c, 0, 64, 64
13, 3816, Note_on_c, 0, 64, 100
13, 3816, Note_on_c, 0, 65, 100
13, 3816, Note_on_c, 0, 60, 100
13, 3840, Note_off_c, 0, 60, 64
13, 3840, Note_off_c, 0, 65, 64
13, 3840, Note_off_c, 0, 64, 64
13, 3840, Note_on_c, 0, 60, 100
13, 3840, Note_on_c, 0, 65, 100
13, 3840, Note_on_c, 0, 64, 100
13, 3864, Note_off_c, 0, 64, 64
13, 3864, Note_off_c, 0, 65, 64
13, 3864, Note_off_c, 0, 60, 64
13, 3864, Note_on_c, 0, 64, 100
13, 3864, Note_on_c, 0, 65, 100
13, 3888, Note_off_c, 0, 65, 64
13, 3888, Note_off_c, 0, 64, 64
13, 3888, Note_on_c, 0, 64, 100
13, 3888, Note_on_c, 0, 65, 100
13, 3912, Note_off_c, 0, 65, 64
13, 3912, Note_off_c, 0, 64, 64
13, 3912, Note_on_c, 0, 64, 100
13, 3912, Note_on_c, 0, 65, 100
13, 3936, Note_off_c, 0, 65, 64
13, 3936, Note_off_c, 0, 64, 64
13, 3936, Note_on_c, 0, 65, 100
13, 3936, Note_on_c, 0, 64, 100
13, 3960, Note_off_c, 0, 64, 64
13, 3960, Note_off_c, 0, 65, 64
13, 3960, Note_on_c, 0, 60, 100
13, 3960, Note_on_c, 0, 64, 100
13, 3960, Note_on_c, 0, 65, 100
13, 3984, Note_off_c, 0, 65, 64
13, 3984, Note_off_c, 0, 64, 64
13, 3984, Note_off_c, 0, 60, 64
13, 3984, Note_on_c, 0, 60, 100
13, 3984, Note_on_c, 0, 64, 100
13, 3984, Note_on_c, 0, 65, 100
13, 4008, Note_off_c, 0, 65, 64
13, 4008, Note_off_c, 0, 64, 64
13, 4008, Note_off_c, 0, 60, 64
13, 4008, Note_on_c, 0, 60, 100
13, 4008, Note_on_c, 0, 64, 100
13, 4008, Note_on_c, 0, 65, 100
13, 4032, Note_off_c, 0, 65, 64
13, 4032, Note_off_c, 0, 64, 64
13, 4032, Note_off_c, 0, 60, 64
13, 4032, Note_on_c, 0, 60, 100
13, 4032, Note_on_c, 0, 65, 100
13, 4032, Note_on_c, 0, 64, 100
13, 4056, Note_off_c, 0, 64, 64
13, 4056, Note_off_c, 0, 65, 64
13, 4056, Note_off_c, 0, 60, 64
13, 4056, Note_on_c, 0, 64, 100
13, 4056, Note_on_c, 0, 65, 100
13, 4080, Note_off_c, 0, 65, 64
13, 4080, Note_off_c, 0, 64, 64
13, 4080, Note_on_c, 0, 64, 100
13, 4080, Note_on_c, 0, 65, 100
13, 4104, Note_off_c, 0, 65, 64
13, 4104, Note_off_c, 0, 64, 64
13, 4104, Note_on_c, 0, 64, 100
13, 4104, Note_on_c, 0, 65, 100
13, 4128, Note_off_c, 0, 65, 64
13, 4128, Note_off_c, 0, 64, 64
13, 4128, Note_on_c, 0, 65, 100
13, 4128, Note_on_c, 0, 64, 100
13, 4152, Note_off_c, 0, 64, 64
13, 4152, Note_off_c, 0, 65, 64
13, 4152, Note_on_c, 0, 60, 100
13, 4152, Note_on_c, 0, 64, 100
13, 4152, Note_on_c, 0, 65, 100
13, 4176, Note_off_c, 0, 65, 64
13, 4176, Note_off_c, 0, 64, 64
13, 4176, Note_off_c, 0, 60, 64
13, 4176, Note_on_c, 0, 60, 100
13, 4176, Note_on_c, 0, 64, 100
13, 4176, Note_on_c, 0, 65, 100
13, 4200, Note_off_c, 0, 65, 64
13, 4200, Note_off_c, 0, 64, 64
13, 4200, Note_off_c, 0, 60, 64
13, 4200, Note_on_c, 0, 60, 100
13, 4200, Note_on_c, 0, 64, 100
13, 4200, Note_on_c, 0, 65, 100
13, 4224, Note_off_c, 0, 65, 64
13, 4224, Note_off_c, 0, 64, 64
13, 4224, Note_off_c, 0, 60, 64
13, 4224, Note_on_c, 0, 65, 100
13, 4224, Note_on_c, 0, 64, 100
13, 4224, Note_on_c, 0, 60, 100
13, 4248, Note_off_c, 0, 60, 64
13, 4248, Note_off_c, 0, 64, 64
13, 4248, Note_off_c, 0, 65, 64
13, 4248, Note_on_c, 0, 61, 100
13, 4248, Note_on_c, 0, 64, 100
13, 4248, Note_on_c, 0, 65, 100
13, 4248, Note_on_c, 0, 60, 100
13, 4272, Note_off_c, 0, 60, 64
13, 4272, Note_off_c, 0, 65, 64
13, 4272, Note_off_c, 0, 64, 64
13, 4272, Note_off_c, 0, 61, 64
13, 4272, Note_on_c, 0, 61, 100
13, 4272, Note_on_c, 0, 64, 100
13, 4272, Note_on_c, 0, 65, 100
13, 4272, Note_on_c, 0, 60, 100
13, 4296, Note_off_c, 0, 60, 64
13, 4296, Note_off_c, 0, 65, 64
13, 4296, Note_off_c, 0, 64, 64
13, 4296, Note_off_c, 0, 61, 64
13, 4296, Note_on_c, 0, 61, 100
13, 4296, Note_on_c, 0, 64, 100
13, 4296, Note_on_c, 0, 65, 100
13, 4296, Note_on_c, 0, 60, 100
13, 4320, Note_off_c, 0, 60, 64
13, 4320, Note_off_c, 0, 65, 64
13, 4320, Note_off_c, 0, 64, 64
13, 4320, Note_off_c, 0, 61, 64
13, 4320, Note_on_c, 0, 61, 100
13, 4320, Note_on_c, 0, 65, 100
13, 4320, Note_on_c, 0, 64, 100
13, 4320, Note_on_c, 0, 60, 100
13, 4344, Note_off_c, 0, 60, 64
13, 4344, Note_off_c, 0, 64, 64
13, 4344, Note_off_c, 0, 65, 64
13, 4344, Note_off_c, 0, 61, 64
13, 4344, Note_on_c, 0, 64, 100
13, 4344, Note_on_c, 0, 65, 100
13, 4344, Note_on_c, 0, 60, 100
13, 4368, Note_off_c, 0, 60, 64
13, 4368, Note_off_c, 0, 65, 64
13, 4368, Note_off_c, 0, 64, 64
13, 4368, Note_on_c, 0, 64, 100
13, 4368, Note_on_c, 0, 65, 100
13, 4368, Note_on_c, 0, 60, 100
13, 4392, Note_off_c, 0, 60, 64
13, 4392, Note_off_c, 0, 65, 64
13, 4392, Note_off_c, 0, 64, 64
13, 4392, Note_on_c, 0, 64, 100
13, 4392, Note_on_c, 0, 65, 100
13, 4392, Note_on_c, 0, 60, 100
13, 4416, Note_off_c, 0, 60, 64
13, 4416, Note_off_c, 0, 65, 64
13, 4416, Note_off_c, 0, 64, 64
13, 4416, Note_on_c, 0, 65, 100
13, 4416, Note_on_c, 0, 64, 100
13, 4416, Note_on_c, 0, 60, 100
13, 4440, Note_off_c, 0, 60, 64
13, 4440, Note_off_c, 0, 64, 64
13, 4440, Note_off_c, 0, 65, 64
13, 4440, Note_on_c, 0, 61, 100
13, 4440, Note_on_c, 0, 64, 100
13, 4440, Note_on_c, 0, 65, 100
13, 4440, Note_on_c, 0, 60, 100
13, 4464, Note_off_c, 0, 60, 64
13, 4464, Note_off_c, 0, 65, 64
13, 4464, Note_off_c, 0, 64, 64
13, 4464, Note_off_c, 0, 61, 64
13, 4464, Note_on_c, 0, 61, 100
13, 4464, Note_on_c, 0, 64, 100
13, 4464, Note_on_c, 0, 65, 100
13, 4464, Note_on_c, 0, 60, 100
13, 4488, Note_off_c, 0, 60, 64
13, 4488, Note_off_c, 0, 65, 64
13, 4488, Note_off_c, 0, 64, 64
13, 4488, Note_off_c, 0, 61, 64
13, 4488, Note_on_c, 0, 61, 100
13, 4488, Note_on_c, 0, 64, 100
13, 4488, Note_on_c, 0, 65, 100
13, 4488, Note_on_c, 0, 60, 100
13, 4512, Note_off_c, 0, 60, 64
13, 4512, Note_off_c, 0, 65, 64
13, 4512, Note_off_c, 0, 64, 64
13, 4512, Note_off_c, 0, 61, 64
13, 4512, Note_on_c, 0, 61, 100
13, 4512, Note_on_c, 0, 65, 100
13, 4512, Note_on_c, 0, 64, 100
13, 4512, Note_on_c, 0, 60, 100
13, 4536, Note_off_c, 0, 60, 64
13, 4536, Note_off_c, 0, 64, 64
13, 4536, Note_off_c, 0, 65, 64
13, 4536, Note_off_c, 0, 61, 64
13, 4536, Note_on_c, 0, 64, 100
13, 4536, Note_on_c, 0, 65, 100
13, 4536, Note_on_c, 0, 60, 100
13, 4560, Note_off_c, 0, 60, 64
13, 4560, Note_off_c, 0, 65, 64
13, 4560, Note_off_c, 0, 64, 64
13, 4560, Note_on_c, 0, 64, 100
13, 4560, Note_on_c, 0, 65, 100
13, 4560, Note_on_c, 0, 60, 100
13, 4584, Note_off_c, 0, 60, 64
13, 4584, Note_off_c, 0, 65, 64
13, 4584, Note_off_c, 0, 64, 64
13, 4584, Note_on_c, 0, 64, 100
13, 4584, Note_on_c, 0, 65, 100
13, 4584, Note_on_c, 0, 60, 100
13, 4608, Note_off_c, 0, 60, 64
13, 4608, Note_off_c, 0, 65, 64
13, 4608, Note_off_c, 0, 64, 64
13, 4608, Note_on_c, 0, 60, 100
13, 4608, Note_on_c, 0, 65, 100
13, 4608, Note_on_c, 0, 64, 100
13, 4632, Note_off_c, 0, 64, 64
13, 4632, Note_off_c, 0, 65, 64
13, 4632, Note_off_c, 0, 60, 64
13, 4632, Note_on_c, 0, 64, 100
13, 4632, Note_on_c, 0, 65, 100
13, 4656, Note_off_c, 0, 65, 64
13, 4656, Note_off_c, 0, 64, 64
13, 4656, Note_on_c, 0, 64, 100
13, 4656, Note_on_c, 0, 65, 100
13, 4680, Note_off_c, 0, 65, 64
13, 4680, Note_off_c, 0, 64, 64
13, 4680, Note_on_c, 0, 64, 100
13, 4680, Note_on_c, 0, 65, 100
13, 4704, Note_off_c, 0, 65, 64
13, 4704, Note_off_c, 0, 64, 64
13, 4704, Note_on_c, 0, 65, 100
13, 4704, Note_on_c, 0, 64, 100
13, 4728, Note_off_c, 0, 64, 64
13, 4728, Note_off_c, 0, 65, 64
13, 4728, Note_on_c, 0, 60, 100
13, 4728, Note_on_c, 0, 64, 100
13, 4728, Note_on_c, 0, 65, 100
13, 4752, Note_off_c, 0, 65, 64
13, 4752, Note_off_c, 0, 64, 64
13, 4752, Note_off_c, 0, 60, 64
13, 4752, Note_on_c, 0, 60, 100
13, 4752, Note_on_c, 0, 64, 100
13, 4752, Note_on_c, 0, 65, 100
13, 4776, Note_off_c, 0, 65, 64
13, 4776, Note_off_c, 0, 64, 64
13, 4776, Note_off_c, 0, 60, 64
13, 4776, Note_on_c, 0, 60, 100
13, 4776, Note_on_c, 0, 64, 100
13, 4776, Note_on_c, 0, 65, 100
13, 4800, Note_off_c, 0, 65, 64
13, 4800, Note_off_c, 0, 64, 64
13, 4800, Note_off_c, 0, 60, 64
13, 4800, Note_on_c, 0, 60, 100
13, 4800, Note_on_c, 0, 65, 100
13, 4800, Note_on_c, 0, 64, 100
13, 4824, Note_off_c, 0, 64, 64
13, 4824, Note_off_c, 0, 65, 64
13, 4824, Note_off_c, 0, 60, 64
13, 4824, Note_on_c, 0, 64, 100
13, 4824, Note_on_c, 0, 65, 100
13, 4848, Note_off_c, 0, 65, 64
13, 4848, Note_off_c, 0, 64, 64
13, 4848, Note_on_c, 0, 64, 100
13, 4848, Note_on_c, 0, 65, 100
13, 4872, Note_off_c, 0, 65, 64
13, 4872, Note_off_c, 0, 64, 64
13, 4872, Note_on_c, 0, 64, 100
13, 4872, Note_on_c, 0, 65, 100
13, 4896, Note_off_c, 0, 65, 64
13, 4896, Note_off_c, 0, 64, 64
13, 4896, Note_on_c, 0, 65, 100
13, 4896, Note_on_c, 0, 64, 100
13, 4920, Note_off_c, 0, 64, 64
13, 4920, Note_off_c, 0, 65, 64
13, 4920, Note_on_c, 0, 64, 100
13, 4920, Note_on_c, 0, 65, 100
13, 4944, Note_off_c, 0, 65, 64
13, 4944, Note_off_c, 0, 64, 64
13, 4944, Note_on_c, 0, 64, 100
13, 4944, Note_on_c, 0, 65, 100
13, 4968, Note_off_c, 0, 65, 64
13, 4968, Note_off_c, 0, 64, 64
13, 4968, Note_on_c, 0, 64, 100
13, 4968, Note_on_c, 0, 65, 100
13, 4992, Note_off_c, 0, 59, 64
13, 4992, Note_off_c, 0, 66, 64
13, 4992, Note_off_c, 0, 65, 64
13, 4992, Note_off_c, 0, 64, 64
13, 4992, End_track
14, 0, Start_track
14, 0, Title_t, "pique"
14, 0, Note_on_c, 11, 0, 100
14, 96, Note_off_c, 11, 0, 64
14, 384, Note_on_c, 11, 63, 100
14, 408, Note_off_c, 11, 63, 64
14, 408, Note_on_c, 11, 63, 100
14, 432, Note_off_c, 11, 63, 64
14, 432, Note_on_c, 11, 63, 100
14, 456, Note_off_c, 11, 63, 64
14, 456, Note_on_c, 11, 63, 100
14, 480, Note_off_c, 11, 63, 64
14, 480, Note_on_c, 11, 63, 100
14, 504, Note_off_c, 11, 63, 64
14, 504, Note_on_c, 11, 63, 100
14, 528, Note_off_c, 11, 63, 64
14, 528, Note_on_c, 11, 63, 100
14, 552, Note_off_c, 11, 63, 64
14, 552, Note_on_c, 11, 63, 100
14, 576, Note_off_c, 11, 63, 64
14, 576, Note_on_c, 11, 63, 100
14, 600, Note_off_c, 11, 63, 64
14, 600, Note_on_c, 11, 63, 100
14, 624, Note_off_c, 11, 63, 64
14, 624, Note_on_c, 11, 63, 100
14, 648, Note_off_c, 11, 63, 64
14, 648, Note_on_c, 11, 63, 100
14, 672, Note_off_c, 11, 63, 64
14, 672, Note_on_c, 11, 63, 100
14, 696, Note_off_c, 11, 63, 64
14, 696, Note_on_c, 11, 63, 100
14, 720, Note_off_c, 11, 63, 64
14, 720, Note_on_c, 11, 63, 100
14, 744, Note_off_c, 11, 63, 64
14, 744, Note_on_c, 11, 63, 100
14, 768, Note_off_c, 11, 63, 64
14, 768, Note_on_c, 11, 63, 100
14, 792, Note_off_c, 11, 63, 64
14, 792, Note_on_c, 11, 63, 100
14, 816, Note_off_c, 11, 63, 64
14, 816, Note_on_c, 11, 63, 100
14, 840, Note_off_c, 11, 63, 64
14, 840, Note_on_c, 11, 63, 100
14, 864, Note_off_c, 11, 63, 64
14, 864, Note_on_c, 11, 63, 100
14, 888, Note_off_c, 11, 63, 64
14, 888, Note_on_c, 11, 63, 100
14, 912, Note_off_c, 11, 63, 64
14, 912, Note_on_c, 11, 63, 100
14, 936, Note_off_c, 11, 63, 64
14, 936, Note_on_c, 11, 63, 100
14, 960, Note_off_c, 11, 63, 64
14, 960, Note_on_c, 11, 63, 100
14, 984, Note_off_c, 11, 63, 64
14, 984, Note_on_c, 11, 63, 100
14, 1008, Note_off_c, 11, 63, 64
14, 1008, Note_on_c, 11, 63, 100
14, 1032, Note_off_c, 11, 63, 64
14, 1032, Note_on_c, 11, 63, 100
14, 1056, Note_off_c, 11, 63, 64
14, 1056, Note_on_c, 11, 63, 100
14, 1080, Note_off_c, 11, 63, 64
14, 1080, Note_on_c, 11, 63, 100
14, 1104, Note_off_c, 11, 63, 64
14, 1104, Note_on_c, 11, 63, 100
14, 1128, Note_off_c, 11, 63, 64
14, 1128, Note_on_c, 11, 63, 100
14, 1152, Note_off_c, 11, 63, 64
14, 1152, Note_on_c, 11, 63, 100
14, 1176, Note_off_c, 11, 63, 64
14, 1176, Note_on_c, 11, 63, 100
14, 1200, Note_off_c, 11, 63, 64
14, 1200, Note_on_c, 11, 63, 100
14, 1224, Note_off_c, 11, 63, 64
14, 1224, Note_on_c, 11, 63, 100
14, 1248, Note_off_c, 11, 63, 64
14, 1248, Note_on_c, 11, 63, 100
14, 1272, Note_off_c, 11, 63, 64
14, 1272, Note_on_c, 11, 63, 100
14, 1296, Note_off_c, 11, 63, 64
14, 1296, Note_on_c, 11, 63, 100
14, 1320, Note_off_c, 11, 63, 64
14, 1320, Note_on_c, 11, 63, 100
14, 1344, Note_off_c, 11, 63, 64
14, 1344, Note_on_c, 11, 63, 100
14, 1368, Note_off_c, 11, 63, 64
14, 1368, Note_on_c, 11, 63, 100
14, 1392, Note_off_c, 11, 63, 64
14, 1392, Note_on_c, 11, 63, 100
14, 1416, Note_off_c, 11, 63, 64
14, 1416, Note_on_c, 11, 63, 100
14, 1440, Note_off_c, 11, 63, 64
14, 1440, Note_on_c, 11, 63, 100
14, 1464, Note_off_c, 11, 63, 64
14, 1464, Note_on_c, 11, 63, 100
14, 1488, Note_off_c, 11, 63, 64
14, 1488, Note_on_c, 11, 63, 100
14, 1512, Note_off_c, 11, 63, 64
14, 1512, Note_on_c, 11, 63, 100
14, 1536, Note_off_c, 11, 63, 64
14, 1536, Note_on_c, 11, 63, 100
14, 1560, Note_off_c, 11, 63, 64
14, 1560, Note_on_c, 11, 63, 100
14, 1584, Note_off_c, 11, 63, 64
14, 1584, Note_on_c, 11, 63, 100
14, 1608, Note_off_c, 11, 63, 64
14, 1608, Note_on_c, 11, 63, 100
14, 1632, Note_off_c, 11, 63, 64
14, 1632, Note_on_c, 11, 63, 100
14, 1656, Note_off_c, 11, 63, 64
14, 1656, Note_on_c, 11, 63, 100
14, 1680, Note_off_c, 11, 63, 64
14, 1680, Note_on_c, 11, 63, 100
14, 1704, Note_off_c, 11, 63, 64
14, 1704, Note_on_c, 11, 63, 100
14, 1728, Note_off_c, 11, 63, 64
14, 1728, Note_on_c, 11, 63, 100
14, 1752, Note_off_c, 11, 63, 64
14, 1752, Note_on_c, 11, 63, 100
14, 1776, Note_off_c, 11, 63, 64
14, 1776, Note_on_c, 11, 63, 100
14, 1800, Note_off_c, 11, 63, 64
14, 1800, Note_on_c, 11, 63, 100
14, 1824, Note_off_c, 11, 63, 64
14, 1824, Note_on_c, 11, 63, 100
14, 1848, Note_off_c, 11, 63, 64
14, 1848, Note_on_c, 11, 63, 100
14, 1872, Note_off_c, 11, 63, 64
14, 2352, Note_on_c, 11, 63, 100
14, 2376, Note_off_c, 11, 63, 64
14, 2376, Note_on_c, 11, 63, 100
14, 2400, Note_off_c, 11, 63, 64
14, 2400, Note_on_c, 11, 63, 100
14, 2424, Note_off_c, 11, 63, 64
14, 2424, Note_on_c, 11, 63, 100
14, 2448, Note_off_c, 11, 63, 64
14, 2448, Note_on_c, 11, 63, 100
14, 2472, Note_off_c, 11, 63, 64
14, 2472, Note_on_c, 11, 63, 100
14, 2496, Note_off_c, 11, 63, 64
14, 2496, Note_on_c, 11, 63, 100
14, 2520, Note_off_c, 11, 63, 64
14, 2520, Note_on_c, 11, 63, 100
14, 2544, Note_off_c, 11, 63, 64
14, 2544, Note_on_c, 11, 63, 100
14, 2568, Note_off_c, 11, 63, 64
14, 2568, Note_on_c, 11, 63, 100
14, 2592, Note_off_c, 11, 63, 64
14, 2592, Note_on_c, 11, 63, 100
14, 2616, Note_off_c, 11, 63, 64
14, 2616, Note_on_c, 11, 63, 100
14, 2640, Note_off_c, 11, 63, 64
14, 3120, Note_on_c, 11, 63, 100
14, 3144, Note_off_c, 11, 63, 64
14, 3144, Note_on_c, 11, 63, 100
14, 3168, Note_off_c, 11, 63, 64
14, 3168, Note_on_c, 11, 63, 100
14, 3192, Note_off_c, 11, 63, 64
14, 3192, Note_on_c, 11, 63, 100
14, 3216, Note_off_c, 11, 63, 64
14, 3216, Note_on_c, 11, 63, 100
14, 3240, Note_off_c, 11, 63, 64
14, 3240, Note_on_c, 11, 63, 100
14, 3264, Note_off_c, 11, 63, 64
14, 3264, Note_on_c, 11, 63, 100
14, 3288, Note_off_c, 11, 63, 64
14, 3288, Note_on_c, 11, 63, 100
14, 3312, Note_off_c, 11, 63, 64
14, 3312, Note_on_c, 11, 63, 100
14, 3336, Note_off_c, 11, 63, 64
14, 3336, Note_on_c, 11, 63, 100
14, 3360, Note_off_c, 11, 63, 64
14, 3360, Note_on_c, 11, 63, 100
14, 3384, Note_off_c, 11, 63, 64
14, 3384, Note_on_c, 11, 63, 100
14, 3408, Note_off_c, 11, 63, 64
14, 3888, Note_on_c, 11, 63, 100
14, 3912, Note_off_c, 11, 63, 64
14, 3912, Note_on_c, 11, 63, 100
14, 3936, Note_off_c, 11, 63, 64
14, 3936, Note_on_c, 11, 63, 100
14, 3960, Note_off_c, 11, 63, 64
14, 3960, Note_on_c, 11, 63, 100
14, 3984, Note_off_c, 11, 63, 64
14, 3984, Note_on_c, 11, 63, 100
14, 4008, Note_off_c, 11, 63, 64
14, 4008, Note_on_c, 11, 63, 100
14, 4032, Note_off_c, 11, 63, 64
14, 4032, Note_on_c, 11, 63, 100
14, 4056, Note_off_c, 11, 63, 64
14, 4056, Note_on_c, 11, 63, 100
14, 4080, Note_off_c, 11, 63, 64
14, 4080, Note_on_c, 11, 63, 100
14, 4104, Note_off_c, 11, 63, 64
14, 4104, Note_on_c, 11, 63, 100
14, 4128, Note_off_c, 11, 63, 64
14, 4128, Note_on_c, 11, 63, 100
14, 4152, Note_off_c, 11, 63, 64
14, 4152, Note_on_c, 11, 63, 100
14, 4176, Note_off_c, 11, 63, 64
14, 4656, Note_on_c, 11, 63, 100
14, 4680, Note_off_c, 11, 63, 64
14, 4680, Note_on_c, 11, 63, 100
14, 4704, Note_off_c, 11, 63, 64
14, 4704, Note_on_c, 11, 63, 100
14, 4728, Note_off_c, 11, 63, 64
14, 4728, Note_on_c, 11, 63, 100
14, 4752, Note_off_c, 11, 63, 64
14, 4752, Note_on_c, 11, 63, 100
14, 4776, Note_off_c, 11, 63, 64
14, 4776, Note_on_c, 11, 63, 100
14, 4800, Note_off_c, 11, 63, 64
14, 4800, Note_on_c, 11, 63, 100
14, 4824, Note_off_c, 11, 63, 64
14, 4824, Note_on_c, 11, 63, 100
14, 4848, Note_off_c, 11, 63, 64
14, 4848, Note_on_c, 11, 63, 100
14, 4872, Note_off_c, 11, 63, 64
14, 4872, Note_on_c, 11, 63, 100
14, 4896, Note_off_c, 11, 63, 64
14, 4896, Note_on_c, 11, 63, 100
14, 4920, Note_off_c, 11, 63, 64
14, 4920, Note_on_c, 11, 63, 100
14, 4944, Note_off_c, 11, 63, 64
14, 4944, Note_on_c, 11, 63, 100
14, 4968, Note_off_c, 11, 63, 64
14, 4968, Note_on_c, 11, 63, 100
14, 4992, Note_off_c, 11, 63, 64
14, 4992, End_track
15, 0, Start_track
15, 0, Title_t, "orbe"
15, 0, Note_on_c, 12, 0, 100
15, 96, Note_off_c, 12, 0, 64
15, 96, End_track
16, 0, Start_track
16, 0, Title_t, "dash"
16, 0, Note_on_c, 13, 0, 100
16, 96, Note_off_c, 13, 0, 64
16, 1896, Note_on_c, 13, 63, 100
16, 1920, Note_off_c, 13, 63, 64
16, 2664, Note_on_c, 13, 63, 100
16, 2688, Note_off_c, 13, 63, 64
16, 3432, Note_on_c, 13, 63, 100
16, 3456, Note_off_c, 13, 63, 64
16, 4200, Note_on_c, 13, 63, 100
16, 4224, Note_off_c, 13, 63, 64
16, 4224, End_track
17, 0, Start_track
17, 0, Title_t, "theme"
17, 0, Note_on_c, 14, 60, 100
17, 0, Note_on_c, 14, 0, 100
17, 96, Note_off_c, 14, 60, 64
17, 96, Note_off_c, 14, 0, 64
17, 5184, Note_on_c, 14, 61, 100
17, 5280, Note_off_c, 14, 61, 64
17, 20544, Note_on_c, 14, 62, 100
17, 20640, Note_off_c, 14, 62, 64
17, 20640, End_track
0, 0, End_of_file
