0, 0, Header, 1, 17, 96
1, 0, Start_track
1, 0, Time_signature, 4, 2, 24, 8
1, 0, End_track
2, 0, Start_track
2, 0, Tempo, 681818
2, 0, Tempo, 681818
2, 0, Tempo, 681818
2, 7295, Tempo, 645161
2, 7487, Tempo, 612245
2, 7679, Tempo, 582524
2, 7871, Tempo, 571429
2, 28416, Tempo, 681818
2, 28416, End_track
3, 0, Start_track
3, 0, Title_t, "phase"
3, 0, Program_c, 0, 0
3, 0, Program_c, 0, 0
3, 0, Note_on_c, 0, 60, 100
3, 0, Note_on_c, 0, 0, 100
3, 0, Program_c, 0, 0
3, 48, Note_off_c, 0, 0, 64
3, 96, Note_off_c, 0, 60, 64
3, 3744, Note_on_c, 0, 61, 100
3, 3840, Note_off_c, 0, 61, 64
3, 6624, Note_on_c, 0, 60, 100
3, 6720, Note_off_c, 0, 60, 64
3, 13248, Note_on_c, 0, 62, 100
3, 13344, Note_off_c, 0, 62, 64
3, 15072, Note_on_c, 0, 60, 100
3, 15168, Note_off_c, 0, 60, 64
3, 16704, Note_on_c, 0, 61, 100
3, 16800, Note_off_c, 0, 61, 64
3, 19968, Note_on_c, 0, 60, 100
3, 20064, Note_off_c, 0, 60, 64
3, 28032, Note_on_c, 0, 59, 100
3, 28128, Note_off_c, 0, 59, 64
3, 28416, Program_c, 0, 0
3, 28417, Program_c, 0, 0
3, 28417, End_track
4, 0, Start_track
4, 0, Title_t, "items"
4, 0, Note_on_c, 1, 0, 100
4, 48, Note_off_c, 1, 0, 64
4, 3600, Note_on_c, 1, 61, 100
4, 3616, Note_off_c, 1, 61, 64
4, 13632, Note_on_c, 1, 60, 100
4, 13656, Note_off_c, 1, 60, 64
4, 13824, Note_on_c, 1, 76, 100
4, 13848, Note_off_c, 1, 76, 64
4, 13872, Note_on_c, 1, 74, 100
4, 13896, Note_off_c, 1, 74, 64
4, 13920, Note_on_c, 1, 74, 100
4, 13944, Note_off_c, 1, 74, 64
4, 13968, Note_on_c, 1, 75, 100
4, 13992, Note_off_c, 1, 75, 64
4, 14016, Note_on_c, 1, 77, 100
4, 14040, Note_off_c, 1, 77, 64
4, 14400, Note_on_c, 1, 72, 100
4, 14424, Note_off_c, 1, 72, 64
4, 14784, Note_on_c, 1, 77, 100
4, 14808, Note_off_c, 1, 77, 64
4, 19120, Note_on_c, 1, 61, 100
4, 19136, Note_off_c, 1, 61, 64
4, 19136, End_track
5, 0, Start_track
5, 0, Title_t, "small"
5, 0, Program_c, 2, 0
5, 0, Program_c, 2, 0
5, 0, Note_on_c, 2, 0, 100
5, 0, Program_c, 2, 0
5, 48, Note_off_c, 2, 0, 64
5, 384, Note_on_c, 2, 60, 100
5, 408, Note_off_c, 2, 60, 64
5, 416, Note_on_c, 2, 61, 100
5, 440, Note_off_c, 2, 61, 64
5, 448, Note_on_c, 2, 60, 100
5, 472, Note_off_c, 2, 60, 64
5, 480, Note_on_c, 2, 60, 100
5, 504, Note_off_c, 2, 60, 64
5, 512, Note_on_c, 2, 61, 100
5, 536, Note_off_c, 2, 61, 64
5, 544, Note_on_c, 2, 61, 100
5, 568, Note_off_c, 2, 61, 64
5, 576, Note_on_c, 2, 60, 100
5, 600, Note_off_c, 2, 60, 64
5, 640, Note_on_c, 2, 60, 100
5, 664, Note_off_c, 2, 60, 64
5, 704, Note_on_c, 2, 60, 100
5, 728, Note_off_c, 2, 60, 64
5, 768, Note_on_c, 2, 61, 100
5, 792, Note_off_c, 2, 61, 64
5, 832, Note_on_c, 2, 60, 100
5, 856, Note_off_c, 2, 60, 64
5, 896, Note_on_c, 2, 60, 100
5, 920, Note_off_c, 2, 60, 64
5, 960, Note_on_c, 2, 61, 100
5, 984, Note_off_c, 2, 61, 64
5, 1024, Note_on_c, 2, 60, 100
5, 1048, Note_off_c, 2, 60, 64
5, 1088, Note_on_c, 2, 60, 100
5, 1112, Note_off_c, 2, 60, 64
5, 1152, Note_on_c, 2, 60, 100
5, 1176, Note_off_c, 2, 60, 64
5, 1184, Note_on_c, 2, 61, 100
5, 1208, Note_off_c, 2, 61, 64
5, 1216, Note_on_c, 2, 61, 100
5, 1240, Note_off_c, 2, 61, 64
5, 1248, Note_on_c, 2, 61, 100
5, 1272, Note_off_c, 2, 61, 64
5, 1280, Note_on_c, 2, 60, 100
5, 1304, Note_off_c, 2, 60, 64
5, 1344, Note_on_c, 2, 60, 100
5, 1368, Note_off_c, 2, 60, 64
5, 1408, Note_on_c, 2, 61, 100
5, 1432, Note_off_c, 2, 61, 64
5, 1432, Note_on_c, 2, 61, 100
5, 1456, Note_off_c, 2, 61, 64
5, 1464, Note_on_c, 2, 60, 100
5, 1488, Note_off_c, 2, 60, 64
5, 1536, Note_on_c, 2, 61, 100
5, 1560, Note_off_c, 2, 61, 64
5, 1600, Note_on_c, 2, 60, 100
5, 1624, Note_off_c, 2, 60, 64
5, 1664, Note_on_c, 2, 60, 100
5, 1688, Note_off_c, 2, 60, 64
5, 1728, Note_on_c, 2, 61, 100
5, 1752, Note_off_c, 2, 61, 64
5, 1792, Note_on_c, 2, 60, 100
5, 1816, Note_off_c, 2, 60, 64
5, 1856, Note_on_c, 2, 60, 100
5, 1880, Note_off_c, 2, 60, 64
5, 2368, Note_on_c, 2, 60, 100
5, 2392, Note_off_c, 2, 60, 64
5, 2432, Note_on_c, 2, 60, 100
5, 2456, Note_off_c, 2, 60, 64
5, 2560, Note_on_c, 2, 61, 100
5, 2584, Note_off_c, 2, 61, 64
5, 2624, Note_on_c, 2, 61, 100
5, 2648, Note_off_c, 2, 61, 64
5, 2944, Note_on_c, 2, 60, 100
5, 2968, Note_off_c, 2, 60, 64
5, 2976, Note_on_c, 2, 61, 100
5, 3000, Note_off_c, 2, 61, 64
5, 3008, Note_on_c, 2, 61, 100
5, 3032, Note_off_c, 2, 61, 64
5, 3072, Note_on_c, 2, 60, 100
5, 3096, Note_off_c, 2, 60, 64
5, 6784, Note_on_c, 2, 60, 100
5, 6808, Note_off_c, 2, 60, 64
5, 6816, Note_on_c, 2, 61, 100
5, 6840, Note_off_c, 2, 61, 64
5, 6848, Note_on_c, 2, 60, 100
5, 6872, Note_off_c, 2, 60, 64
5, 6912, Note_on_c, 2, 60, 100
5, 6936, Note_off_c, 2, 60, 64
5, 7168, Note_on_c, 2, 61, 100
5, 7192, Note_off_c, 2, 61, 64
5, 7200, Note_on_c, 2, 60, 100
5, 7224, Note_off_c, 2, 60, 64
5, 7232, Note_on_c, 2, 61, 100
5, 7256, Note_off_c, 2, 61, 64
5, 7264, Note_on_c, 2, 60, 100
5, 7288, Note_off_c, 2, 60, 64
5, 7296, Note_on_c, 2, 60, 100
5, 7320, Note_off_c, 2, 60, 64
5, 7360, Note_on_c, 2, 61, 100
5, 7384, Note_off_c, 2, 61, 64
5, 7392, Note_on_c, 2, 60, 100
5, 7416, Note_off_c, 2, 60, 64
5, 7424, Note_on_c, 2, 61, 100
5, 7448, Note_off_c, 2, 61, 64
5, 7456, Note_on_c, 2, 60, 100
5, 7480, Note_off_c, 2, 60, 64
5, 7488, Note_on_c, 2, 60, 100
5, 7512, Note_off_c, 2, 60, 64
5, 7552, Note_on_c, 2, 61, 100
5, 7576, Note_off_c, 2, 61, 64
5, 7584, Note_on_c, 2, 60, 100
5, 7608, Note_off_c, 2, 60, 64
5, 7616, Note_on_c, 2, 61, 100
5, 7640, Note_off_c, 2, 61, 64
5, 7648, Note_on_c, 2, 60, 100
5, 7672, Note_off_c, 2, 60, 64
5, 7680, Note_on_c, 2, 60, 100
5, 7704, Note_off_c, 2, 60, 64
5, 7744, Note_on_c, 2, 61, 100
5, 7768, Note_off_c, 2, 61, 64
5, 7776, Note_on_c, 2, 60, 100
5, 7800, Note_off_c, 2, 60, 64
5, 7808, Note_on_c, 2, 61, 100
5, 7832, Note_off_c, 2, 61, 64
5, 7840, Note_on_c, 2, 60, 100
5, 7864, Note_off_c, 2, 60, 64
5, 7872, Note_on_c, 2, 60, 100
5, 7896, Note_off_c, 2, 60, 64
5, 7936, Note_on_c, 2, 61, 100
5, 7960, Note_off_c, 2, 61, 64
5, 7968, Note_on_c, 2, 60, 100
5, 7992, Note_off_c, 2, 60, 64
5, 8000, Note_on_c, 2, 61, 100
5, 8024, Note_off_c, 2, 61, 64
5, 8032, Note_on_c, 2, 60, 100
5, 8056, Note_off_c, 2, 60, 64
5, 8064, Note_on_c, 2, 60, 100
5, 8088, Note_off_c, 2, 60, 64
5, 8128, Note_on_c, 2, 61, 100
5, 8152, Note_off_c, 2, 61, 64
5, 8160, Note_on_c, 2, 60, 100
5, 8184, Note_off_c, 2, 60, 64
5, 8192, Note_on_c, 2, 61, 100
5, 8216, Note_off_c, 2, 61, 64
5, 8224, Note_on_c, 2, 60, 100
5, 8248, Note_off_c, 2, 60, 64
5, 8256, Note_on_c, 2, 61, 100
5, 8280, Note_off_c, 2, 61, 64
5, 8288, Note_on_c, 2, 60, 100
5, 8312, Note_off_c, 2, 60, 64
5, 8320, Note_on_c, 2, 61, 100
5, 8344, Note_off_c, 2, 61, 64
5, 8352, Note_on_c, 2, 60, 100
5, 8376, Note_off_c, 2, 60, 64
5, 8384, Note_on_c, 2, 61, 100
5, 8408, Note_off_c, 2, 61, 64
5, 8416, Note_on_c, 2, 60, 100
5, 8440, Note_off_c, 2, 60, 64
5, 8448, Note_on_c, 2, 60, 100
5, 8472, Note_off_c, 2, 60, 64
5, 8480, Note_on_c, 2, 61, 100
5, 8504, Note_off_c, 2, 61, 64
5, 8512, Note_on_c, 2, 60, 100
5, 8536, Note_off_c, 2, 60, 64
5, 8544, Note_on_c, 2, 60, 100
5, 8568, Note_off_c, 2, 60, 64
5, 8576, Note_on_c, 2, 61, 100
5, 8600, Note_off_c, 2, 61, 64
5, 8608, Note_on_c, 2, 60, 100
5, 8632, Note_off_c, 2, 60, 64
5, 8640, Note_on_c, 2, 60, 100
5, 8664, Note_off_c, 2, 60, 64
5, 8704, Note_on_c, 2, 60, 100
5, 8728, Note_off_c, 2, 60, 64
5, 8768, Note_on_c, 2, 60, 100
5, 8792, Note_off_c, 2, 60, 64
5, 8832, Note_on_c, 2, 61, 100
5, 8856, Note_off_c, 2, 61, 64
5, 8896, Note_on_c, 2, 60, 100
5, 8920, Note_off_c, 2, 60, 64
5, 8960, Note_on_c, 2, 60, 100
5, 8984, Note_off_c, 2, 60, 64
5, 9024, Note_on_c, 2, 61, 100
5, 9048, Note_off_c, 2, 61, 64
5, 9088, Note_on_c, 2, 60, 100
5, 9112, Note_off_c, 2, 60, 64
5, 9152, Note_on_c, 2, 60, 100
5, 9176, Note_off_c, 2, 60, 64
5, 9216, Note_on_c, 2, 60, 100
5, 9240, Note_off_c, 2, 60, 64
5, 9248, Note_on_c, 2, 61, 100
5, 9272, Note_off_c, 2, 61, 64
5, 9280, Note_on_c, 2, 61, 100
5, 9304, Note_off_c, 2, 61, 64
5, 9312, Note_on_c, 2, 60, 100
5, 9336, Note_off_c, 2, 60, 64
5, 9344, Note_on_c, 2, 61, 100
5, 9368, Note_off_c, 2, 61, 64
5, 9408, Note_on_c, 2, 60, 100
5, 9432, Note_off_c, 2, 60, 64
5, 9464, Note_on_c, 2, 60, 100
5, 9488, Note_off_c, 2, 60, 64
5, 9488, Note_on_c, 2, 61, 100
5, 9512, Note_off_c, 2, 61, 64
5, 9520, Note_on_c, 2, 60, 100
5, 9544, Note_off_c, 2, 60, 64
5, 9600, Note_on_c, 2, 60, 100
5, 9624, Note_off_c, 2, 60, 64
5, 9664, Note_on_c, 2, 61, 100
5, 9688, Note_off_c, 2, 61, 64
5, 9728, Note_on_c, 2, 61, 100
5, 9752, Note_off_c, 2, 61, 64
5, 9792, Note_on_c, 2, 60, 100
5, 9816, Note_off_c, 2, 60, 64
5, 9856, Note_on_c, 2, 61, 100
5, 9880, Note_off_c, 2, 61, 64
5, 9920, Note_on_c, 2, 61, 100
5, 9944, Note_off_c, 2, 61, 64
5, 9984, Note_on_c, 2, 60, 100
5, 10008, Note_off_c, 2, 60, 64
5, 10016, Note_on_c, 2, 61, 100
5, 10040, Note_off_c, 2, 61, 64
5, 10048, Note_on_c, 2, 60, 100
5, 10072, Note_off_c, 2, 60, 64
5, 10080, Note_on_c, 2, 60, 100
5, 10104, Note_off_c, 2, 60, 64
5, 10112, Note_on_c, 2, 61, 100
5, 10136, Note_off_c, 2, 61, 64
5, 10144, Note_on_c, 2, 60, 100
5, 10168, Note_off_c, 2, 60, 64
5, 10176, Note_on_c, 2, 60, 100
5, 10200, Note_off_c, 2, 60, 64
5, 10240, Note_on_c, 2, 60, 100
5, 10264, Note_off_c, 2, 60, 64
5, 10304, Note_on_c, 2, 60, 100
5, 10328, Note_off_c, 2, 60, 64
5, 10368, Note_on_c, 2, 61, 100
5, 10392, Note_off_c, 2, 61, 64
5, 10432, Note_on_c, 2, 60, 100
5, 10456, Note_off_c, 2, 60, 64
5, 10496, Note_on_c, 2, 60, 100
5, 10520, Note_off_c, 2, 60, 64
5, 10560, Note_on_c, 2, 61, 100
5, 10584, Note_off_c, 2, 61, 64
5, 10624, Note_on_c, 2, 60, 100
5, 10648, Note_off_c, 2, 60, 64
5, 10688, Note_on_c, 2, 60, 100
5, 10712, Note_off_c, 2, 60, 64
5, 10752, Note_on_c, 2, 60, 100
5, 10776, Note_off_c, 2, 60, 64
5, 10784, Note_on_c, 2, 61, 100
5, 10808, Note_off_c, 2, 61, 64
5, 10816, Note_on_c, 2, 61, 100
5, 10840, Note_off_c, 2, 61, 64
5, 10848, Note_on_c, 2, 60, 100
5, 10872, Note_off_c, 2, 60, 64
5, 10880, Note_on_c, 2, 61, 100
5, 10904, Note_off_c, 2, 61, 64
5, 10944, Note_on_c, 2, 60, 100
5, 10968, Note_off_c, 2, 60, 64
5, 11000, Note_on_c, 2, 60, 100
5, 11024, Note_off_c, 2, 60, 64
5, 11024, Note_on_c, 2, 61, 100
5, 11048, Note_off_c, 2, 61, 64
5, 11056, Note_on_c, 2, 60, 100
5, 11080, Note_off_c, 2, 60, 64
5, 11136, Note_on_c, 2, 60, 100
5, 11160, Note_off_c, 2, 60, 64
5, 11200, Note_on_c, 2, 61, 100
5, 11224, Note_off_c, 2, 61, 64
5, 11264, Note_on_c, 2, 61, 100
5, 11288, Note_off_c, 2, 61, 64
5, 11328, Note_on_c, 2, 60, 100
5, 11352, Note_off_c, 2, 60, 64
5, 11392, Note_on_c, 2, 61, 100
5, 11416, Note_off_c, 2, 61, 64
5, 11456, Note_on_c, 2, 61, 100
5, 11480, Note_off_c, 2, 61, 64
5, 11520, Note_on_c, 2, 60, 100
5, 11544, Note_off_c, 2, 60, 64
5, 11584, Note_on_c, 2, 61, 100
5, 11608, Note_off_c, 2, 61, 64
5, 11648, Note_on_c, 2, 60, 100
5, 11672, Note_off_c, 2, 60, 64
5, 11712, Note_on_c, 2, 60, 100
5, 11736, Note_off_c, 2, 60, 64
5, 11776, Note_on_c, 2, 61, 100
5, 11800, Note_off_c, 2, 61, 64
5, 11840, Note_on_c, 2, 60, 100
5, 11864, Note_off_c, 2, 60, 64
5, 11968, Note_on_c, 2, 61, 100
5, 11992, Note_off_c, 2, 61, 64
5, 12032, Note_on_c, 2, 60, 100
5, 12056, Note_off_c, 2, 60, 64
5, 12160, Note_on_c, 2, 61, 100
5, 12184, Note_off_c, 2, 61, 64
5, 12224, Note_on_c, 2, 60, 100
5, 12248, Note_off_c, 2, 60, 64
5, 12288, Note_on_c, 2, 60, 100
5, 12312, Note_off_c, 2, 60, 64
5, 12320, Note_on_c, 2, 61, 100
5, 12344, Note_off_c, 2, 61, 64
5, 12352, Note_on_c, 2, 61, 100
5, 12376, Note_off_c, 2, 61, 64
5, 12384, Note_on_c, 2, 60, 100
5, 12408, Note_off_c, 2, 60, 64
5, 12416, Note_on_c, 2, 61, 100
5, 12440, Note_off_c, 2, 61, 64
5, 12480, Note_on_c, 2, 60, 100
5, 12504, Note_off_c, 2, 60, 64
5, 12544, Note_on_c, 2, 61, 100
5, 12568, Note_off_c, 2, 61, 64
5, 12576, Note_on_c, 2, 60, 100
5, 12600, Note_off_c, 2, 60, 64
5, 12608, Note_on_c, 2, 61, 100
5, 12632, Note_off_c, 2, 61, 64
5, 12736, Note_on_c, 2, 60, 100
5, 12760, Note_off_c, 2, 60, 64
5, 12768, Note_on_c, 2, 61, 100
5, 12792, Note_off_c, 2, 61, 64
5, 12800, Note_on_c, 2, 60, 100
5, 12824, Note_off_c, 2, 60, 64
5, 12928, Note_on_c, 2, 60, 100
5, 12952, Note_off_c, 2, 60, 64
5, 12960, Note_on_c, 2, 61, 100
5, 12984, Note_off_c, 2, 61, 64
5, 12992, Note_on_c, 2, 60, 100
5, 13016, Note_off_c, 2, 60, 64
5, 13056, Note_on_c, 2, 60, 100
5, 13080, Note_off_c, 2, 60, 64
5, 15360, Note_on_c, 2, 60, 100
5, 15384, Note_off_c, 2, 60, 64
5, 15392, Note_on_c, 2, 61, 100
5, 15416, Note_off_c, 2, 61, 64
5, 15424, Note_on_c, 2, 60, 100
5, 15448, Note_off_c, 2, 60, 64
5, 15456, Note_on_c, 2, 60, 100
5, 15480, Note_off_c, 2, 60, 64
5, 15488, Note_on_c, 2, 61, 100
5, 15512, Note_off_c, 2, 61, 64
5, 15520, Note_on_c, 2, 61, 100
5, 15544, Note_off_c, 2, 61, 64
5, 15552, Note_on_c, 2, 60, 100
5, 15576, Note_off_c, 2, 60, 64
5, 15616, Note_on_c, 2, 60, 100
5, 15640, Note_off_c, 2, 60, 64
5, 15680, Note_on_c, 2, 60, 100
5, 15704, Note_off_c, 2, 60, 64
5, 15744, Note_on_c, 2, 61, 100
5, 15768, Note_off_c, 2, 61, 64
5, 15808, Note_on_c, 2, 60, 100
5, 15832, Note_off_c, 2, 60, 64
5, 15872, Note_on_c, 2, 60, 100
5, 15896, Note_off_c, 2, 60, 64
5, 15936, Note_on_c, 2, 61, 100
5, 15960, Note_off_c, 2, 61, 64
5, 16000, Note_on_c, 2, 60, 100
5, 16024, Note_off_c, 2, 60, 64
5, 16064, Note_on_c, 2, 60, 100
5, 16088, Note_off_c, 2, 60, 64
5, 16128, Note_on_c, 2, 60, 100
5, 16152, Note_off_c, 2, 60, 64
5, 16160, Note_on_c, 2, 61, 100
5, 16184, Note_off_c, 2, 61, 64
5, 16192, Note_on_c, 2, 61, 100
5, 16216, Note_off_c, 2, 61, 64
5, 16224, Note_on_c, 2, 61, 100
5, 16248, Note_off_c, 2, 61, 64
5, 16256, Note_on_c, 2, 60, 100
5, 16280, Note_off_c, 2, 60, 64
5, 16288, Note_on_c, 2, 61, 100
5, 16312, Note_off_c, 2, 61, 64
5, 16320, Note_on_c, 2, 60, 100
5, 16344, Note_off_c, 2, 60, 64
5, 16368, Note_on_c, 2, 61, 100
5, 16392, Note_off_c, 2, 61, 64
5, 16408, Note_on_c, 2, 61, 100
5, 16432, Note_off_c, 2, 61, 64
5, 16440, Note_on_c, 2, 60, 100
5, 16464, Note_off_c, 2, 60, 64
5, 16512, Note_on_c, 2, 61, 100
5, 16536, Note_off_c, 2, 61, 64
5, 20160, Note_on_c, 2, 60, 100
5, 20184, Note_off_c, 2, 60, 64
5, 20224, Note_on_c, 2, 61, 100
5, 20248, Note_off_c, 2, 61, 64
5, 20288, Note_on_c, 2, 61, 100
5, 20312, Note_off_c, 2, 61, 64
5, 20352, Note_on_c, 2, 60, 100
5, 20376, Note_off_c, 2, 60, 64
5, 20416, Note_on_c, 2, 61, 100
5, 20440, Note_off_c, 2, 61, 64
5, 20480, Note_on_c, 2, 61, 100
5, 20504, Note_off_c, 2, 61, 64
5, 20544, Note_on_c, 2, 60, 100
5, 20568, Note_off_c, 2, 60, 64
5, 20608, Note_on_c, 2, 61, 100
5, 20632, Note_off_c, 2, 61, 64
5, 20672, Note_on_c, 2, 61, 100
5, 20696, Note_off_c, 2, 61, 64
5, 20736, Note_on_c, 2, 60, 100
5, 20760, Note_off_c, 2, 60, 64
5, 20800, Note_on_c, 2, 61, 100
5, 20824, Note_off_c, 2, 61, 64
5, 20864, Note_on_c, 2, 61, 100
5, 20888, Note_off_c, 2, 61, 64
5, 20896, Note_on_c, 2, 61, 100
5, 20920, Note_off_c, 2, 61, 64
5, 20928, Note_on_c, 2, 60, 100
5, 20952, Note_off_c, 2, 60, 64
5, 20992, Note_on_c, 2, 61, 100
5, 21016, Note_off_c, 2, 61, 64
5, 21056, Note_on_c, 2, 61, 100
5, 21080, Note_off_c, 2, 61, 64
5, 21088, Note_on_c, 2, 61, 100
5, 21112, Note_off_c, 2, 61, 64
5, 21120, Note_on_c, 2, 60, 100
5, 21144, Note_off_c, 2, 60, 64
5, 21184, Note_on_c, 2, 61, 100
5, 21208, Note_off_c, 2, 61, 64
5, 21248, Note_on_c, 2, 61, 100
5, 21272, Note_off_c, 2, 61, 64
5, 21280, Note_on_c, 2, 61, 100
5, 21304, Note_off_c, 2, 61, 64
5, 21312, Note_on_c, 2, 60, 100
5, 21336, Note_off_c, 2, 60, 64
5, 21376, Note_on_c, 2, 61, 100
5, 21400, Note_off_c, 2, 61, 64
5, 21440, Note_on_c, 2, 61, 100
5, 21464, Note_off_c, 2, 61, 64
5, 21504, Note_on_c, 2, 60, 100
5, 21528, Note_off_c, 2, 60, 64
5, 21568, Note_on_c, 2, 61, 100
5, 21592, Note_off_c, 2, 61, 64
5, 21632, Note_on_c, 2, 61, 100
5, 21656, Note_off_c, 2, 61, 64
5, 21696, Note_on_c, 2, 60, 100
5, 21720, Note_off_c, 2, 60, 64
5, 21760, Note_on_c, 2, 61, 100
5, 21784, Note_off_c, 2, 61, 64
5, 21824, Note_on_c, 2, 61, 100
5, 21848, Note_off_c, 2, 61, 64
5, 21888, Note_on_c, 2, 60, 100
5, 21912, Note_off_c, 2, 60, 64
5, 21952, Note_on_c, 2, 61, 100
5, 21976, Note_off_c, 2, 61, 64
5, 22016, Note_on_c, 2, 61, 100
5, 22040, Note_off_c, 2, 61, 64
5, 22080, Note_on_c, 2, 60, 100
5, 22104, Note_off_c, 2, 60, 64
5, 22144, Note_on_c, 2, 61, 100
5, 22168, Note_off_c, 2, 61, 64
5, 22208, Note_on_c, 2, 61, 100
5, 22232, Note_off_c, 2, 61, 64
5, 22272, Note_on_c, 2, 60, 100
5, 22296, Note_off_c, 2, 60, 64
5, 22336, Note_on_c, 2, 61, 100
5, 22360, Note_off_c, 2, 61, 64
5, 22400, Note_on_c, 2, 61, 100
5, 22424, Note_off_c, 2, 61, 64
5, 22432, Note_on_c, 2, 61, 100
5, 22456, Note_off_c, 2, 61, 64
5, 22464, Note_on_c, 2, 60, 100
5, 22488, Note_off_c, 2, 60, 64
5, 22528, Note_on_c, 2, 61, 100
5, 22552, Note_off_c, 2, 61, 64
5, 22592, Note_on_c, 2, 61, 100
5, 22616, Note_off_c, 2, 61, 64
5, 22624, Note_on_c, 2, 61, 100
5, 22648, Note_off_c, 2, 61, 64
5, 22656, Note_on_c, 2, 60, 100
5, 22680, Note_off_c, 2, 60, 64
5, 22720, Note_on_c, 2, 61, 100
5, 22744, Note_off_c, 2, 61, 64
5, 22784, Note_on_c, 2, 61, 100
5, 22808, Note_off_c, 2, 61, 64
5, 22816, Note_on_c, 2, 61, 100
5, 22840, Note_off_c, 2, 61, 64
5, 22848, Note_on_c, 2, 60, 100
5, 22872, Note_off_c, 2, 60, 64
5, 22912, Note_on_c, 2, 61, 100
5, 22936, Note_off_c, 2, 61, 64
5, 22976, Note_on_c, 2, 61, 100
5, 23000, Note_off_c, 2, 61, 64
5, 23040, Note_on_c, 2, 60, 100
5, 23064, Note_off_c, 2, 60, 64
5, 23072, Note_on_c, 2, 61, 100
5, 23096, Note_off_c, 2, 61, 64
5, 23104, Note_on_c, 2, 60, 100
5, 23128, Note_off_c, 2, 60, 64
5, 23136, Note_on_c, 2, 60, 100
5, 23160, Note_off_c, 2, 60, 64
5, 23168, Note_on_c, 2, 61, 100
5, 23192, Note_off_c, 2, 61, 64
5, 23200, Note_on_c, 2, 61, 100
5, 23224, Note_off_c, 2, 61, 64
5, 23232, Note_on_c, 2, 60, 100
5, 23256, Note_off_c, 2, 60, 64
5, 23296, Note_on_c, 2, 60, 100
5, 23320, Note_off_c, 2, 60, 64
5, 23360, Note_on_c, 2, 60, 100
5, 23384, Note_off_c, 2, 60, 64
5, 23424, Note_on_c, 2, 61, 100
5, 23448, Note_off_c, 2, 61, 64
5, 23488, Note_on_c, 2, 60, 100
5, 23512, Note_off_c, 2, 60, 64
5, 23552, Note_on_c, 2, 60, 100
5, 23576, Note_off_c, 2, 60, 64
5, 23616, Note_on_c, 2, 61, 100
5, 23640, Note_off_c, 2, 61, 64
5, 23680, Note_on_c, 2, 60, 100
5, 23704, Note_off_c, 2, 60, 64
5, 23744, Note_on_c, 2, 60, 100
5, 23768, Note_off_c, 2, 60, 64
5, 23808, Note_on_c, 2, 60, 100
5, 23832, Note_off_c, 2, 60, 64
5, 23840, Note_on_c, 2, 61, 100
5, 23864, Note_off_c, 2, 61, 64
5, 23872, Note_on_c, 2, 61, 100
5, 23896, Note_off_c, 2, 61, 64
5, 23904, Note_on_c, 2, 61, 100
5, 23928, Note_off_c, 2, 61, 64
5, 23936, Note_on_c, 2, 60, 100
5, 23960, Note_off_c, 2, 60, 64
5, 24056, Note_on_c, 2, 61, 100
5, 24080, Note_off_c, 2, 61, 64
5, 24088, Note_on_c, 2, 61, 100
5, 24112, Note_off_c, 2, 61, 64
5, 24112, Note_on_c, 2, 60, 100
5, 24136, Note_off_c, 2, 60, 64
5, 24192, Note_on_c, 2, 61, 100
5, 24216, Note_off_c, 2, 61, 64
5, 24256, Note_on_c, 2, 60, 100
5, 24280, Note_off_c, 2, 60, 64
5, 24320, Note_on_c, 2, 60, 100
5, 24344, Note_off_c, 2, 60, 64
5, 24448, Note_on_c, 2, 60, 100
5, 24472, Note_off_c, 2, 60, 64
5, 24512, Note_on_c, 2, 60, 100
5, 24536, Note_off_c, 2, 60, 64
5, 24576, Note_on_c, 2, 60, 100
5, 24600, Note_off_c, 2, 60, 64
5, 24608, Note_on_c, 2, 61, 100
5, 24632, Note_off_c, 2, 61, 64
5, 24640, Note_on_c, 2, 60, 100
5, 24664, Note_off_c, 2, 60, 64
5, 24672, Note_on_c, 2, 60, 100
5, 24696, Note_off_c, 2, 60, 64
5, 24704, Note_on_c, 2, 61, 100
5, 24728, Note_off_c, 2, 61, 64
5, 24736, Note_on_c, 2, 61, 100
5, 24760, Note_off_c, 2, 61, 64
5, 24832, Note_on_c, 2, 60, 100
5, 24856, Note_off_c, 2, 60, 64
5, 24896, Note_on_c, 2, 60, 100
5, 24920, Note_off_c, 2, 60, 64
5, 24960, Note_on_c, 2, 61, 100
5, 24984, Note_off_c, 2, 61, 64
5, 25024, Note_on_c, 2, 60, 100
5, 25048, Note_off_c, 2, 60, 64
5, 25088, Note_on_c, 2, 60, 100
5, 25112, Note_off_c, 2, 60, 64
5, 25216, Note_on_c, 2, 60, 100
5, 25240, Note_off_c, 2, 60, 64
5, 25280, Note_on_c, 2, 60, 100
5, 25304, Note_off_c, 2, 60, 64
5, 25344, Note_on_c, 2, 60, 100
5, 25368, Note_off_c, 2, 60, 64
5, 25376, Note_on_c, 2, 61, 100
5, 25400, Note_off_c, 2, 61, 64
5, 25408, Note_on_c, 2, 61, 100
5, 25432, Note_off_c, 2, 61, 64
5, 25440, Note_on_c, 2, 61, 100
5, 25464, Note_off_c, 2, 61, 64
5, 25472, Note_on_c, 2, 60, 100
5, 25496, Note_off_c, 2, 60, 64
5, 25592, Note_on_c, 2, 61, 100
5, 25616, Note_off_c, 2, 61, 64
5, 25624, Note_on_c, 2, 61, 100
5, 25648, Note_off_c, 2, 61, 64
5, 25648, Note_on_c, 2, 60, 100
5, 25672, Note_off_c, 2, 60, 64
5, 25728, Note_on_c, 2, 61, 100
5, 25752, Note_off_c, 2, 61, 64
5, 25792, Note_on_c, 2, 60, 100
5, 25816, Note_off_c, 2, 60, 64
5, 25856, Note_on_c, 2, 60, 100
5, 25880, Note_off_c, 2, 60, 64
5, 25984, Note_on_c, 2, 60, 100
5, 26008, Note_off_c, 2, 60, 64
5, 26048, Note_on_c, 2, 60, 100
5, 26072, Note_off_c, 2, 60, 64
5, 28416, Program_c, 2, 0
5, 28417, Program_c, 2, 0
5, 28417, End_track
6, 0, Start_track
6, 0, Title_t, "large"
6, 0, Program_c, 3, 0
6, 0, Program_c, 3, 0
6, 0, Note_on_c, 3, 0, 100
6, 0, Program_c, 3, 0
6, 48, Note_off_c, 3, 0, 64
6, 1920, Note_on_c, 3, 61, 100
6, 1956, Note_off_c, 3, 61, 64
6, 2016, Note_on_c, 3, 60, 100
6, 2052, Note_off_c, 3, 60, 64
6, 2076, Note_on_c, 3, 61, 100
6, 2112, Note_off_c, 3, 61, 64
6, 2112, Note_on_c, 3, 60, 100
6, 2148, Note_off_c, 3, 60, 64
6, 2232, Note_on_c, 3, 60, 100
6, 2268, Note_off_c, 3, 60, 64
6, 2688, Note_on_c, 3, 60, 100
6, 2720, Note_on_c, 3, 61, 100
6, 2724, Note_off_c, 3, 60, 64
6, 2752, Note_on_c, 3, 61, 100
6, 2756, Note_off_c, 3, 61, 64
6, 2784, Note_on_c, 3, 60, 100
6, 2788, Note_off_c, 3, 61, 64
6, 2816, Note_on_c, 3, 61, 100
6, 2820, Note_off_c, 3, 60, 64
6, 2852, Note_off_c, 3, 61, 64
6, 6976, Note_on_c, 3, 61, 100
6, 7012, Note_off_c, 3, 61, 64
6, 7040, Note_on_c, 3, 60, 100
6, 7076, Note_off_c, 3, 60, 64
6, 7104, Note_on_c, 3, 60, 100
6, 7140, Note_off_c, 3, 60, 64
6, 23232, Note_on_c, 3, 60, 100
6, 23264, Note_off_c, 3, 60, 64
6, 23616, Note_on_c, 3, 61, 100
6, 23648, Note_off_c, 3, 61, 64
6, 24000, Note_on_c, 3, 60, 100
6, 24032, Note_off_c, 3, 60, 64
6, 24384, Note_on_c, 3, 61, 100
6, 24416, Note_off_c, 3, 61, 64
6, 24768, Note_on_c, 3, 60, 100
6, 24800, Note_off_c, 3, 60, 64
6, 25152, Note_on_c, 3, 61, 100
6, 25184, Note_off_c, 3, 61, 64
6, 25536, Note_on_c, 3, 60, 100
6, 25568, Note_off_c, 3, 60, 64
6, 25920, Note_on_c, 3, 61, 100
6, 25952, Note_off_c, 3, 61, 64
6, 28416, Program_c, 3, 0
6, 28417, Program_c, 3, 0
6, 28417, End_track
7, 0, Start_track
7, 0, Title_t, "long"
7, 0, Note_on_c, 4, 0, 100
7, 48, Note_off_c, 4, 0, 64
7, 2304, Note_on_c, 4, 61, 100
7, 2496, Note_off_c, 4, 61, 64
7, 2496, Note_on_c, 4, 60, 100
7, 2688, Note_off_c, 4, 60, 64
7, 2880, Note_on_c, 4, 61, 100
7, 2976, Note_off_c, 4, 61, 64
7, 2976, Note_on_c, 4, 60, 100
7, 3072, Note_off_c, 4, 60, 64
7, 3072, Note_on_c, 4, 61, 100
7, 3168, Note_off_c, 4, 61, 64
7, 3168, Note_on_c, 4, 60, 100
7, 3264, Note_off_c, 4, 60, 64
7, 3264, Note_on_c, 4, 61, 100
7, 3360, Note_off_c, 4, 61, 64
7, 3360, Note_on_c, 4, 60, 100
7, 3456, Note_off_c, 4, 60, 64
7, 3456, Note_on_c, 4, 61, 100
7, 3552, Note_off_c, 4, 61, 64
7, 3552, Note_on_c, 4, 60, 100
7, 3648, Note_off_c, 4, 60, 64
7, 3648, End_track
8, 0, Start_track
8, 0, Title_t, "boss"
8, 0, Program_c, 5, 0
8, 0, Program_c, 5, 0
8, 0, Note_on_c, 5, 0, 100
8, 0, Program_c, 5, 0
8, 48, Note_off_c, 5, 0, 64
8, 11904, Note_on_c, 5, 60, 100
8, 11936, Note_off_c, 5, 60, 64
8, 12096, Note_on_c, 5, 60, 100
8, 12128, Note_off_c, 5, 60, 64
8, 12672, Note_on_c, 5, 60, 100
8, 12704, Note_off_c, 5, 60, 64
8, 12864, Note_on_c, 5, 60, 100
8, 12896, Note_off_c, 5, 60, 64
8, 28416, Program_c, 5, 0
8, 28417, Program_c, 5, 0
8, 28417, End_track
9, 0, Start_track
9, 0, Title_t, "fantome"
9, 0, Note_on_c, 6, 0, 100
9, 48, Note_off_c, 6, 0, 64
9, 1968, Note_on_c, 6, 61, 100
9, 1992, Note_off_c, 6, 61, 64
9, 2048, Note_on_c, 6, 61, 100
9, 2072, Note_off_c, 6, 61, 64
9, 2176, Note_on_c, 6, 61, 100
9, 2200, Note_off_c, 6, 61, 64
9, 3136, Note_on_c, 6, 60, 100
9, 3160, Note_off_c, 6, 60, 64
9, 3200, Note_on_c, 6, 61, 100
9, 3224, Note_off_c, 6, 61, 64
9, 3224, End_track
10, 0, Start_track
10, 0, Title_t, "normal"
10, 0, Program_c, 7, 0
10, 0, Program_c, 7, 0
10, 0, Note_on_c, 7, 0, 100
10, 0, Program_c, 7, 0
10, 48, Note_off_c, 7, 0, 64
10, 3840, Note_on_c, 7, 52, 100
10, 3840, Note_on_c, 7, 42, 100
10, 3840, Note_on_c, 7, 78, 100
10, 4128, Note_off_c, 7, 52, 64
10, 4176, Note_on_c, 7, 60, 100
10, 4368, Note_off_c, 7, 60, 64
10, 4368, Note_on_c, 7, 69, 100
10, 4392, Note_off_c, 7, 69, 64
10, 4392, Note_on_c, 7, 74, 100
10, 4416, Note_off_c, 7, 74, 64
10, 4416, Note_on_c, 7, 64, 100
10, 4464, Note_off_c, 7, 64, 64
10, 4512, Note_on_c, 7, 67, 100
10, 4608, Note_off_c, 7, 67, 64
10, 4608, Note_on_c, 7, 72, 100
10, 4752, Note_off_c, 7, 72, 64
10, 4752, Note_on_c, 7, 64, 100
10, 4992, Note_off_c, 7, 64, 64
10, 4992, Note_on_c, 7, 74, 100
10, 5280, Note_off_c, 7, 74, 64
10, 5376, Note_on_c, 7, 53, 100
10, 5664, Note_off_c, 7, 53, 64
10, 5696, Note_on_c, 7, 61, 100
10, 5720, Note_off_c, 7, 61, 64
10, 5760, Note_on_c, 7, 71, 100
10, 5856, Note_off_c, 7, 71, 64
10, 5856, Note_on_c, 7, 74, 100
10, 5952, Note_off_c, 7, 74, 64
10, 5952, Note_on_c, 7, 65, 100
10, 6048, Note_off_c, 7, 65, 64
10, 6048, Note_on_c, 7, 59, 100
10, 6144, Note_off_c, 7, 59, 64
10, 6144, Note_on_c, 7, 52, 100
10, 6528, Note_off_c, 7, 78, 64
10, 6528, Note_off_c, 7, 42, 64
10, 6528, Note_off_c, 7, 52, 64
10, 16896, Note_on_c, 7, 52, 100
10, 16896, Note_on_c, 7, 42, 100
10, 16896, Note_on_c, 7, 78, 100
10, 16928, Note_off_c, 7, 52, 64
10, 16992, Note_on_c, 7, 57, 100
10, 17024, Note_off_c, 7, 57, 64
10, 17088, Note_on_c, 7, 62, 100
10, 17120, Note_off_c, 7, 62, 64
10, 17184, Note_on_c, 7, 69, 100
10, 17216, Note_off_c, 7, 69, 64
10, 17280, Note_on_c, 7, 74, 100
10, 17312, Note_off_c, 7, 74, 64
10, 17376, Note_on_c, 7, 67, 100
10, 17408, Note_off_c, 7, 67, 64
10, 17472, Note_on_c, 7, 62, 100
10, 17504, Note_off_c, 7, 62, 64
10, 17664, Note_on_c, 7, 64, 100
10, 17696, Note_off_c, 7, 64, 64
10, 17760, Note_on_c, 7, 69, 100
10, 17792, Note_off_c, 7, 69, 64
10, 17856, Note_on_c, 7, 74, 100
10, 17888, Note_off_c, 7, 74, 64
10, 17952, Note_on_c, 7, 71, 100
10, 17984, Note_off_c, 7, 71, 64
10, 18048, Note_on_c, 7, 67, 100
10, 18080, Note_off_c, 7, 67, 64
10, 18144, Note_on_c, 7, 71, 100
10, 18176, Note_off_c, 7, 71, 64
10, 18240, Note_on_c, 7, 77, 100
10, 18272, Note_off_c, 7, 77, 64
10, 18336, Note_on_c, 7, 74, 100
10, 18368, Note_off_c, 7, 74, 64
10, 18432, Note_on_c, 7, 57, 100
10, 18464, Note_off_c, 7, 57, 64
10, 18528, Note_on_c, 7, 64, 100
10, 18560, Note_off_c, 7, 64, 64
10, 18624, Note_on_c, 7, 69, 100
10, 18656, Note_off_c, 7, 69, 64
10, 18720, Note_on_c, 7, 76, 100
10, 18752, Note_off_c, 7, 76, 64
10, 18816, Note_on_c, 7, 69, 100
10, 18848, Note_off_c, 7, 69, 64
10, 18912, Note_on_c, 7, 65, 100
10, 18944, Note_off_c, 7, 65, 64
10, 19008, Note_on_c, 7, 59, 100
10, 19040, Note_off_c, 7, 59, 64
10, 19200, Note_on_c, 7, 64, 100
10, 19232, Note_off_c, 7, 64, 64
10, 19296, Note_on_c, 7, 69, 100
10, 19328, Note_off_c, 7, 69, 64
10, 19392, Note_on_c, 7, 74, 100
10, 19424, Note_off_c, 7, 74, 64
10, 19488, Note_on_c, 7, 69, 100
10, 19520, Note_off_c, 7, 69, 64
10, 19584, Note_on_c, 7, 74, 100
10, 19616, Note_off_c, 7, 74, 64
10, 19680, Note_on_c, 7, 71, 100
10, 19712, Note_off_c, 7, 71, 64
10, 19776, Note_on_c, 7, 74, 100
10, 19808, Note_off_c, 7, 74, 64
10, 19872, Note_on_c, 7, 77, 100
10, 19904, Note_off_c, 7, 77, 64
10, 19968, Note_off_c, 7, 78, 64
10, 19968, Note_off_c, 7, 42, 64
10, 28416, Program_c, 7, 0
10, 28417, Program_c, 7, 0
10, 28417, End_track
11, 0, Start_track
11, 0, Title_t, "liee"
11, 0, Control_c, 8, 10, 64
11, 0, Control_c, 8, 7, 100
11, 0, Pitch_bend_c, 8, 8192
11, 0, Control_c, 8, 101, 0
11, 0, Control_c, 8, 100, 0
11, 0, Control_c, 8, 6, 12
11, 0, Control_c, 8, 10, 64
11, 0, Control_c, 8, 7, 100
11, 0, Pitch_bend_c, 8, 8192
11, 0, Control_c, 8, 101, 0
11, 0, Control_c, 8, 100, 0
11, 0, Control_c, 8, 6, 12
11, 0, Control_c, 8, 10, 64
11, 0, Control_c, 8, 7, 100
11, 0, Pitch_bend_c, 8, 8192
11, 0, Note_on_c, 8, 0, 100
11, 0, Control_c, 8, 101, 0
11, 0, Control_c, 8, 100, 0
11, 0, Control_c, 8, 6, 12
11, 0, Control_c, 8, 10, 64
11, 0, Control_c, 8, 7, 100
11, 0, Pitch_bend_c, 8, 8192
11, 48, Note_off_c, 8, 0, 64
11, 4360, Note_on_c, 8, 41, 100
11, 4456, Note_off_c, 8, 41, 64
11, 5752, Note_on_c, 8, 41, 100
11, 6520, Note_off_c, 8, 41, 64
11, 28416, Control_c, 8, 101, 0
11, 28416, Control_c, 8, 100, 0
11, 28416, Control_c, 8, 6, 12
11, 28416, Control_c, 8, 10, 64
11, 28416, Control_c, 8, 7, 100
11, 28416, Pitch_bend_c, 8, 8192
11, 28417, Control_c, 8, 101, 0
11, 28417, Control_c, 8, 100, 0
11, 28417, Control_c, 8, 6, 12
11, 28417, Control_c, 8, 10, 64
11, 28417, Control_c, 8, 7, 100
11, 28417, Pitch_bend_c, 8, 8192
11, 28417, End_track
12, 0, Start_track
12, 0, Title_t, "silence"
12, 0, Control_c, 9, 0, 1
12, 0, Control_c, 9, 32, 8
12, 0, Control_c, 9, 0, 1
12, 0, Control_c, 9, 32, 8
12, 0, Note_on_c, 9, 0, 100
12, 0, Control_c, 9, 0, 1
12, 0, Control_c, 9, 32, 8
12, 48, Note_off_c, 9, 0, 64
12, 4144, Note_on_c, 9, 60, 100
12, 4160, Note_off_c, 9, 60, 64
12, 5328, Note_on_c, 9, 61, 100
12, 5352, Note_off_c, 9, 61, 64
12, 28416, Control_c, 9, 0, 1
12, 28416, Control_c, 9, 32, 8
12, 28417, Control_c, 9, 0, 1
12, 28417, Control_c, 9, 32, 8
12, 28417, End_track
13, 0, Start_track
13, 0, Title_t, "cube"
13, 0, Note_on_c, 0, 0, 100
13, 48, Note_off_c, 0, 0, 64
13, 13344, Note_on_c, 0, 66, 100
13, 13344, Note_on_c, 0, 59, 100
13, 13512, Note_on_c, 0, 65, 100
13, 13536, Note_off_c, 0, 65, 64
13, 13536, Note_on_c, 0, 60, 100
13, 13536, Note_on_c, 0, 61, 100
13, 13536, Note_on_c, 0, 62, 100
13, 13536, Note_on_c, 0, 65, 100
13, 13560, Note_off_c, 0, 65, 64
13, 13560, Note_off_c, 0, 62, 64
13, 13560, Note_off_c, 0, 60, 64
13, 13560, Note_off_c, 0, 61, 64
13, 13560, Note_on_c, 0, 60, 100
13, 13560, Note_on_c, 0, 61, 100
13, 13560, Note_on_c, 0, 62, 100
13, 13560, Note_on_c, 0, 65, 100
13, 13584, Note_off_c, 0, 65, 64
13, 13584, Note_off_c, 0, 62, 64
13, 13584, Note_off_c, 0, 61, 64
13, 13584, Note_off_c, 0, 60, 64
13, 13584, Note_on_c, 0, 60, 100
13, 13584, Note_on_c, 0, 61, 100
13, 13608, Note_off_c, 0, 61, 64
13, 13608, Note_off_c, 0, 60, 64
13, 13608, Note_on_c, 0, 60, 100
13, 13632, Note_off_c, 0, 60, 64
13, 13656, Note_on_c, 0, 60, 100
13, 13680, Note_off_c, 0, 60, 64
13, 13680, Note_on_c, 0, 60, 100
13, 13680, Note_on_c, 0, 61, 100
13, 13704, Note_off_c, 0, 61, 64
13, 13704, Note_off_c, 0, 60, 64
13, 13704, Note_on_c, 0, 60, 100
13, 13704, Note_on_c, 0, 61, 100
13, 13704, Note_on_c, 0, 62, 100
13, 13704, Note_on_c, 0, 65, 100
13, 13728, Note_off_c, 0, 65, 64
13, 13728, Note_off_c, 0, 62, 64
13, 13728, Note_off_c, 0, 60, 64
13, 13728, Note_off_c, 0, 61, 64
13, 13728, Note_on_c, 0, 60, 100
13, 13728, Note_on_c, 0, 61, 100
13, 13728, Note_on_c, 0, 62, 100
13, 13728, Note_on_c, 0, 65, 100
13, 13752, Note_off_c, 0, 65, 64
13, 13752, Note_off_c, 0, 62, 64
13, 13752, Note_off_c, 0, 61, 64
13, 13752, Note_off_c, 0, 60, 64
13, 13752, Note_on_c, 0, 65, 100
13, 13776, Note_off_c, 0, 65, 64
13, 13896, Note_on_c, 0, 60, 100
13, 13920, Note_off_c, 0, 60, 64
13, 13920, Note_on_c, 0, 65, 100
13, 13920, Note_on_c, 0, 63, 100
13, 13920, Note_on_c, 0, 64, 100
13, 13920, Note_on_c, 0, 60, 100
13, 13944, Note_off_c, 0, 60, 64
13, 13944, Note_off_c, 0, 65, 64
13, 13944, Note_off_c, 0, 63, 64
13, 13944, Note_off_c, 0, 64, 64
13, 13944, Note_on_c, 0, 65, 100
13, 13944, Note_on_c, 0, 64, 100
13, 13944, Note_on_c, 0, 63, 100
13, 13944, Note_on_c, 0, 60, 100
13, 13968, Note_off_c, 0, 60, 64
13, 13968, Note_off_c, 0, 63, 64
13, 13968, Note_off_c, 0, 64, 64
13, 13968, Note_off_c, 0, 65, 64
13, 13968, Note_on_c, 0, 65, 100
13, 13968, Note_on_c, 0, 64, 100
13, 13992, Note_off_c, 0, 64, 64
13, 13992, Note_off_c, 0, 65, 64
13, 13992, Note_on_c, 0, 65, 100
13, 14016, Note_off_c, 0, 65, 64
13, 14040, Note_on_c, 0, 65, 100
13, 14064, Note_off_c, 0, 65, 64
13, 14064, Note_on_c, 0, 65, 100
13, 14064, Note_on_c, 0, 64, 100
13, 14088, Note_off_c, 0, 64, 64
13, 14088, Note_off_c, 0, 65, 64
13, 14088, Note_on_c, 0, 65, 100
13, 14088, Note_on_c, 0, 64, 100
13, 14088, Note_on_c, 0, 63, 100
13, 14088, Note_on_c, 0, 60, 100
13, 14112, Note_off_c, 0, 60, 64
13, 14112, Note_off_c, 0, 63, 64
13, 14112, Note_off_c, 0, 65, 64
13, 14112, Note_off_c, 0, 64, 64
13, 14112, Note_on_c, 0, 65, 100
13, 14112, Note_on_c, 0, 64, 100
13, 14112, Note_on_c, 0, 63, 100
13, 14112, Note_on_c, 0, 60, 100
13, 14136, Note_off_c, 0, 60, 64
13, 14136, Note_off_c, 0, 63, 64
13, 14136, Note_off_c, 0, 64, 64
13, 14136, Note_off_c, 0, 65, 64
13, 14136, Note_on_c, 0, 60, 100
13, 14160, Note_off_c, 0, 60, 64
13, 14280, Note_on_c, 0, 65, 100
13, 14304, Note_off_c, 0, 65, 64
13, 14304, Note_on_c, 0, 60, 100
13, 14304, Note_on_c, 0, 61, 100
13, 14304, Note_on_c, 0, 62, 100
13, 14304, Note_on_c, 0, 65, 100
13, 14328, Note_off_c, 0, 65, 64
13, 14328, Note_off_c, 0, 60, 64
13, 14328, Note_off_c, 0, 61, 64
13, 14328, Note_off_c, 0, 62, 64
13, 14328, Note_on_c, 0, 60, 100
13, 14328, Note_on_c, 0, 61, 100
13, 14328, Note_on_c, 0, 62, 100
13, 14328, Note_on_c, 0, 65, 100
13, 14352, Note_off_c, 0, 65, 64
13, 14352, Note_off_c, 0, 62, 64
13, 14352, Note_off_c, 0, 61, 64
13, 14352, Note_off_c, 0, 60, 64
13, 14352, Note_on_c, 0, 60, 100
13, 14352, Note_on_c, 0, 61, 100
13, 14376, Note_off_c, 0, 61, 64
13, 14376, Note_off_c, 0, 60, 64
13, 14376, Note_on_c, 0, 60, 100
13, 14400, Note_off_c, 0, 60, 64
13, 14424, Note_on_c, 0, 60, 100
13, 14448, Note_off_c, 0, 60, 64
13, 14448, Note_on_c, 0, 60, 100
13, 14448, Note_on_c, 0, 61, 100
13, 14472, Note_off_c, 0, 61, 64
13, 14472, Note_off_c, 0, 60, 64
13, 14472, Note_on_c, 0, 60, 100
13, 14472, Note_on_c, 0, 61, 100
13, 14472, Note_on_c, 0, 62, 100
13, 14472, Note_on_c, 0, 65, 100
13, 14496, Note_off_c, 0, 65, 64
13, 14496, Note_off_c, 0, 62, 64
13, 14496, Note_off_c, 0, 60, 64
13, 14496, Note_off_c, 0, 61, 64
13, 14496, Note_on_c, 0, 60, 100
13, 14496, Note_on_c, 0, 61, 100
13, 14496, Note_on_c, 0, 62, 100
13, 14496, Note_on_c, 0, 65, 100
13, 14520, Note_off_c, 0, 65, 64
13, 14520, Note_off_c, 0, 62, 64
13, 14520, Note_off_c, 0, 61, 64
13, 14520, Note_off_c, 0, 60, 64
13, 14520, Note_on_c, 0, 65, 100
13, 14544, Note_off_c, 0, 65, 64
13, 14664, Note_on_c, 0, 60, 100
13, 14688, Note_off_c, 0, 60, 64
13, 14688, Note_on_c, 0, 65, 100
13, 14688, Note_on_c, 0, 63, 100
13, 14688, Note_on_c, 0, 64, 100
13, 14688, Note_on_c, 0, 60, 100
13, 14712, Note_off_c, 0, 60, 64
13, 14712, Note_off_c, 0, 65, 64
13, 14712, Note_off_c, 0, 63, 64
13, 14712, Note_off_c, 0, 64, 64
13, 14712, Note_on_c, 0, 65, 100
13, 14712, Note_on_c, 0, 64, 100
13, 14712, Note_on_c, 0, 63, 100
13, 14712, Note_on_c, 0, 60, 100
13, 14736, Note_off_c, 0, 60, 64
13, 14736, Note_off_c, 0, 63, 64
13, 14736, Note_off_c, 0, 64, 64
13, 14736, Note_off_c, 0, 65, 64
13, 14736, Note_on_c, 0, 65, 100
13, 14736, Note_on_c, 0, 64, 100
13, 14760, Note_off_c, 0, 64, 64
13, 14760, Note_off_c, 0, 65, 64
13, 14760, Note_on_c, 0, 65, 100
13, 14784, Note_off_c, 0, 65, 64
13, 14808, Note_on_c, 0, 65, 100
13, 14832, Note_off_c, 0, 65, 64
13, 14832, Note_on_c, 0, 65, 100
13, 14832, Note_on_c, 0, 64, 100
13, 14856, Note_off_c, 0, 64, 64
13, 14856, Note_off_c, 0, 65, 64
13, 14856, Note_on_c, 0, 65, 100
13, 14856, Note_on_c, 0, 64, 100
13, 14856, Note_on_c, 0, 63, 100
13, 14856, Note_on_c, 0, 60, 100
13, 14880, Note_off_c, 0, 60, 64
13, 14880, Note_off_c, 0, 63, 64
13, 14880, Note_off_c, 0, 65, 64
13, 14880, Note_off_c, 0, 64, 64
13, 14880, Note_on_c, 0, 65, 100
13, 14880, Note_on_c, 0, 64, 100
13, 14880, Note_on_c, 0, 63, 100
13, 14880, Note_on_c, 0, 60, 100
13, 14904, Note_off_c, 0, 60, 64
13, 14904, Note_off_c, 0, 63, 64
13, 14904, Note_off_c, 0, 64, 64
13, 14904, Note_off_c, 0, 65, 64
13, 14904, Note_on_c, 0, 60, 100
13, 14928, Note_off_c, 0, 60, 64
13, 15072, Note_off_c, 0, 59, 64
13, 15072, Note_off_c, 0, 66, 64
13, 15072, End_track
14, 0, Start_track
14, 0, Title_t, "pique"
14, 0, Note_on_c, 11, 0, 100
14, 48, Note_off_c, 11, 0, 64
14, 48, End_track
15, 0, Start_track
15, 0, Title_t, "orbe"
15, 0, Note_on_c, 12, 0, 100
15, 48, Note_off_c, 12, 0, 64
15, 13464, Note_on_c, 12, 61, 100
15, 13488, Note_off_c, 12, 61, 64
15, 13824, Note_on_c, 12, 63, 100
15, 13848, Note_off_c, 12, 63, 64
15, 14184, Note_on_c, 12, 62, 100
15, 14208, Note_off_c, 12, 62, 64
15, 14568, Note_on_c, 12, 63, 100
15, 14592, Note_off_c, 12, 63, 64
15, 14592, End_track
16, 0, Start_track
16, 0, Title_t, "dash"
16, 0, Note_on_c, 13, 0, 100
16, 48, Note_off_c, 13, 0, 64
16, 48, End_track
17, 0, Start_track
17, 0, Title_t, "theme"
17, 0, Note_on_c, 14, 60, 100
17, 0, Note_on_c, 14, 0, 100
17, 48, Note_off_c, 14, 0, 64
17, 96, Note_off_c, 14, 60, 64
17, 3840, Note_on_c, 14, 61, 100
17, 3936, Note_off_c, 14, 61, 64
17, 8448, Note_on_c, 14, 62, 100
17, 8544, Note_off_c, 14, 62, 64
17, 13440, Note_on_c, 14, 63, 100
17, 13536, Note_off_c, 14, 63, 64
17, 15360, Note_on_c, 14, 64, 100
17, 15456, Note_off_c, 14, 64, 64
17, 16896, Note_on_c, 14, 65, 100
17, 16992, Note_off_c, 14, 65, 64
17, 23040, Note_on_c, 14, 66, 100
17, 23136, Note_off_c, 14, 66, 64
17, 26112, Note_on_c, 14, 63, 100
17, 26208, Note_off_c, 14, 63, 64
17, 27072, Note_on_c, 14, 67, 100
17, 27168, Note_off_c, 14, 67, 64
17, 27168, End_track
0, 0, End_of_file
