0, 0, Header, 1, 17, 96
1, 0, Start_track
1, 0, Time_signature, 4, 2, 24, 8
1, 0, End_track
2, 0, Start_track
2, 0, Tempo, 331492
2, 0, End_track
3, 0, Start_track
3, 0, Title_t, "phase"
3, 0, Control_c, 0, 10, 64
3, 0, Control_c, 0, 7, 100
3, 0, Pitch_bend_c, 0, 8192
3, 0, Control_c, 0, 101, 0
3, 0, Control_c, 0, 100, 0
3, 0, Control_c, 0, 6, 12
3, 0, Control_c, 0, 10, 64
3, 0, Control_c, 0, 7, 100
3, 0, Pitch_bend_c, 0, 8192
3, 0, Program_c, 0, 0
3, 0, Control_c, 0, 101, 0
3, 0, Control_c, 0, 100, 0
3, 0, Control_c, 0, 6, 12
3, 0, Control_c, 0, 10, 64
3, 0, Control_c, 0, 7, 100
3, 0, Pitch_bend_c, 0, 8192
3, 0, Program_c, 0, 0
3, 0, Note_on_c, 0, 60, 100
3, 0, Note_on_c, 0, 0, 100
3, 0, Control_c, 0, 101, 0
3, 0, Control_c, 0, 100, 0
3, 0, Control_c, 0, 6, 12
3, 0, Control_c, 0, 10, 64
3, 0, Control_c, 0, 7, 100
3, 0, Pitch_bend_c, 0, 8192
3, 0, Program_c, 0, 0
3, 48, Note_off_c, 0, 60, 64
3, 48, Note_off_c, 0, 0, 64
3, 6144, Note_on_c, 0, 61, 100
3, 6240, Note_off_c, 0, 61, 64
3, 10752, Note_on_c, 0, 62, 100
3, 11136, Note_off_c, 0, 62, 64
3, 19968, Note_on_c, 0, 61, 100
3, 20160, Note_off_c, 0, 61, 64
3, 21504, Note_on_c, 0, 60, 100
3, 21696, Note_off_c, 0, 60, 64
3, 24384, Note_on_c, 0, 59, 100
3, 24575, Note_off_c, 0, 59, 64
3, 24576, Control_c, 0, 101, 0
3, 24576, Control_c, 0, 100, 0
3, 24576, Control_c, 0, 6, 12
3, 24576, Control_c, 0, 10, 64
3, 24576, Control_c, 0, 7, 100
3, 24576, Pitch_bend_c, 0, 8192
3, 24576, Program_c, 0, 0
3, 24576, Control_c, 0, 101, 0
3, 24576, Control_c, 0, 100, 0
3, 24576, Control_c, 0, 6, 12
3, 24576, Control_c, 0, 10, 64
3, 24576, Control_c, 0, 7, 100
3, 24576, Pitch_bend_c, 0, 8192
3, 24576, Program_c, 0, 0
3, 24576, End_track
4, 0, Start_track
4, 0, Title_t, "items"
4, 0, Control_c, 1, 10, 64
4, 0, Control_c, 1, 7, 100
4, 0, Pitch_bend_c, 1, 8192
4, 0, Control_c, 1, 101, 0
4, 0, Control_c, 1, 100, 0
4, 0, Control_c, 1, 6, 12
4, 0, Control_c, 1, 10, 64
4, 0, Control_c, 1, 7, 100
4, 0, Pitch_bend_c, 1, 8192
4, 0, Program_c, 1, 0
4, 0, Control_c, 1, 101, 0
4, 0, Control_c, 1, 100, 0
4, 0, Control_c, 1, 6, 12
4, 0, Control_c, 1, 10, 64
4, 0, Control_c, 1, 7, 100
4, 0, Pitch_bend_c, 1, 8192
4, 0, Program_c, 1, 0
4, 0, Note_on_c, 1, 0, 100
4, 0, Control_c, 1, 101, 0
4, 0, Control_c, 1, 100, 0
4, 0, Control_c, 1, 6, 12
4, 0, Control_c, 1, 10, 64
4, 0, Control_c, 1, 7, 100
4, 0, Pitch_bend_c, 1, 8192
4, 0, Program_c, 1, 0
4, 48, Note_off_c, 1, 0, 64
4, 768, Note_on_c, 1, 62, 100
4, 864, Note_off_c, 1, 62, 64
4, 1728, Note_on_c, 1, 65, 100
4, 1824, Note_off_c, 1, 65, 64
4, 2688, Note_on_c, 1, 62, 100
4, 2784, Note_off_c, 1, 62, 64
4, 2856, Note_on_c, 1, 62, 100
4, 2952, Note_off_c, 1, 62, 64
4, 2976, Note_on_c, 1, 62, 100
4, 3072, Note_off_c, 1, 62, 64
4, 3456, Note_on_c, 1, 65, 100
4, 3552, Note_off_c, 1, 65, 64
4, 3576, Note_on_c, 1, 65, 100
4, 3672, Note_off_c, 1, 65, 64
4, 4992, Note_on_c, 1, 74, 100
4, 5088, Note_off_c, 1, 74, 64
4, 5952, Note_on_c, 1, 77, 100
4, 6048, Note_off_c, 1, 77, 64
4, 6912, Note_on_c, 1, 62, 100
4, 7008, Note_off_c, 1, 62, 64
4, 7080, Note_on_c, 1, 62, 100
4, 7176, Note_off_c, 1, 62, 64
4, 7200, Note_on_c, 1, 62, 100
4, 7296, Note_off_c, 1, 62, 64
4, 7680, Note_on_c, 1, 65, 100
4, 7776, Note_off_c, 1, 65, 64
4, 7800, Note_on_c, 1, 65, 100
4, 7896, Note_off_c, 1, 65, 64
4, 10752, Note_on_c, 1, 62, 100
4, 10848, Note_off_c, 1, 62, 64
4, 10920, Note_on_c, 1, 62, 100
4, 11016, Note_off_c, 1, 62, 64
4, 11040, Note_on_c, 1, 62, 100
4, 11136, Note_off_c, 1, 62, 64
4, 11520, Note_on_c, 1, 63, 100
4, 11568, Note_off_c, 1, 63, 64
4, 11712, Note_on_c, 1, 64, 100
4, 11760, Note_off_c, 1, 64, 64
4, 11904, Note_on_c, 1, 65, 100
4, 11952, Note_off_c, 1, 65, 64
4, 12096, Note_on_c, 1, 64, 100
4, 12144, Note_off_c, 1, 64, 64
4, 12288, Note_on_c, 1, 63, 100
4, 12336, Note_off_c, 1, 63, 64
4, 12480, Note_on_c, 1, 62, 100
4, 12528, Note_off_c, 1, 62, 64
4, 12576, Note_on_c, 1, 61, 100
4, 12624, Note_off_c, 1, 61, 64
4, 12864, Note_on_c, 1, 61, 100
4, 12912, Note_off_c, 1, 61, 64
4, 12960, Note_on_c, 1, 61, 100
4, 13008, Note_off_c, 1, 61, 64
4, 14976, Note_on_c, 1, 75, 100
4, 15024, Note_off_c, 1, 75, 64
4, 15168, Note_on_c, 1, 76, 100
4, 15216, Note_off_c, 1, 76, 64
4, 15360, Note_on_c, 1, 77, 100
4, 15408, Note_off_c, 1, 77, 64
4, 15552, Note_on_c, 1, 76, 100
4, 15600, Note_off_c, 1, 76, 64
4, 15744, Note_on_c, 1, 75, 100
4, 15792, Note_off_c, 1, 75, 64
4, 15936, Note_on_c, 1, 74, 100
4, 15984, Note_off_c, 1, 74, 64
4, 16032, Note_on_c, 1, 73, 100
4, 16080, Note_off_c, 1, 73, 64
4, 16320, Note_on_c, 1, 73, 100
4, 16368, Note_off_c, 1, 73, 64
4, 16416, Note_on_c, 1, 73, 100
4, 16464, Note_off_c, 1, 73, 64
4, 16896, Note_on_c, 1, 60, 100
4, 16944, Note_off_c, 1, 60, 64
4, 16992, Note_on_c, 1, 61, 100
4, 17040, Note_off_c, 1, 61, 64
4, 17088, Note_on_c, 1, 62, 100
4, 17136, Note_off_c, 1, 62, 64
4, 17184, Note_on_c, 1, 63, 100
4, 17232, Note_off_c, 1, 63, 64
4, 17280, Note_on_c, 1, 64, 100
4, 17328, Note_off_c, 1, 64, 64
4, 17664, Note_on_c, 1, 72, 100
4, 17712, Note_off_c, 1, 72, 64
4, 17760, Note_on_c, 1, 73, 100
4, 17808, Note_off_c, 1, 73, 64
4, 17856, Note_on_c, 1, 74, 100
4, 17904, Note_off_c, 1, 74, 64
4, 17952, Note_on_c, 1, 75, 100
4, 18000, Note_off_c, 1, 75, 64
4, 18048, Note_on_c, 1, 76, 100
4, 18096, Note_off_c, 1, 76, 64
4, 24576, Control_c, 1, 101, 0
4, 24576, Control_c, 1, 100, 0
4, 24576, Control_c, 1, 6, 12
4, 24576, Control_c, 1, 10, 64
4, 24576, Control_c, 1, 7, 100
4, 24576, Pitch_bend_c, 1, 8192
4, 24576, Program_c, 1, 0
4, 24576, Control_c, 1, 101, 0
4, 24576, Control_c, 1, 100, 0
4, 24576, Control_c, 1, 6, 12
4, 24576, Control_c, 1, 10, 64
4, 24576, Control_c, 1, 7, 100
4, 24576, Pitch_bend_c, 1, 8192
4, 24576, Program_c, 1, 0
4, 24576, End_track
5, 0, Start_track
5, 0, Title_t, "small"
5, 0, Control_c, 2, 10, 64
5, 0, Control_c, 2, 7, 100
5, 0, Pitch_bend_c, 2, 8192
5, 0, Control_c, 2, 101, 0
5, 0, Control_c, 2, 100, 0
5, 0, Control_c, 2, 6, 12
5, 0, Control_c, 2, 10, 64
5, 0, Control_c, 2, 7, 100
5, 0, Pitch_bend_c, 2, 8192
5, 0, Program_c, 2, 0
5, 0, Control_c, 2, 101, 0
5, 0, Control_c, 2, 100, 0
5, 0, Control_c, 2, 6, 12
5, 0, Control_c, 2, 10, 64
5, 0, Control_c, 2, 7, 100
5, 0, Pitch_bend_c, 2, 8192
5, 0, Program_c, 2, 0
5, 0, Note_on_c, 2, 0, 100
5, 0, Control_c, 2, 101, 0
5, 0, Control_c, 2, 100, 0
5, 0, Control_c, 2, 6, 12
5, 0, Control_c, 2, 10, 64
5, 0, Control_c, 2, 7, 100
5, 0, Pitch_bend_c, 2, 8192
5, 0, Program_c, 2, 0
5, 48, Note_off_c, 2, 0, 64
5, 384, Note_on_c, 2, 60, 100
5, 432, Note_off_c, 2, 60, 64
5, 480, Note_on_c, 2, 60, 100
5, 528, Note_off_c, 2, 60, 64
5, 576, Note_on_c, 2, 61, 100
5, 624, Note_off_c, 2, 61, 64
5, 672, Note_on_c, 2, 61, 100
5, 720, Note_off_c, 2, 61, 64
5, 1152, Note_on_c, 2, 60, 100
5, 1152, Note_on_c, 2, 61, 100
5, 1200, Note_off_c, 2, 60, 64
5, 1200, Note_off_c, 2, 61, 64
5, 1344, Note_on_c, 2, 60, 100
5, 1344, Note_on_c, 2, 61, 100
5, 1392, Note_off_c, 2, 60, 64
5, 1392, Note_off_c, 2, 61, 64
5, 24576, Control_c, 2, 101, 0
5, 24576, Control_c, 2, 100, 0
5, 24576, Control_c, 2, 6, 12
5, 24576, Control_c, 2, 10, 64
5, 24576, Control_c, 2, 7, 100
5, 24576, Pitch_bend_c, 2, 8192
5, 24576, Program_c, 2, 0
5, 24576, Control_c, 2, 101, 0
5, 24576, Control_c, 2, 100, 0
5, 24576, Control_c, 2, 6, 12
5, 24576, Control_c, 2, 10, 64
5, 24576, Control_c, 2, 7, 100
5, 24576, Pitch_bend_c, 2, 8192
5, 24576, Program_c, 2, 0
5, 24576, End_track
6, 0, Start_track
6, 0, Title_t, "large"
6, 0, Control_c, 3, 10, 64
6, 0, Control_c, 3, 7, 100
6, 0, Pitch_bend_c, 3, 8192
6, 0, Control_c, 3, 101, 0
6, 0, Control_c, 3, 100, 0
6, 0, Control_c, 3, 6, 12
6, 0, Control_c, 3, 10, 64
6, 0, Control_c, 3, 7, 100
6, 0, Pitch_bend_c, 3, 8192
6, 0, Program_c, 3, 0
6, 0, Control_c, 3, 101, 0
6, 0, Control_c, 3, 100, 0
6, 0, Control_c, 3, 6, 12
6, 0, Control_c, 3, 10, 64
6, 0, Control_c, 3, 7, 100
6, 0, Pitch_bend_c, 3, 8192
6, 0, Program_c, 3, 0
6, 0, Note_on_c, 3, 0, 100
6, 0, Control_c, 3, 101, 0
6, 0, Control_c, 3, 100, 0
6, 0, Control_c, 3, 6, 12
6, 0, Control_c, 3, 10, 64
6, 0, Control_c, 3, 7, 100
6, 0, Pitch_bend_c, 3, 8192
6, 0, Program_c, 3, 0
6, 48, Note_off_c, 3, 0, 64
6, 1536, Note_on_c, 3, 60, 100
6, 1584, Note_off_c, 3, 60, 64
6, 1632, Note_on_c, 3, 60, 100
6, 1680, Note_off_c, 3, 60, 64
6, 1728, Note_on_c, 3, 61, 100
6, 1776, Note_off_c, 3, 61, 64
6, 1824, Note_on_c, 3, 61, 100
6, 1872, Note_off_c, 3, 61, 64
6, 2304, Note_on_c, 3, 61, 100
6, 2304, Note_on_c, 3, 60, 100
6, 2352, Note_off_c, 3, 61, 64
6, 2352, Note_off_c, 3, 60, 64
6, 2496, Note_on_c, 3, 61, 100
6, 2496, Note_on_c, 3, 60, 100
6, 2544, Note_off_c, 3, 61, 64
6, 2544, Note_off_c, 3, 60, 64
6, 24576, Control_c, 3, 101, 0
6, 24576, Control_c, 3, 100, 0
6, 24576, Control_c, 3, 6, 12
6, 24576, Control_c, 3, 10, 64
6, 24576, Control_c, 3, 7, 100
6, 24576, Pitch_bend_c, 3, 8192
6, 24576, Program_c, 3, 0
6, 24576, Control_c, 3, 101, 0
6, 24576, Control_c, 3, 100, 0
6, 24576, Control_c, 3, 6, 12
6, 24576, Control_c, 3, 10, 64
6, 24576, Control_c, 3, 7, 100
6, 24576, Pitch_bend_c, 3, 8192
6, 24576, Program_c, 3, 0
6, 24576, End_track
7, 0, Start_track
7, 0, Title_t, "long"
7, 0, Control_c, 4, 10, 64
7, 0, Control_c, 4, 7, 100
7, 0, Pitch_bend_c, 4, 8192
7, 0, Control_c, 4, 101, 0
7, 0, Control_c, 4, 100, 0
7, 0, Control_c, 4, 6, 12
7, 0, Control_c, 4, 10, 64
7, 0, Control_c, 4, 7, 100
7, 0, Pitch_bend_c, 4, 8192
7, 0, Program_c, 4, 0
7, 0, Control_c, 4, 101, 0
7, 0, Control_c, 4, 100, 0
7, 0, Control_c, 4, 6, 12
7, 0, Control_c, 4, 10, 64
7, 0, Control_c, 4, 7, 100
7, 0, Pitch_bend_c, 4, 8192
7, 0, Program_c, 4, 0
7, 0, Note_on_c, 4, 0, 100
7, 0, Control_c, 4, 101, 0
7, 0, Control_c, 4, 100, 0
7, 0, Control_c, 4, 6, 12
7, 0, Control_c, 4, 10, 64
7, 0, Control_c, 4, 7, 100
7, 0, Pitch_bend_c, 4, 8192
7, 0, Program_c, 4, 0
7, 48, Note_off_c, 4, 0, 64
7, 3072, Note_on_c, 4, 60, 100
7, 3456, Note_off_c, 4, 60, 64
7, 3648, Note_on_c, 4, 61, 100
7, 4032, Note_off_c, 4, 61, 64
7, 24576, Control_c, 4, 101, 0
7, 24576, Control_c, 4, 100, 0
7, 24576, Control_c, 4, 6, 12
7, 24576, Control_c, 4, 10, 64
7, 24576, Control_c, 4, 7, 100
7, 24576, Pitch_bend_c, 4, 8192
7, 24576, Program_c, 4, 0
7, 24576, Control_c, 4, 101, 0
7, 24576, Control_c, 4, 100, 0
7, 24576, Control_c, 4, 6, 12
7, 24576, Control_c, 4, 10, 64
7, 24576, Control_c, 4, 7, 100
7, 24576, Pitch_bend_c, 4, 8192
7, 24576, Program_c, 4, 0
7, 24576, End_track
8, 0, Start_track
8, 0, Title_t, "boss"
8, 0, Control_c, 5, 10, 64
8, 0, Control_c, 5, 7, 100
8, 0, Pitch_bend_c, 5, 8192
8, 0, Control_c, 5, 101, 0
8, 0, Control_c, 5, 100, 0
8, 0, Control_c, 5, 6, 12
8, 0, Control_c, 5, 10, 64
8, 0, Control_c, 5, 7, 100
8, 0, Pitch_bend_c, 5, 8192
8, 0, Program_c, 5, 0
8, 0, Control_c, 5, 101, 0
8, 0, Control_c, 5, 100, 0
8, 0, Control_c, 5, 6, 12
8, 0, Control_c, 5, 10, 64
8, 0, Control_c, 5, 7, 100
8, 0, Pitch_bend_c, 5, 8192
8, 0, Program_c, 5, 0
8, 0, Note_on_c, 5, 0, 100
8, 0, Control_c, 5, 101, 0
8, 0, Control_c, 5, 100, 0
8, 0, Control_c, 5, 6, 12
8, 0, Control_c, 5, 10, 64
8, 0, Control_c, 5, 7, 100
8, 0, Pitch_bend_c, 5, 8192
8, 0, Program_c, 5, 0
8, 48, Note_off_c, 5, 0, 64
8, 4224, Note_on_c, 5, 60, 100
8, 4320, Note_off_c, 5, 60, 64
8, 4608, Note_on_c, 5, 60, 100
8, 4704, Note_off_c, 5, 60, 64
8, 4992, Note_on_c, 5, 61, 100
8, 5088, Note_off_c, 5, 61, 64
8, 24576, Control_c, 5, 101, 0
8, 24576, Control_c, 5, 100, 0
8, 24576, Control_c, 5, 6, 12
8, 24576, Control_c, 5, 10, 64
8, 24576, Control_c, 5, 7, 100
8, 24576, Pitch_bend_c, 5, 8192
8, 24576, Program_c, 5, 0
8, 24576, Control_c, 5, 101, 0
8, 24576, Control_c, 5, 100, 0
8, 24576, Control_c, 5, 6, 12
8, 24576, Control_c, 5, 10, 64
8, 24576, Control_c, 5, 7, 100
8, 24576, Pitch_bend_c, 5, 8192
8, 24576, Program_c, 5, 0
8, 24576, End_track
9, 0, Start_track
9, 0, Title_t, "fantome"
9, 0, Control_c, 6, 10, 64
9, 0, Control_c, 6, 7, 100
9, 0, Pitch_bend_c, 6, 8192
9, 0, Control_c, 6, 101, 0
9, 0, Control_c, 6, 100, 0
9, 0, Control_c, 6, 6, 12
9, 0, Control_c, 6, 10, 64
9, 0, Control_c, 6, 7, 100
9, 0, Pitch_bend_c, 6, 8192
9, 0, Program_c, 6, 0
9, 0, Control_c, 6, 101, 0
9, 0, Control_c, 6, 100, 0
9, 0, Control_c, 6, 6, 12
9, 0, Control_c, 6, 10, 64
9, 0, Control_c, 6, 7, 100
9, 0, Pitch_bend_c, 6, 8192
9, 0, Program_c, 6, 0
9, 0, Note_on_c, 6, 0, 100
9, 0, Control_c, 6, 101, 0
9, 0, Control_c, 6, 100, 0
9, 0, Control_c, 6, 6, 12
9, 0, Control_c, 6, 10, 64
9, 0, Control_c, 6, 7, 100
9, 0, Pitch_bend_c, 6, 8192
9, 0, Program_c, 6, 0
9, 48, Note_off_c, 6, 0, 64
9, 5376, Note_on_c, 6, 60, 100
9, 5472, Note_off_c, 6, 60, 64
9, 5568, Note_on_c, 6, 61, 100
9, 5664, Note_off_c, 6, 61, 64
9, 5760, Note_on_c, 6, 60, 100
9, 5856, Note_off_c, 6, 60, 64
9, 5952, Note_on_c, 6, 61, 100
9, 6048, Note_off_c, 6, 61, 64
9, 24576, Control_c, 6, 101, 0
9, 24576, Control_c, 6, 100, 0
9, 24576, Control_c, 6, 6, 12
9, 24576, Control_c, 6, 10, 64
9, 24576, Control_c, 6, 7, 100
9, 24576, Pitch_bend_c, 6, 8192
9, 24576, Program_c, 6, 0
9, 24576, Control_c, 6, 101, 0
9, 24576, Control_c, 6, 100, 0
9, 24576, Control_c, 6, 6, 12
9, 24576, Control_c, 6, 10, 64
9, 24576, Control_c, 6, 7, 100
9, 24576, Pitch_bend_c, 6, 8192
9, 24576, Program_c, 6, 0
9, 24576, End_track
10, 0, Start_track
10, 0, Title_t, "normal"
10, 0, Control_c, 7, 10, 64
10, 0, Control_c, 7, 7, 100
10, 0, Pitch_bend_c, 7, 8192
10, 0, Control_c, 7, 101, 0
10, 0, Control_c, 7, 100, 0
10, 0, Control_c, 7, 6, 12
10, 0, Control_c, 7, 10, 64
10, 0, Control_c, 7, 7, 100
10, 0, Pitch_bend_c, 7, 8192
10, 0, Program_c, 7, 0
10, 0, Control_c, 7, 101, 0
10, 0, Control_c, 7, 100, 0
10, 0, Control_c, 7, 6, 12
10, 0, Control_c, 7, 10, 64
10, 0, Control_c, 7, 7, 100
10, 0, Pitch_bend_c, 7, 8192
10, 0, Program_c, 7, 0
10, 0, Note_on_c, 7, 0, 100
10, 0, Control_c, 7, 101, 0
10, 0, Control_c, 7, 100, 0
10, 0, Control_c, 7, 6, 12
10, 0, Control_c, 7, 10, 64
10, 0, Control_c, 7, 7, 100
10, 0, Pitch_bend_c, 7, 8192
10, 0, Program_c, 7, 0
10, 48, Note_off_c, 7, 0, 64
10, 6528, Note_on_c, 7, 54, 100
10, 6528, Note_on_c, 7, 78, 100
10, 6720, Note_on_c, 7, 55, 100
10, 7104, Note_off_c, 7, 55, 64
10, 7104, Note_on_c, 7, 57, 100
10, 7488, Note_off_c, 7, 57, 64
10, 7488, Note_on_c, 7, 59, 100
10, 7872, Note_off_c, 7, 59, 64
10, 7872, Note_on_c, 7, 60, 100
10, 8256, Note_off_c, 7, 60, 64
10, 8256, Note_on_c, 7, 62, 100
10, 8448, Note_off_c, 7, 62, 64
10, 8448, Note_on_c, 7, 64, 100
10, 8640, Note_off_c, 7, 64, 64
10, 8640, Note_on_c, 7, 65, 100
10, 8832, Note_off_c, 7, 65, 64
10, 8832, Note_on_c, 7, 67, 100
10, 9024, Note_off_c, 7, 67, 64
10, 9024, Note_on_c, 7, 69, 100
10, 9120, Note_off_c, 7, 69, 64
10, 9120, Note_on_c, 7, 71, 100
10, 9216, Note_off_c, 7, 71, 64
10, 9216, Note_on_c, 7, 72, 100
10, 9312, Note_off_c, 7, 72, 64
10, 9408, Note_on_c, 7, 74, 100
10, 9504, Note_off_c, 7, 74, 64
10, 9504, Note_on_c, 7, 76, 100
10, 9600, Note_off_c, 7, 76, 64
10, 9600, Note_on_c, 7, 77, 100
10, 9696, Note_off_c, 7, 77, 64
10, 9792, Note_on_c, 7, 67, 100
10, 9888, Note_off_c, 7, 67, 64
10, 9984, Note_on_c, 7, 67, 100
10, 10080, Note_off_c, 7, 67, 64
10, 10176, Note_on_c, 7, 67, 100
10, 10224, Note_off_c, 7, 67, 64
10, 10368, Note_on_c, 7, 67, 100
10, 10416, Note_off_c, 7, 67, 64
10, 10752, Note_off_c, 7, 54, 64
10, 10752, Note_off_c, 7, 78, 64
10, 20352, Note_on_c, 7, 67, 100
10, 20544, Note_off_c, 7, 67, 64
10, 20928, Note_on_c, 7, 57, 100
10, 21120, Note_off_c, 7, 57, 64
10, 21120, Note_on_c, 7, 60, 100
10, 21312, Note_off_c, 7, 60, 64
10, 24576, Control_c, 7, 101, 0
10, 24576, Control_c, 7, 100, 0
10, 24576, Control_c, 7, 6, 12
10, 24576, Control_c, 7, 10, 64
10, 24576, Control_c, 7, 7, 100
10, 24576, Pitch_bend_c, 7, 8192
10, 24576, Program_c, 7, 0
10, 24576, Control_c, 7, 101, 0
10, 24576, Control_c, 7, 100, 0
10, 24576, Control_c, 7, 6, 12
10, 24576, Control_c, 7, 10, 64
10, 24576, Control_c, 7, 7, 100
10, 24576, Pitch_bend_c, 7, 8192
10, 24576, Program_c, 7, 0
10, 24576, End_track
11, 0, Start_track
11, 0, Title_t, "liee"
11, 0, Control_c, 8, 10, 64
11, 0, Control_c, 8, 7, 100
11, 0, Pitch_bend_c, 8, 8192
11, 0, Control_c, 8, 101, 0
11, 0, Control_c, 8, 100, 0
11, 0, Control_c, 8, 6, 12
11, 0, Control_c, 8, 10, 64
11, 0, Control_c, 8, 7, 100
11, 0, Pitch_bend_c, 8, 8192
11, 0, Program_c, 8, 0
11, 0, Control_c, 8, 101, 0
11, 0, Control_c, 8, 100, 0
11, 0, Control_c, 8, 6, 12
11, 0, Control_c, 8, 10, 64
11, 0, Control_c, 8, 7, 100
11, 0, Pitch_bend_c, 8, 8192
11, 0, Program_c, 8, 0
11, 0, Note_on_c, 8, 0, 100
11, 0, Control_c, 8, 101, 0
11, 0, Control_c, 8, 100, 0
11, 0, Control_c, 8, 6, 12
11, 0, Control_c, 8, 10, 64
11, 0, Control_c, 8, 7, 100
11, 0, Pitch_bend_c, 8, 8192
11, 0, Program_c, 8, 0
11, 48, Note_off_c, 8, 0, 64
11, 7008, Note_on_c, 8, 41, 100
11, 8064, Note_off_c, 8, 41, 64
11, 24576, Control_c, 8, 101, 0
11, 24576, Control_c, 8, 100, 0
11, 24576, Control_c, 8, 6, 12
11, 24576, Control_c, 8, 10, 64
11, 24576, Control_c, 8, 7, 100
11, 24576, Pitch_bend_c, 8, 8192
11, 24576, Program_c, 8, 0
11, 24576, Control_c, 8, 101, 0
11, 24576, Control_c, 8, 100, 0
11, 24576, Control_c, 8, 6, 12
11, 24576, Control_c, 8, 10, 64
11, 24576, Control_c, 8, 7, 100
11, 24576, Pitch_bend_c, 8, 8192
11, 24576, Program_c, 8, 0
11, 24576, End_track
12, 0, Start_track
12, 0, Title_t, "silence"
12, 0, Control_c, 10, 10, 64
12, 0, Control_c, 10, 7, 100
12, 0, Pitch_bend_c, 10, 8192
12, 0, Control_c, 10, 101, 0
12, 0, Control_c, 10, 100, 0
12, 0, Control_c, 10, 6, 12
12, 0, Control_c, 10, 10, 64
12, 0, Control_c, 10, 7, 100
12, 0, Pitch_bend_c, 10, 8192
12, 0, Program_c, 10, 0
12, 0, Control_c, 10, 101, 0
12, 0, Control_c, 10, 100, 0
12, 0, Control_c, 10, 6, 12
12, 0, Control_c, 10, 10, 64
12, 0, Control_c, 10, 7, 100
12, 0, Pitch_bend_c, 10, 8192
12, 0, Program_c, 10, 0
12, 0, Note_on_c, 10, 0, 100
12, 0, Control_c, 10, 101, 0
12, 0, Control_c, 10, 100, 0
12, 0, Control_c, 10, 6, 12
12, 0, Control_c, 10, 10, 64
12, 0, Control_c, 10, 7, 100
12, 0, Pitch_bend_c, 10, 8192
12, 0, Program_c, 10, 0
12, 48, Note_off_c, 10, 0, 64
12, 6816, Note_on_c, 10, 50, 100
12, 6912, Note_off_c, 10, 50, 64
12, 7680, Note_on_c, 10, 50, 100
12, 7776, Note_off_c, 10, 50, 64
12, 8376, Note_on_c, 10, 49, 100
12, 8472, Note_off_c, 10, 49, 64
12, 9096, Note_on_c, 10, 49, 100
12, 9192, Note_off_c, 10, 49, 64
12, 9624, Note_on_c, 10, 48, 100
12, 9720, Note_off_c, 10, 48, 64
12, 10464, Note_on_c, 10, 48, 100
12, 10560, Note_off_c, 10, 48, 64
12, 24576, Control_c, 10, 101, 0
12, 24576, Control_c, 10, 100, 0
12, 24576, Control_c, 10, 6, 12
12, 24576, Control_c, 10, 10, 64
12, 24576, Control_c, 10, 7, 100
12, 24576, Pitch_bend_c, 10, 8192
12, 24576, Program_c, 10, 0
12, 24576, Control_c, 10, 101, 0
12, 24576, Control_c, 10, 100, 0
12, 24576, Control_c, 10, 6, 12
12, 24576, Control_c, 10, 10, 64
12, 24576, Control_c, 10, 7, 100
12, 24576, Pitch_bend_c, 10, 8192
12, 24576, Program_c, 10, 0
12, 24576, End_track
13, 0, Start_track
13, 0, Title_t, "cube"
13, 0, Control_c, 11, 10, 64
13, 0, Control_c, 11, 7, 100
13, 0, Pitch_bend_c, 11, 8192
13, 0, Control_c, 11, 101, 0
13, 0, Control_c, 11, 100, 0
13, 0, Control_c, 11, 6, 12
13, 0, Control_c, 11, 10, 64
13, 0, Control_c, 11, 7, 100
13, 0, Pitch_bend_c, 11, 8192
13, 0, Program_c, 11, 0
13, 0, Control_c, 11, 101, 0
13, 0, Control_c, 11, 100, 0
13, 0, Control_c, 11, 6, 12
13, 0, Control_c, 11, 10, 64
13, 0, Control_c, 11, 7, 100
13, 0, Pitch_bend_c, 11, 8192
13, 0, Program_c, 11, 0
13, 0, Note_on_c, 11, 0, 100
13, 0, Control_c, 11, 101, 0
13, 0, Control_c, 11, 100, 0
13, 0, Control_c, 11, 6, 12
13, 0, Control_c, 11, 10, 64
13, 0, Control_c, 11, 7, 100
13, 0, Pitch_bend_c, 11, 8192
13, 0, Program_c, 11, 0
13, 192, Note_off_c, 11, 0, 64
13, 11328, Note_on_c, 11, 60, 100
13, 11520, Note_off_c, 11, 60, 64
13, 11520, Note_on_c, 11, 60, 100
13, 11520, Note_on_c, 11, 61, 100
13, 11712, Note_off_c, 11, 61, 64
13, 11712, Note_off_c, 11, 60, 64
13, 11712, Note_on_c, 11, 60, 100
13, 11712, Note_on_c, 11, 61, 100
13, 11904, Note_off_c, 11, 60, 64
13, 11904, Note_off_c, 11, 61, 64
13, 11904, Note_on_c, 11, 61, 100
13, 11904, Note_on_c, 11, 60, 100
13, 12096, Note_off_c, 11, 60, 64
13, 12096, Note_off_c, 11, 61, 64
13, 12096, Note_on_c, 11, 60, 100
13, 12096, Note_on_c, 11, 61, 100
13, 12096, Note_on_c, 11, 62, 100
13, 12288, Note_off_c, 11, 61, 64
13, 12288, Note_off_c, 11, 62, 64
13, 12288, Note_off_c, 11, 60, 64
13, 12288, Note_on_c, 11, 61, 100
13, 12288, Note_on_c, 11, 60, 100
13, 12480, Note_off_c, 11, 60, 64
13, 12480, Note_off_c, 11, 61, 64
13, 12480, Note_on_c, 11, 60, 100
13, 12672, Note_off_c, 11, 60, 64
13, 12672, Note_on_c, 11, 60, 100
13, 12864, Note_off_c, 11, 60, 64
13, 12864, Note_on_c, 11, 60, 100
13, 13056, Note_off_c, 11, 60, 64
13, 13056, Note_on_c, 11, 60, 100
13, 13056, Note_on_c, 11, 64, 100
13, 13248, Note_off_c, 11, 60, 64
13, 13248, Note_off_c, 11, 64, 64
13, 13248, Note_on_c, 11, 65, 100
13, 13248, Note_on_c, 11, 60, 100
13, 13440, Note_off_c, 11, 60, 64
13, 13440, Note_off_c, 11, 65, 64
13, 13440, Note_on_c, 11, 64, 100
13, 13440, Note_on_c, 11, 65, 100
13, 13440, Note_on_c, 11, 60, 100
13, 13632, Note_off_c, 11, 60, 64
13, 13632, Note_off_c, 11, 65, 64
13, 13632, Note_off_c, 11, 64, 64
13, 13632, Note_on_c, 11, 65, 100
13, 13632, Note_on_c, 11, 60, 100
13, 13824, Note_off_c, 11, 60, 64
13, 13824, Note_off_c, 11, 65, 64
13, 13824, Note_on_c, 11, 65, 100
13, 13824, Note_on_c, 11, 64, 100
13, 13824, Note_on_c, 11, 60, 100
13, 14016, Note_off_c, 11, 60, 64
13, 14016, Note_off_c, 11, 64, 64
13, 14016, Note_off_c, 11, 65, 64
13, 14016, Note_on_c, 11, 60, 100
13, 14208, Note_off_c, 11, 60, 64
13, 14208, Note_on_c, 11, 61, 100
13, 14208, Note_on_c, 11, 60, 100
13, 14400, Note_off_c, 11, 61, 64
13, 14400, Note_off_c, 11, 60, 64
13, 14400, Note_on_c, 11, 60, 100
13, 14400, Note_on_c, 11, 61, 100
13, 14592, Note_off_c, 11, 61, 64
13, 14592, Note_off_c, 11, 60, 64
13, 14592, Note_on_c, 11, 61, 100
13, 14592, Note_on_c, 11, 60, 100
13, 14784, Note_off_c, 11, 60, 64
13, 14784, Note_off_c, 11, 61, 64
13, 14784, Note_on_c, 11, 62, 100
13, 14784, Note_on_c, 11, 61, 100
13, 14784, Note_on_c, 11, 60, 100
13, 14976, Note_off_c, 11, 60, 64
13, 14976, Note_off_c, 11, 61, 64
13, 14976, Note_off_c, 11, 62, 64
13, 14976, Note_on_c, 11, 60, 100
13, 14976, Note_on_c, 11, 61, 100
13, 15168, Note_off_c, 11, 60, 64
13, 15168, Note_off_c, 11, 61, 64
13, 15168, Note_on_c, 11, 60, 100
13, 15360, Note_off_c, 11, 60, 64
13, 15360, Note_on_c, 11, 60, 100
13, 15552, Note_off_c, 11, 60, 64
13, 15552, Note_on_c, 11, 60, 100
13, 15744, Note_off_c, 11, 60, 64
13, 15744, Note_on_c, 11, 60, 100
13, 15744, Note_on_c, 11, 64, 100
13, 15936, Note_off_c, 11, 60, 64
13, 15936, Note_off_c, 11, 64, 64
13, 15936, Note_on_c, 11, 65, 100
13, 15936, Note_on_c, 11, 60, 100
13, 16128, Note_off_c, 11, 65, 64
13, 16128, Note_off_c, 11, 60, 64
13, 16128, Note_on_c, 11, 60, 100
13, 16128, Note_on_c, 11, 65, 100
13, 16128, Note_on_c, 11, 64, 100
13, 16320, Note_off_c, 11, 60, 64
13, 16320, Note_off_c, 11, 65, 64
13, 16320, Note_off_c, 11, 64, 64
13, 16320, Note_on_c, 11, 65, 100
13, 16320, Note_on_c, 11, 60, 100
13, 16512, Note_off_c, 11, 65, 64
13, 16512, Note_off_c, 11, 60, 64
13, 16512, Note_on_c, 11, 60, 100
13, 16512, Note_on_c, 11, 64, 100
13, 16512, Note_on_c, 11, 65, 100
13, 16704, Note_off_c, 11, 65, 64
13, 16704, Note_off_c, 11, 64, 64
13, 16704, Note_off_c, 11, 60, 64
13, 24576, Control_c, 11, 101, 0
13, 24576, Control_c, 11, 100, 0
13, 24576, Control_c, 11, 6, 12
13, 24576, Control_c, 11, 10, 64
13, 24576, Control_c, 11, 7, 100
13, 24576, Pitch_bend_c, 11, 8192
13, 24576, Program_c, 11, 0
13, 24576, Control_c, 11, 101, 0
13, 24576, Control_c, 11, 100, 0
13, 24576, Control_c, 11, 6, 12
13, 24576, Control_c, 11, 10, 64
13, 24576, Control_c, 11, 7, 100
13, 24576, Pitch_bend_c, 11, 8192
13, 24576, Program_c, 11, 0
13, 24576, End_track
14, 0, Start_track
14, 0, Title_t, "pique"
14, 0, Control_c, 12, 10, 64
14, 0, Control_c, 12, 7, 100
14, 0, Pitch_bend_c, 12, 8192
14, 0, Control_c, 12, 101, 0
14, 0, Control_c, 12, 100, 0
14, 0, Control_c, 12, 6, 12
14, 0, Control_c, 12, 10, 64
14, 0, Control_c, 12, 7, 100
14, 0, Pitch_bend_c, 12, 8192
14, 0, Program_c, 12, 0
14, 0, Control_c, 12, 101, 0
14, 0, Control_c, 12, 100, 0
14, 0, Control_c, 12, 6, 12
14, 0, Control_c, 12, 10, 64
14, 0, Control_c, 12, 7, 100
14, 0, Pitch_bend_c, 12, 8192
14, 0, Program_c, 12, 0
14, 0, Note_on_c, 12, 0, 100
14, 0, Control_c, 12, 101, 0
14, 0, Control_c, 12, 100, 0
14, 0, Control_c, 12, 6, 12
14, 0, Control_c, 12, 10, 64
14, 0, Control_c, 12, 7, 100
14, 0, Pitch_bend_c, 12, 8192
14, 0, Program_c, 12, 0
14, 192, Note_off_c, 12, 0, 64
14, 11520, Note_on_c, 12, 62, 100
14, 11712, Note_off_c, 12, 62, 64
14, 11712, Note_on_c, 12, 62, 100
14, 11904, Note_off_c, 12, 62, 64
14, 13056, Note_on_c, 12, 62, 100
14, 13248, Note_off_c, 12, 62, 64
14, 13632, Note_on_c, 12, 62, 100
14, 13824, Note_off_c, 12, 62, 64
14, 14592, Note_on_c, 12, 65, 100
14, 14784, Note_off_c, 12, 65, 64
14, 14784, Note_on_c, 12, 65, 100
14, 14976, Note_off_c, 12, 65, 64
14, 14976, Note_on_c, 12, 65, 100
14, 15168, Note_off_c, 12, 65, 64
14, 15744, Note_on_c, 12, 61, 100
14, 15744, Note_on_c, 12, 65, 100
14, 15936, Note_off_c, 12, 65, 64
14, 15936, Note_off_c, 12, 61, 64
14, 16128, Note_on_c, 12, 61, 100
14, 16128, Note_on_c, 12, 63, 100
14, 16320, Note_off_c, 12, 63, 64
14, 16320, Note_off_c, 12, 61, 64
14, 24576, Control_c, 12, 101, 0
14, 24576, Control_c, 12, 100, 0
14, 24576, Control_c, 12, 6, 12
14, 24576, Control_c, 12, 10, 64
14, 24576, Control_c, 12, 7, 100
14, 24576, Pitch_bend_c, 12, 8192
14, 24576, Program_c, 12, 0
14, 24576, Control_c, 12, 101, 0
14, 24576, Control_c, 12, 100, 0
14, 24576, Control_c, 12, 6, 12
14, 24576, Control_c, 12, 10, 64
14, 24576, Control_c, 12, 7, 100
14, 24576, Pitch_bend_c, 12, 8192
14, 24576, Program_c, 12, 0
14, 24576, End_track
15, 0, Start_track
15, 0, Title_t, "orbe"
15, 0, Control_c, 13, 10, 64
15, 0, Control_c, 13, 7, 100
15, 0, Pitch_bend_c, 13, 8192
15, 0, Control_c, 13, 101, 0
15, 0, Control_c, 13, 100, 0
15, 0, Control_c, 13, 6, 12
15, 0, Control_c, 13, 10, 64
15, 0, Control_c, 13, 7, 100
15, 0, Pitch_bend_c, 13, 8192
15, 0, Program_c, 13, 0
15, 0, Control_c, 13, 101, 0
15, 0, Control_c, 13, 100, 0
15, 0, Control_c, 13, 6, 12
15, 0, Control_c, 13, 10, 64
15, 0, Control_c, 13, 7, 100
15, 0, Pitch_bend_c, 13, 8192
15, 0, Program_c, 13, 0
15, 0, Note_on_c, 13, 0, 100
15, 0, Control_c, 13, 101, 0
15, 0, Control_c, 13, 100, 0
15, 0, Control_c, 13, 6, 12
15, 0, Control_c, 13, 10, 64
15, 0, Control_c, 13, 7, 100
15, 0, Pitch_bend_c, 13, 8192
15, 0, Program_c, 13, 0
15, 48, Note_off_c, 13, 0, 64
15, 12672, Note_on_c, 13, 63, 100
15, 12864, Note_off_c, 13, 63, 64
15, 14208, Note_on_c, 13, 63, 100
15, 14400, Note_off_c, 13, 63, 64
15, 18432, Note_on_c, 13, 63, 100
15, 18624, Note_off_c, 13, 63, 64
15, 18816, Note_on_c, 13, 62, 100
15, 19008, Note_off_c, 13, 62, 64
15, 19392, Note_on_c, 13, 62, 100
15, 19584, Note_off_c, 13, 62, 64
15, 24576, Control_c, 13, 101, 0
15, 24576, Control_c, 13, 100, 0
15, 24576, Control_c, 13, 6, 12
15, 24576, Control_c, 13, 10, 64
15, 24576, Control_c, 13, 7, 100
15, 24576, Pitch_bend_c, 13, 8192
15, 24576, Program_c, 13, 0
15, 24576, Control_c, 13, 101, 0
15, 24576, Control_c, 13, 100, 0
15, 24576, Control_c, 13, 6, 12
15, 24576, Control_c, 13, 10, 64
15, 24576, Control_c, 13, 7, 100
15, 24576, Pitch_bend_c, 13, 8192
15, 24576, Program_c, 13, 0
15, 24576, End_track
16, 0, Start_track
16, 0, Title_t, "dash"
16, 0, Control_c, 14, 10, 64
16, 0, Control_c, 14, 7, 100
16, 0, Pitch_bend_c, 14, 8192
16, 0, Control_c, 14, 101, 0
16, 0, Control_c, 14, 100, 0
16, 0, Control_c, 14, 6, 12
16, 0, Control_c, 14, 10, 64
16, 0, Control_c, 14, 7, 100
16, 0, Pitch_bend_c, 14, 8192
16, 0, Program_c, 14, 0
16, 0, Control_c, 14, 101, 0
16, 0, Control_c, 14, 100, 0
16, 0, Control_c, 14, 6, 12
16, 0, Control_c, 14, 10, 64
16, 0, Control_c, 14, 7, 100
16, 0, Pitch_bend_c, 14, 8192
16, 0, Program_c, 14, 0
16, 0, Note_on_c, 14, 0, 100
16, 0, Control_c, 14, 101, 0
16, 0, Control_c, 14, 100, 0
16, 0, Control_c, 14, 6, 12
16, 0, Control_c, 14, 10, 64
16, 0, Control_c, 14, 7, 100
16, 0, Pitch_bend_c, 14, 8192
16, 0, Program_c, 14, 0
16, 192, Note_off_c, 14, 0, 64
16, 17664, Note_on_c, 14, 63, 100
16, 17856, Note_off_c, 14, 63, 64
16, 24576, Control_c, 14, 101, 0
16, 24576, Control_c, 14, 100, 0
16, 24576, Control_c, 14, 6, 12
16, 24576, Control_c, 14, 10, 64
16, 24576, Control_c, 14, 7, 100
16, 24576, Pitch_bend_c, 14, 8192
16, 24576, Program_c, 14, 0
16, 24576, Control_c, 14, 101, 0
16, 24576, Control_c, 14, 100, 0
16, 24576, Control_c, 14, 6, 12
16, 24576, Control_c, 14, 10, 64
16, 24576, Control_c, 14, 7, 100
16, 24576, Pitch_bend_c, 14, 8192
16, 24576, Program_c, 14, 0
16, 24576, End_track
17, 0, Start_track
17, 0, Title_t, "theme"
17, 0, Control_c, 15, 10, 64
17, 0, Control_c, 15, 7, 100
17, 0, Pitch_bend_c, 15, 8192
17, 0, Control_c, 15, 101, 0
17, 0, Control_c, 15, 100, 0
17, 0, Control_c, 15, 6, 12
17, 0, Control_c, 15, 10, 64
17, 0, Control_c, 15, 7, 100
17, 0, Pitch_bend_c, 15, 8192
17, 0, Program_c, 15, 0
17, 0, Control_c, 15, 101, 0
17, 0, Control_c, 15, 100, 0
17, 0, Control_c, 15, 6, 12
17, 0, Control_c, 15, 10, 64
17, 0, Control_c, 15, 7, 100
17, 0, Pitch_bend_c, 15, 8192
17, 0, Program_c, 15, 0
17, 0, Note_on_c, 15, 60, 100
17, 0, Note_on_c, 15, 0, 100
17, 0, Control_c, 15, 101, 0
17, 0, Control_c, 15, 100, 0
17, 0, Control_c, 15, 6, 12
17, 0, Control_c, 15, 10, 64
17, 0, Control_c, 15, 7, 100
17, 0, Pitch_bend_c, 15, 8192
17, 0, Program_c, 15, 0
17, 48, Note_off_c, 15, 0, 64
17, 192, Note_off_c, 15, 60, 64
17, 9216, Note_on_c, 15, 61, 100
17, 9408, Note_off_c, 15, 61, 64
17, 9984, Note_on_c, 15, 62, 100
17, 10176, Note_off_c, 15, 62, 64
17, 10368, Note_on_c, 15, 63, 100
17, 10560, Note_off_c, 15, 63, 64
17, 17280, Note_on_c, 15, 64, 100
17, 17472, Note_off_c, 15, 64, 64
17, 24576, Control_c, 15, 101, 0
17, 24576, Control_c, 15, 100, 0
17, 24576, Control_c, 15, 6, 12
17, 24576, Control_c, 15, 10, 64
17, 24576, Control_c, 15, 7, 100
17, 24576, Pitch_bend_c, 15, 8192
17, 24576, Program_c, 15, 0
17, 24576, Control_c, 15, 101, 0
17, 24576, Control_c, 15, 100, 0
17, 24576, Control_c, 15, 6, 12
17, 24576, Control_c, 15, 10, 64
17, 24576, Control_c, 15, 7, 100
17, 24576, Pitch_bend_c, 15, 8192
17, 24576, Program_c, 15, 0
17, 24576, End_track
0, 0, End_of_file
