0, 0, Header, 1, 17, 96
1, 0, Start_track
1, 0, Time_signature, 4, 2, 24, 8
1, 0, End_track
2, 0, Start_track
2, 0, Tempo, 666667
2, 0, Tempo, 666667
2, 0, Tempo, 666667
2, 384, Tempo, 666667
2, 3936, Tempo, 666667
2, 3936, End_track
3, 0, Start_track
3, 0, Title_t, "phase"
3, 0, Program_c, 0, 0
3, 0, Program_c, 0, 0
3, 0, Note_on_c, 0, 0, 100
3, 0, Note_on_c, 0, 60, 100
3, 0, Program_c, 0, 0
3, 48, Note_off_c, 0, 0, 64
3, 48, Note_off_c, 0, 60, 64
3, 408, Note_on_c, 0, 62, 100
3, 456, Note_off_c, 0, 62, 64
3, 3552, Note_on_c, 0, 59, 100
3, 3600, Note_off_c, 0, 59, 64
3, 3936, Program_c, 0, 0
3, 3937, Program_c, 0, 0
3, 3937, End_track
4, 0, Start_track
4, 0, Title_t, "items"
4, 0, Note_on_c, 1, 0, 100
4, 48, Note_off_c, 1, 0, 64
4, 48, End_track
5, 0, Start_track
5, 0, Title_t, "small"
5, 0, Program_c, 2, 0
5, 0, Program_c, 2, 0
5, 0, Note_on_c, 2, 0, 100
5, 0, Program_c, 2, 0
5, 48, Note_off_c, 2, 0, 64
5, 3936, Program_c, 2, 0
5, 3937, Program_c, 2, 0
5, 3937, End_track
6, 0, Start_track
6, 0, Title_t, "large"
6, 0, Program_c, 3, 0
6, 0, Program_c, 3, 0
6, 0, Note_on_c, 3, 0, 100
6, 0, Program_c, 3, 0
6, 48, Note_off_c, 3, 0, 64
6, 3936, Program_c, 3, 0
6, 3937, Program_c, 3, 0
6, 3937, End_track
7, 0, Start_track
7, 0, Title_t, "long"
7, 0, Note_on_c, 4, 0, 100
7, 48, Note_off_c, 4, 0, 64
7, 48, End_track
8, 0, Start_track
8, 0, Title_t, "boss"
8, 0, Program_c, 5, 0
8, 0, Program_c, 5, 0
8, 0, Note_on_c, 5, 0, 100
8, 0, Program_c, 5, 0
8, 48, Note_off_c, 5, 0, 64
8, 3936, Program_c, 5, 0
8, 3937, Program_c, 5, 0
8, 3937, End_track
9, 0, Start_track
9, 0, Title_t, "fantome"
9, 0, Note_on_c, 6, 0, 100
9, 48, Note_off_c, 6, 0, 64
9, 48, End_track
10, 0, Start_track
10, 0, Title_t, "normal"
10, 0, Program_c, 7, 0
10, 0, Program_c, 7, 0
10, 0, Note_on_c, 7, 0, 100
10, 0, Program_c, 7, 0
10, 48, Note_off_c, 7, 0, 64
10, 3936, Program_c, 7, 0
10, 3937, Program_c, 7, 0
10, 3937, End_track
11, 0, Start_track
11, 0, Title_t, "liee"
11, 0, Control_c, 8, 10, 64
11, 0, Control_c, 8, 7, 100
11, 0, Pitch_bend_c, 8, 8192
11, 0, Control_c, 8, 101, 0
11, 0, Control_c, 8, 100, 0
11, 0, Control_c, 8, 6, 12
11, 0, Control_c, 8, 10, 64
11, 0, Control_c, 8, 7, 100
11, 0, Pitch_bend_c, 8, 8192
11, 0, Control_c, 8, 101, 0
11, 0, Control_c, 8, 100, 0
11, 0, Control_c, 8, 6, 12
11, 0, Control_c, 8, 10, 64
11, 0, Control_c, 8, 7, 100
11, 0, Pitch_bend_c, 8, 8192
11, 0, Note_on_c, 8, 0, 100
11, 0, Control_c, 8, 101, 0
11, 0, Control_c, 8, 100, 0
11, 0, Control_c, 8, 6, 12
11, 0, Control_c, 8, 10, 64
11, 0, Control_c, 8, 7, 100
11, 0, Pitch_bend_c, 8, 8192
11, 48, Note_off_c, 8, 0, 64
11, 3936, Control_c, 8, 101, 0
11, 3936, Control_c, 8, 100, 0
11, 3936, Control_c, 8, 6, 12
11, 3936, Control_c, 8, 10, 64
11, 3936, Control_c, 8, 7, 100
11, 3936, Pitch_bend_c, 8, 8192
11, 3937, Control_c, 8, 101, 0
11, 3937, Control_c, 8, 100, 0
11, 3937, Control_c, 8, 6, 12
11, 3937, Control_c, 8, 10, 64
11, 3937, Control_c, 8, 7, 100
11, 3937, Pitch_bend_c, 8, 8192
11, 3937, End_track
12, 0, Start_track
12, 0, Title_t, "silence"
12, 0, Control_c, 9, 0, 1
12, 0, Control_c, 9, 32, 8
12, 0, Control_c, 9, 0, 1
12, 0, Control_c, 9, 32, 8
12, 0, Note_on_c, 9, 0, 100
12, 0, Control_c, 9, 0, 1
12, 0, Control_c, 9, 32, 8
12, 48, Note_off_c, 9, 0, 64
12, 3936, Control_c, 9, 0, 1
12, 3936, Control_c, 9, 32, 8
12, 3937, Control_c, 9, 0, 1
12, 3937, Control_c, 9, 32, 8
12, 3937, End_track
13, 0, Start_track
13, 0, Title_t, "cube"
13, 0, Note_on_c, 0, 0, 100
13, 48, Note_off_c, 0, 0, 64
13, 480, Note_on_c, 0, 59, 100
13, 480, Note_on_c, 0, 66, 100
13, 552, Note_on_c, 0, 60, 100
13, 576, Note_off_c, 0, 60, 64
13, 576, Note_on_c, 0, 60, 100
13, 576, Note_on_c, 0, 61, 100
13, 600, Note_off_c, 0, 61, 64
13, 600, Note_off_c, 0, 60, 64
13, 600, Note_on_c, 0, 60, 100
13, 600, Note_on_c, 0, 61, 100
13, 624, Note_off_c, 0, 61, 64
13, 624, Note_off_c, 0, 60, 64
13, 624, Note_on_c, 0, 60, 100
13, 624, Note_on_c, 0, 61, 100
13, 648, Note_off_c, 0, 61, 64
13, 648, Note_off_c, 0, 60, 64
13, 648, Note_on_c, 0, 60, 100
13, 672, Note_off_c, 0, 60, 64
13, 696, Note_on_c, 0, 60, 100
13, 720, Note_off_c, 0, 60, 64
13, 720, Note_on_c, 0, 60, 100
13, 720, Note_on_c, 0, 61, 100
13, 744, Note_off_c, 0, 61, 64
13, 744, Note_off_c, 0, 60, 64
13, 744, Note_on_c, 0, 61, 100
13, 744, Note_on_c, 0, 60, 100
13, 768, Note_off_c, 0, 60, 64
13, 768, Note_off_c, 0, 61, 64
13, 768, Note_on_c, 0, 60, 100
13, 768, Note_on_c, 0, 61, 100
13, 792, Note_off_c, 0, 61, 64
13, 792, Note_off_c, 0, 60, 64
13, 792, Note_on_c, 0, 60, 100
13, 816, Note_off_c, 0, 60, 64
13, 936, Note_on_c, 0, 65, 101
13, 960, Note_off_c, 0, 65, 64
13, 960, Note_on_c, 0, 65, 101
13, 960, Note_on_c, 0, 64, 101
13, 984, Note_off_c, 0, 64, 64
13, 984, Note_off_c, 0, 65, 64
13, 984, Note_on_c, 0, 64, 101
13, 984, Note_on_c, 0, 65, 101
13, 984, Note_on_c, 0, 63, 101
13, 1008, Note_off_c, 0, 63, 64
13, 1008, Note_off_c, 0, 65, 64
13, 1008, Note_off_c, 0, 64, 64
13, 1008, Note_on_c, 0, 65, 101
13, 1008, Note_on_c, 0, 64, 101
13, 1032, Note_off_c, 0, 64, 64
13, 1032, Note_off_c, 0, 65, 64
13, 1032, Note_on_c, 0, 65, 101
13, 1056, Note_off_c, 0, 65, 64
13, 1128, Note_on_c, 0, 65, 101
13, 1152, Note_off_c, 0, 65, 64
13, 1152, Note_on_c, 0, 65, 101
13, 1152, Note_on_c, 0, 64, 101
13, 1176, Note_off_c, 0, 64, 64
13, 1176, Note_off_c, 0, 65, 64
13, 1176, Note_on_c, 0, 65, 101
13, 1176, Note_on_c, 0, 64, 101
13, 1176, Note_on_c, 0, 63, 101
13, 1200, Note_off_c, 0, 63, 64
13, 1200, Note_off_c, 0, 64, 64
13, 1200, Note_off_c, 0, 65, 64
13, 1200, Note_on_c, 0, 65, 101
13, 1200, Note_on_c, 0, 64, 101
13, 1224, Note_off_c, 0, 64, 64
13, 1224, Note_off_c, 0, 65, 64
13, 1224, Note_on_c, 0, 65, 101
13, 1248, Note_off_c, 0, 65, 64
13, 1464, Note_on_c, 0, 60, 101
13, 1488, Note_off_c, 0, 60, 64
13, 1488, Note_on_c, 0, 60, 101
13, 1488, Note_on_c, 0, 61, 101
13, 1512, Note_off_c, 0, 61, 64
13, 1512, Note_off_c, 0, 60, 64
13, 1512, Note_on_c, 0, 60, 100
13, 1512, Note_on_c, 0, 61, 101
13, 1512, Note_on_c, 0, 62, 101
13, 1536, Note_off_c, 0, 62, 64
13, 1536, Note_off_c, 0, 61, 64
13, 1536, Note_off_c, 0, 60, 64
13, 1536, Note_on_c, 0, 60, 101
13, 1536, Note_on_c, 0, 61, 101
13, 1560, Note_off_c, 0, 61, 64
13, 1560, Note_off_c, 0, 60, 64
13, 1560, Note_on_c, 0, 60, 101
13, 1584, Note_off_c, 0, 60, 64
13, 1584, Note_on_c, 0, 60, 101
13, 1584, Note_on_c, 0, 61, 101
13, 1608, Note_off_c, 0, 61, 64
13, 1608, Note_off_c, 0, 60, 64
13, 1608, Note_on_c, 0, 60, 101
13, 1632, Note_off_c, 0, 60, 64
13, 1704, Note_on_c, 0, 60, 100
13, 1728, Note_off_c, 0, 60, 64
13, 1728, Note_on_c, 0, 60, 100
13, 1752, Note_off_c, 0, 60, 64
13, 1752, Note_on_c, 0, 60, 100
13, 1776, Note_off_c, 0, 60, 64
13, 1776, Note_on_c, 0, 60, 100
13, 1776, Note_on_c, 0, 61, 100
13, 1800, Note_off_c, 0, 61, 64
13, 1800, Note_off_c, 0, 60, 64
13, 1800, Note_on_c, 0, 60, 100
13, 1800, Note_on_c, 0, 61, 100
13, 1824, Note_off_c, 0, 61, 64
13, 1824, Note_off_c, 0, 60, 64
13, 1824, Note_on_c, 0, 60, 100
13, 1824, Note_on_c, 0, 61, 100
13, 1848, Note_off_c, 0, 61, 64
13, 1848, Note_off_c, 0, 60, 64
13, 1848, Note_on_c, 0, 60, 100
13, 1848, Note_on_c, 0, 62, 100
13, 1848, Note_on_c, 0, 61, 100
13, 1872, Note_off_c, 0, 61, 64
13, 1872, Note_off_c, 0, 62, 64
13, 1872, Note_off_c, 0, 60, 64
13, 1872, Note_on_c, 0, 60, 100
13, 1872, Note_on_c, 0, 61, 100
13, 1872, Note_on_c, 0, 62, 100
13, 1896, Note_off_c, 0, 62, 64
13, 1896, Note_off_c, 0, 61, 64
13, 1896, Note_off_c, 0, 60, 64
13, 1896, Note_on_c, 0, 60, 100
13, 1896, Note_on_c, 0, 61, 100
13, 1896, Note_on_c, 0, 62, 100
13, 1920, Note_off_c, 0, 62, 64
13, 1920, Note_off_c, 0, 61, 64
13, 1920, Note_off_c, 0, 60, 64
13, 1920, Note_on_c, 0, 60, 100
13, 1920, Note_on_c, 0, 61, 100
13, 1944, Note_off_c, 0, 61, 64
13, 1944, Note_off_c, 0, 60, 64
13, 1944, Note_on_c, 0, 60, 100
13, 1968, Note_off_c, 0, 60, 64
13, 1968, Note_on_c, 0, 60, 100
13, 1992, Note_off_c, 0, 60, 64
13, 1992, Note_on_c, 0, 60, 100
13, 2016, Note_off_c, 0, 60, 64
13, 2016, Note_on_c, 0, 60, 100
13, 2040, Note_off_c, 0, 60, 64
13, 2088, Note_on_c, 0, 60, 101
13, 2112, Note_off_c, 0, 60, 64
13, 2112, Note_on_c, 0, 60, 101
13, 2112, Note_on_c, 0, 61, 101
13, 2136, Note_off_c, 0, 61, 64
13, 2136, Note_off_c, 0, 60, 64
13, 2136, Note_on_c, 0, 60, 101
13, 2136, Note_on_c, 0, 61, 101
13, 2136, Note_on_c, 0, 62, 101
13, 2160, Note_off_c, 0, 62, 64
13, 2160, Note_off_c, 0, 61, 64
13, 2160, Note_off_c, 0, 60, 64
13, 2160, Note_on_c, 0, 61, 101
13, 2160, Note_on_c, 0, 60, 101
13, 2184, Note_off_c, 0, 60, 64
13, 2184, Note_off_c, 0, 61, 64
13, 2232, Note_on_c, 0, 61, 101
13, 2256, Note_off_c, 0, 61, 64
13, 2256, Note_on_c, 0, 61, 101
13, 2256, Note_on_c, 0, 62, 101
13, 2280, Note_off_c, 0, 62, 64
13, 2280, Note_off_c, 0, 61, 64
13, 2280, Note_on_c, 0, 62, 101
13, 2280, Note_on_c, 0, 63, 101
13, 2280, Note_on_c, 0, 61, 101
13, 2304, Note_off_c, 0, 61, 64
13, 2304, Note_off_c, 0, 63, 64
13, 2304, Note_off_c, 0, 62, 64
13, 2304, Note_on_c, 0, 62, 101
13, 2304, Note_on_c, 0, 61, 101
13, 2328, Note_off_c, 0, 61, 64
13, 2328, Note_off_c, 0, 62, 64
13, 2328, Note_on_c, 0, 61, 101
13, 2352, Note_off_c, 0, 61, 64
13, 2472, Note_on_c, 0, 65, 101
13, 2496, Note_off_c, 0, 65, 64
13, 2496, Note_on_c, 0, 65, 101
13, 2496, Note_on_c, 0, 64, 101
13, 2520, Note_off_c, 0, 64, 64
13, 2520, Note_off_c, 0, 65, 64
13, 2520, Note_on_c, 0, 64, 101
13, 2520, Note_on_c, 0, 65, 101
13, 2520, Note_on_c, 0, 63, 101
13, 2544, Note_off_c, 0, 63, 64
13, 2544, Note_off_c, 0, 65, 64
13, 2544, Note_off_c, 0, 64, 64
13, 2544, Note_on_c, 0, 65, 101
13, 2544, Note_on_c, 0, 64, 101
13, 2568, Note_off_c, 0, 64, 64
13, 2568, Note_off_c, 0, 65, 64
13, 2568, Note_on_c, 0, 65, 101
13, 2592, Note_off_c, 0, 65, 64
13, 2664, Note_on_c, 0, 65, 101
13, 2688, Note_off_c, 0, 65, 64
13, 2688, Note_on_c, 0, 65, 101
13, 2688, Note_on_c, 0, 64, 101
13, 2712, Note_off_c, 0, 64, 64
13, 2712, Note_off_c, 0, 65, 64
13, 2712, Note_on_c, 0, 64, 101
13, 2712, Note_on_c, 0, 65, 101
13, 2712, Note_on_c, 0, 63, 101
13, 2736, Note_off_c, 0, 63, 64
13, 2736, Note_off_c, 0, 65, 64
13, 2736, Note_off_c, 0, 64, 64
13, 2736, Note_on_c, 0, 65, 101
13, 2736, Note_on_c, 0, 64, 101
13, 2760, Note_off_c, 0, 64, 64
13, 2760, Note_off_c, 0, 65, 64
13, 2760, Note_on_c, 0, 65, 101
13, 2784, Note_off_c, 0, 65, 64
13, 2856, Note_on_c, 0, 65, 101
13, 2880, Note_off_c, 0, 65, 64
13, 2880, Note_on_c, 0, 65, 101
13, 2880, Note_on_c, 0, 64, 101
13, 2904, Note_off_c, 0, 64, 64
13, 2904, Note_off_c, 0, 65, 64
13, 2904, Note_on_c, 0, 65, 101
13, 2904, Note_on_c, 0, 64, 101
13, 2904, Note_on_c, 0, 63, 101
13, 2928, Note_off_c, 0, 63, 64
13, 2928, Note_off_c, 0, 64, 64
13, 2928, Note_off_c, 0, 65, 64
13, 2928, Note_on_c, 0, 65, 101
13, 2928, Note_on_c, 0, 64, 101
13, 2952, Note_off_c, 0, 64, 64
13, 2952, Note_off_c, 0, 65, 64
13, 2952, Note_on_c, 0, 65, 101
13, 2976, Note_off_c, 0, 65, 64
13, 3000, Note_on_c, 0, 65, 101
13, 3024, Note_off_c, 0, 65, 64
13, 3024, Note_on_c, 0, 65, 101
13, 3024, Note_on_c, 0, 64, 101
13, 3048, Note_off_c, 0, 64, 64
13, 3048, Note_off_c, 0, 65, 64
13, 3048, Note_on_c, 0, 65, 101
13, 3048, Note_on_c, 0, 64, 101
13, 3048, Note_on_c, 0, 63, 101
13, 3072, Note_off_c, 0, 63, 64
13, 3072, Note_off_c, 0, 64, 64
13, 3072, Note_off_c, 0, 65, 64
13, 3072, Note_on_c, 0, 65, 101
13, 3072, Note_on_c, 0, 64, 101
13, 3096, Note_off_c, 0, 64, 64
13, 3096, Note_off_c, 0, 65, 64
13, 3096, Note_on_c, 0, 65, 101
13, 3120, Note_off_c, 0, 65, 64
13, 3120, Note_on_c, 0, 65, 101
13, 3120, Note_on_c, 0, 64, 101
13, 3144, Note_off_c, 0, 64, 64
13, 3144, Note_off_c, 0, 65, 64
13, 3144, Note_on_c, 0, 65, 101
13, 3168, Note_off_c, 0, 65, 64
13, 3240, Note_on_c, 0, 60, 101
13, 3264, Note_off_c, 0, 60, 64
13, 3264, Note_on_c, 0, 60, 101
13, 3264, Note_on_c, 0, 61, 101
13, 3288, Note_off_c, 0, 61, 64
13, 3288, Note_off_c, 0, 60, 64
13, 3288, Note_on_c, 0, 60, 101
13, 3288, Note_on_c, 0, 61, 101
13, 3288, Note_on_c, 0, 62, 101
13, 3312, Note_off_c, 0, 62, 64
13, 3312, Note_off_c, 0, 61, 64
13, 3312, Note_off_c, 0, 60, 64
13, 3312, Note_on_c, 0, 60, 101
13, 3312, Note_on_c, 0, 61, 101
13, 3336, Note_off_c, 0, 61, 64
13, 3336, Note_off_c, 0, 60, 64
13, 3336, Note_on_c, 0, 60, 101
13, 3360, Note_off_c, 0, 60, 64
13, 3384, Note_on_c, 0, 60, 101
13, 3408, Note_off_c, 0, 60, 64
13, 3408, Note_on_c, 0, 60, 101
13, 3408, Note_on_c, 0, 61, 101
13, 3432, Note_off_c, 0, 61, 64
13, 3432, Note_off_c, 0, 60, 64
13, 3432, Note_on_c, 0, 60, 101
13, 3432, Note_on_c, 0, 61, 101
13, 3432, Note_on_c, 0, 62, 101
13, 3456, Note_off_c, 0, 62, 64
13, 3456, Note_off_c, 0, 61, 64
13, 3456, Note_off_c, 0, 60, 64
13, 3456, Note_on_c, 0, 60, 101
13, 3456, Note_on_c, 0, 61, 101
13, 3480, Note_off_c, 0, 61, 64
13, 3480, Note_off_c, 0, 60, 64
13, 3480, Note_on_c, 0, 60, 101
13, 3480, Note_on_c, 0, 61, 101
13, 3480, Note_on_c, 0, 62, 101
13, 3504, Note_off_c, 0, 62, 64
13, 3504, Note_off_c, 0, 61, 64
13, 3504, Note_off_c, 0, 60, 64
13, 3504, Note_on_c, 0, 60, 101
13, 3504, Note_on_c, 0, 61, 101
13, 3528, Note_off_c, 0, 61, 64
13, 3528, Note_off_c, 0, 60, 64
13, 3528, Note_on_c, 0, 60, 101
13, 3552, Note_off_c, 0, 66, 64
13, 3552, Note_off_c, 0, 59, 64
13, 3552, Note_off_c, 0, 60, 64
13, 3552, End_track
14, 0, Start_track
14, 0, Title_t, "pique"
14, 0, Note_on_c, 11, 0, 100
14, 48, Note_off_c, 11, 0, 64
14, 504, Note_on_c, 11, 60, 101
14, 528, Note_off_c, 11, 60, 64
14, 1080, Note_on_c, 11, 65, 101
14, 1104, Note_off_c, 11, 65, 64
14, 1320, Note_on_c, 11, 60, 101
14, 1344, Note_off_c, 11, 60, 64
14, 1344, Note_on_c, 11, 60, 101
14, 1368, Note_off_c, 11, 60, 64
14, 1872, Note_on_c, 11, 63, 100
14, 1896, Note_off_c, 11, 63, 64
14, 1968, Note_on_c, 11, 61, 100
14, 1992, Note_off_c, 11, 61, 64
14, 1992, Note_on_c, 11, 61, 100
14, 2016, Note_off_c, 11, 61, 64
14, 2184, Note_on_c, 11, 60, 101
14, 2208, Note_off_c, 11, 60, 64
14, 2616, Note_on_c, 11, 65, 101
14, 2640, Note_off_c, 11, 65, 64
14, 2640, End_track
15, 0, Start_track
15, 0, Title_t, "orbe"
15, 0, Note_on_c, 12, 0, 100
15, 48, Note_off_c, 12, 0, 64
15, 480, Note_on_c, 12, 61, 127
15, 504, Note_off_c, 12, 61, 64
15, 504, Note_on_c, 12, 64, 127
15, 516, Note_on_c, 12, 61, 0
15, 528, Note_off_c, 12, 64, 64
15, 540, Note_off_c, 12, 61, 64
15, 888, Note_on_c, 12, 61, 127
15, 912, Note_off_c, 12, 61, 64
15, 1272, Note_on_c, 12, 64, 127
15, 1296, Note_off_c, 12, 64, 64
15, 1968, Note_on_c, 12, 62, 0
15, 1992, Note_off_c, 12, 62, 64
15, 2352, Note_on_c, 12, 61, 127
15, 2376, Note_off_c, 12, 61, 64
15, 3192, Note_on_c, 12, 64, 127
15, 3216, Note_off_c, 12, 64, 64
15, 3216, End_track
16, 0, Start_track
16, 0, Title_t, "dash"
16, 0, Note_on_c, 13, 0, 100
16, 48, Note_off_c, 13, 0, 64
16, 600, Note_on_c, 13, 62, 101
16, 624, Note_off_c, 13, 62, 64
16, 1296, Note_on_c, 13, 61, 101
16, 1320, Note_off_c, 13, 61, 64
16, 2184, Note_on_c, 13, 62, 101
16, 2208, Note_off_c, 13, 62, 64
16, 2208, End_track
17, 0, Start_track
17, 0, Title_t, "theme"
17, 0, Note_on_c, 14, 0, 100
17, 48, Note_off_c, 14, 0, 64
17, 408, Note_on_c, 14, 62, 100
17, 456, Note_off_c, 14, 62, 64
17, 456, End_track
0, 0, End_of_file
